rawline-400i.ufo
<glyph name="exclam" format="2">
  <advance width="507"/>
  <unicode hex="0021"/>
  <outline>
    <contour>
      <point x="154" y="467" type="line"/>
      <point x="365" y="1468" type="line"/>
      <point x="504" y="1468" type="line"/>
      <point x="293" y="467" type="line"/>
    </contour>
    <contour>
      <point x="53" y="0" type="line"/>
      <point x="102" y="229" type="line"/>
      <point x="244" y="229" type="line"/>
      <point x="193" y="0" type="line"/>
    </contour>
  </outline>
</glyph>
<glyph name="quotedbl" format="2">
  <advance width="587"/>
  <unicode hex="0022"/>
  <outline>
    <contour>
      <point x="229" y="1069" type="line"/>
      <point x="313" y="1466" type="line"/>
      <point x="436" y="1466" type="line"/>
      <point x="352" y="1069" type="line"/>
    </contour>
    <contour>
      <point x="420" y="1069" type="line"/>
      <point x="506" y="1466" type="line"/>
      <point x="627" y="1466" type="line"/>
      <point x="543" y="1069" type="line"/>
    </contour>
  </outline>
</glyph>
<glyph name="numbersign" format="2">
  <advance width="1335"/>
  <unicode hex="0023"/>
  <outline>
    <contour>
      <point x="1327" y="936" type="line"/>
      <point x="1073" y="936" type="line"/>
      <point x="897" y="535" type="line"/>
      <point x="1157" y="535" type="line"/>
      <point x="1135" y="424" type="line"/>
      <point x="848" y="424" type="line"/>
      <point x="662" y="0" type="line"/>
      <point x="543" y="0" type="line"/>
      <point x="733" y="424" type="line"/>
      <point x="371" y="424" type="line"/>
      <point x="184" y="0" type="line"/>
      <point x="66" y="0" type="line"/>
      <point x="256" y="424" type="line"/>
      <point x="37" y="424" type="line"/>
      <point x="59" y="535" type="line"/>
      <point x="307" y="535" type="line"/>
      <point x="481" y="936" type="line"/>
      <point x="227" y="936" type="line"/>
      <point x="252" y="1040" type="line"/>
      <point x="530" y="1040" type="line"/>
      <point x="713" y="1454" type="line"/>
      <point x="829" y="1454" type="line"/>
      <point x="645" y="1040" type="line"/>
      <point x="1008" y="1040" type="line"/>
      <point x="1188" y="1454" type="line"/>
      <point x="1307" y="1454" type="line"/>
      <point x="1122" y="1040" type="line"/>
      <point x="1350" y="1040" type="line"/>
    </contour>
    <contour>
      <point x="780" y="535" type="line"/>
      <point x="958" y="936" type="line"/>
      <point x="598" y="936" type="line"/>
      <point x="422" y="535" type="line"/>
    </contour>
  </outline>
</glyph>
<glyph name="dollar" format="2">
  <advance width="1216"/>
  <unicode hex="0024"/>
  <outline>
    <contour>
      <point x="1118" y="1182" type="line"/>
      <point x="1077" y="1250"/>
      <point x="910" y="1333"/>
      <point x="797" y="1337" type="qcurve"/>
      <point x="680" y="793" type="line" smooth="yes"/>
      <point x="682" y="792"/>
      <point x="692" y="789"/>
      <point x="694" y="788" type="qcurve" smooth="yes"/>
      <point x="793" y="765"/>
      <point x="928" y="715"/>
      <point x="1040" y="639"/>
      <point x="1094" y="530"/>
      <point x="1094" y="457" type="qcurve" smooth="yes"/>
      <point x="1094" y="345"/>
      <point x="1006" y="166"/>
      <point x="849" y="52"/>
      <point x="641" y="-10"/>
      <point x="518" y="-12" type="qcurve"/>
      <point x="475" y="-211" type="line"/>
      <point x="401" y="-211" type="line"/>
      <point x="444" y="-10" type="line"/>
      <point x="160" y="8"/>
      <point x="-10" y="199" type="qcurve"/>
      <point x="86" y="315" type="line"/>
      <point x="139" y="236"/>
      <point x="346" y="127"/>
      <point x="477" y="117" type="qcurve"/>
      <point x="594" y="664" type="line" smooth="yes"/>
      <point x="592" y="665"/>
      <point x="582" y="667"/>
      <point x="580" y="668" type="qcurve" smooth="yes"/>
      <point x="389" y="716"/>
      <point x="211" y="849"/>
      <point x="211" y="973" type="qcurve" smooth="yes"/>
      <point x="211" y="1116"/>
      <point x="356" y="1335"/>
      <point x="601" y="1454"/>
      <point x="756" y="1462" type="qcurve"/>
      <point x="801" y="1669" type="line"/>
      <point x="874" y="1669" type="line"/>
      <point x="831" y="1464" type="line"/>
      <point x="1073" y="1455"/>
      <point x="1210" y="1296" type="qcurve"/>
    </contour>
    <contour>
      <point x="367" y="1018" type="qcurve" smooth="yes"/>
      <point x="367" y="935"/>
      <point x="487" y="845"/>
      <point x="625" y="807" type="qcurve"/>
      <point x="737" y="1337" type="line"/>
      <point x="550" y="1328"/>
      <point x="367" y="1156"/>
    </contour>
    <contour>
      <point x="936" y="414" type="qcurve" smooth="yes"/>
      <point x="936" y="504"/>
      <point x="798" y="608"/>
      <point x="649" y="649" type="qcurve"/>
      <point x="535" y="115" type="line"/>
      <point x="723" y="115"/>
      <point x="936" y="271"/>
    </contour>
  </outline>
</glyph>
<glyph name="percent" format="2">
  <advance width="1409"/>
  <unicode hex="0025"/>
  <outline>
    <contour>
      <point x="197" y="1128" type="qcurve" smooth="yes"/>
      <point x="197" y="1219"/>
      <point x="301" y="1380"/>
      <point x="468" y="1475"/>
      <point x="559" y="1475" type="qcurve" smooth="yes"/>
      <point x="663" y="1475"/>
      <point x="795" y="1335"/>
      <point x="795" y="1231" type="qcurve" smooth="yes"/>
      <point x="795" y="1095"/>
      <point x="572" y="887"/>
      <point x="432" y="887" type="qcurve" smooth="yes"/>
      <point x="329" y="887"/>
      <point x="197" y="1025"/>
    </contour>
    <contour>
      <point x="14" y="55" type="line"/>
      <point x="698" y="743" type="line"/>
      <point x="1384" y="1462" type="line"/>
      <point x="1442" y="1401" type="line"/>
      <point x="748" y="696" type="line"/>
      <point x="72" y="-8" type="line"/>
    </contour>
    <contour>
      <point x="688" y="1221" type="qcurve" smooth="yes"/>
      <point x="688" y="1294"/>
      <point x="605" y="1393"/>
      <point x="541" y="1393" type="qcurve" smooth="yes"/>
      <point x="451" y="1393"/>
      <point x="303" y="1237"/>
      <point x="303" y="1141" type="qcurve" smooth="yes"/>
      <point x="303" y="1068"/>
      <point x="386" y="967"/>
      <point x="451" y="967" type="qcurve" smooth="yes"/>
      <point x="540" y="967"/>
      <point x="688" y="1124"/>
    </contour>
    <contour>
      <point x="662" y="223" type="qcurve" smooth="yes"/>
      <point x="662" y="359"/>
      <point x="886" y="567"/>
      <point x="1024" y="567" type="qcurve" smooth="yes"/>
      <point x="1128" y="567"/>
      <point x="1260" y="429"/>
      <point x="1260" y="326" type="qcurve" smooth="yes"/>
      <point x="1260" y="235"/>
      <point x="1157" y="74"/>
      <point x="990" y="-20"/>
      <point x="899" y="-20" type="qcurve" smooth="yes"/>
      <point x="796" y="-20"/>
      <point x="662" y="119"/>
    </contour>
    <contour>
      <point x="1155" y="313" type="qcurve" smooth="yes"/>
      <point x="1155" y="386"/>
      <point x="1070" y="487"/>
      <point x="1006" y="487" type="qcurve" smooth="yes"/>
      <point x="916" y="487"/>
      <point x="766" y="329"/>
      <point x="766" y="233" type="qcurve" smooth="yes"/>
      <point x="766" y="160"/>
      <point x="850" y="61"/>
      <point x="915" y="61" type="qcurve" smooth="yes"/>
      <point x="1005" y="61"/>
      <point x="1155" y="216"/>
    </contour>
  </outline>
</glyph>
<glyph name="ampersand" format="2">
  <advance width="1374"/>
  <unicode hex="0026"/>
  <outline>
    <contour>
      <point x="1315" y="739" type="line"/>
      <point x="1114" y="739" type="line"/>
      <point x="1051" y="510"/>
      <point x="928" y="330" type="qcurve"/>
      <point x="1159" y="0" type="line"/>
      <point x="983" y="0" type="line"/>
      <point x="838" y="213" type="line"/>
      <point x="736" y="101"/>
      <point x="499" y="-20"/>
      <point x="379" y="-20" type="qcurve" smooth="yes"/>
      <point x="228" y="-20"/>
      <point x="37" y="169"/>
      <point x="37" y="317" type="qcurve" smooth="yes"/>
      <point x="37" y="397"/>
      <point x="93" y="540"/>
      <point x="204" y="663"/>
      <point x="334" y="764"/>
      <point x="424" y="819" type="qcurve"/>
      <point x="362" y="914"/>
      <point x="309" y="1048"/>
      <point x="309" y="1106" type="qcurve" smooth="yes"/>
      <point x="309" y="1204"/>
      <point x="426" y="1374"/>
      <point x="622" y="1473"/>
      <point x="733" y="1473" type="qcurve" smooth="yes"/>
      <point x="843" y="1473"/>
      <point x="1016" y="1357"/>
      <point x="1059" y="1257" type="qcurve"/>
      <point x="963" y="1171" type="line"/>
      <point x="930" y="1257"/>
      <point x="794" y="1364"/>
      <point x="711" y="1364" type="qcurve" smooth="yes"/>
      <point x="604" y="1364"/>
      <point x="440" y="1220"/>
      <point x="440" y="1126" type="qcurve" smooth="yes"/>
      <point x="440" y="1028"/>
      <point x="565" y="850" type="qcurve" smooth="yes"/>
      <point x="860" y="428" type="line"/>
      <point x="969" y="616"/>
      <point x="1012" y="852" type="qcurve"/>
      <point x="1339" y="852" type="line"/>
    </contour>
    <contour>
      <point x="408" y="94" type="qcurve" smooth="yes"/>
      <point x="503" y="94"/>
      <point x="693" y="205"/>
      <point x="774" y="305" type="qcurve"/>
      <point x="485" y="729" type="line"/>
      <point x="330" y="634"/>
      <point x="174" y="447"/>
      <point x="174" y="334" type="qcurve" smooth="yes"/>
      <point x="174" y="224"/>
      <point x="306" y="94"/>
    </contour>
  </outline>
</glyph>
<glyph name="quotesingle" format="2">
  <advance width="395"/>
  <unicode hex="0027"/>
  <outline>
    <contour>
      <point x="229" y="1067" type="line"/>
      <point x="313" y="1466" type="line"/>
      <point x="436" y="1466" type="line"/>
      <point x="352" y="1067" type="line"/>
    </contour>
  </outline>
</glyph>
<glyph name="parenleft" format="2">
  <advance width="538"/>
  <unicode hex="0028"/>
  <outline>
    <contour>
      <point x="557" y="1513" type="qcurve"/>
      <point x="651" y="1462" type="line"/>
      <point x="581" y="1379"/>
      <point x="447" y="1184"/>
      <point x="308" y="936"/>
      <point x="223" y="665"/>
      <point x="223" y="547" type="qcurve" smooth="yes"/>
      <point x="223" y="417"/>
      <point x="282" y="108"/>
      <point x="334" y="-20" type="qcurve"/>
      <point x="219" y="-76" type="line"/>
      <point x="159" y="65"/>
      <point x="90" y="385"/>
      <point x="90" y="532" type="qcurve" smooth="yes"/>
      <point x="90" y="637"/>
      <point x="141" y="848"/>
      <point x="216" y="1025"/>
      <point x="349" y="1238"/>
      <point x="467" y="1398"/>
    </contour>
  </outline>
</glyph>
<glyph name="parenright" format="2">
  <advance width="538"/>
  <unicode hex="0029"/>
  <outline>
    <contour>
      <point x="27" y="-76" type="qcurve"/>
      <point x="-66" y="-20" type="line"/>
      <point x="135" y="221"/>
      <point x="354" y="658"/>
      <point x="354" y="868" type="qcurve" smooth="yes"/>
      <point x="354" y="1020"/>
      <point x="289" y="1360"/>
      <point x="246" y="1462" type="qcurve"/>
      <point x="365" y="1513" type="line"/>
      <point x="489" y="1174"/>
      <point x="489" y="885" type="qcurve" smooth="yes"/>
      <point x="489" y="761"/>
      <point x="423" y="515"/>
      <point x="292" y="272"/>
      <point x="135" y="52"/>
    </contour>
  </outline>
</glyph>
<glyph name="asterisk" format="2">
  <advance width="641"/>
  <unicode hex="002A"/>
  <outline>
    <contour>
      <point x="276" y="1118" type="line"/>
      <point x="387" y="1245" type="line"/>
      <point x="264" y="1290" type="line"/>
      <point x="301" y="1364" type="line"/>
      <point x="426" y="1311" type="line"/>
      <point x="453" y="1460" type="line"/>
      <point x="537" y="1460" type="line"/>
      <point x="500" y="1311" type="line"/>
      <point x="649" y="1364" type="line"/>
      <point x="653" y="1290" type="line"/>
      <point x="510" y="1245" type="line"/>
      <point x="569" y="1118" type="line"/>
      <point x="496" y="1073" type="line"/>
      <point x="442" y="1206" type="line"/>
      <point x="330" y="1073" type="line"/>
    </contour>
  </outline>
</glyph>
<glyph name="plus" format="2">
  <advance width="847"/>
  <unicode hex="002B"/>
  <outline>
    <contour>
      <point x="762" y="784" type="line"/>
      <point x="762" y="670" type="line"/>
      <point x="508" y="670" type="line"/>
      <point x="508" y="393" type="line"/>
      <point x="379" y="393" type="line"/>
      <point x="379" y="670" type="line"/>
      <point x="125" y="670" type="line"/>
      <point x="125" y="784" type="line"/>
      <point x="379" y="784" type="line"/>
      <point x="379" y="1061" type="line"/>
      <point x="508" y="1061" type="line"/>
      <point x="508" y="784" type="line"/>
    </contour>
  </outline>
</glyph>
<glyph name="comma" format="2">
  <advance width="425"/>
  <unicode hex="002C"/>
  <outline>
    <contour>
      <point x="8" y="-166" type="line"/>
      <point x="80" y="6" type="line"/>
      <point x="33" y="6" type="line"/>
      <point x="74" y="201" type="line"/>
      <point x="207" y="201" type="line"/>
      <point x="166" y="6" type="line"/>
      <point x="80" y="-166" type="line"/>
    </contour>
  </outline>
</glyph>
<glyph name="hyphen" format="2">
  <advance width="829"/>
  <unicode hex="002D"/>
  <outline>
    <contour>
      <point x="104" y="494" type="line"/>
      <point x="131" y="623" type="line"/>
      <point x="700" y="623" type="line"/>
      <point x="674" y="494" type="line"/>
    </contour>
  </outline>
</glyph>
<glyph name="period" format="2">
  <advance width="385"/>
  <unicode hex="002E"/>
  <outline>
    <contour>
      <point x="4" y="0" type="line"/>
      <point x="47" y="201" type="line"/>
      <point x="166" y="201" type="line"/>
      <point x="123" y="0" type="line"/>
    </contour>
  </outline>
</glyph>
<glyph name="slash" format="2">
  <advance width="1226"/>
  <unicode hex="002F"/>
  <outline>
    <contour>
      <point x="1333" y="1454" type="line"/>
      <point x="104" y="0" type="line"/>
      <point x="-53" y="0" type="line"/>
      <point x="1178" y="1454" type="line"/>
    </contour>
  </outline>
</glyph>
<glyph name="zero" format="2">
  <advance width="1347"/>
  <unicode hex="0030"/>
  <outline>
    <contour>
      <point x="102" y="563" type="qcurve" smooth="yes"/>
      <point x="102" y="683"/>
      <point x="178" y="939"/>
      <point x="320" y="1166"/>
      <point x="503" y="1348"/>
      <point x="733" y="1454"/>
      <point x="852" y="1454" type="qcurve" smooth="yes"/>
      <point x="941" y="1454"/>
      <point x="1089" y="1384"/>
      <point x="1188" y="1269"/>
      <point x="1256" y="1115"/>
      <point x="1286" y="951"/>
      <point x="1286" y="866" type="qcurve" smooth="yes"/>
      <point x="1286" y="766"/>
      <point x="1232" y="553"/>
      <point x="1136" y="358"/>
      <point x="996" y="184"/>
      <point x="834" y="55"/>
      <point x="639" y="-20"/>
      <point x="539" y="-20" type="qcurve" smooth="yes"/>
      <point x="451" y="-20"/>
      <point x="303" y="48"/>
      <point x="203" y="163"/>
      <point x="134" y="315"/>
      <point x="102" y="478"/>
    </contour>
    <contour>
      <point x="1141" y="856" type="qcurve" smooth="yes"/>
      <point x="1141" y="946"/>
      <point x="1102" y="1110"/>
      <point x="1027" y="1245"/>
      <point x="903" y="1325"/>
      <point x="825" y="1325" type="qcurve" smooth="yes"/>
      <point x="742" y="1325"/>
      <point x="585" y="1253"/>
      <point x="461" y="1133"/>
      <point x="357" y="975"/>
      <point x="288" y="802"/>
      <point x="250" y="627"/>
      <point x="250" y="549" type="qcurve" smooth="yes"/>
      <point x="250" y="460"/>
      <point x="286" y="306"/>
      <point x="359" y="181"/>
      <point x="484" y="109"/>
      <point x="565" y="109" type="qcurve" smooth="yes"/>
      <point x="662" y="109"/>
      <point x="846" y="206"/>
      <point x="983" y="365"/>
      <point x="1087" y="561"/>
      <point x="1141" y="765"/>
    </contour>
  </outline>
</glyph>
<glyph name="one" format="2">
  <advance width="815"/>
  <unicode hex="0031"/>
  <outline>
    <contour>
      <point x="27" y="127" type="line"/>
      <point x="289" y="127" type="line"/>
      <point x="541" y="1317" type="line"/>
      <point x="495" y="1264"/>
      <point x="271" y="1141"/>
      <point x="199" y="1141" type="qcurve"/>
      <point x="225" y="1272" type="line"/>
      <point x="286" y="1272"/>
      <point x="461" y="1373"/>
      <point x="566" y="1462"/>
      <point x="575" y="1473" type="qcurve"/>
      <point x="717" y="1473" type="line"/>
      <point x="432" y="127" type="line"/>
      <point x="678" y="127" type="line"/>
      <point x="651" y="0" type="line"/>
      <point x="0" y="0" type="line"/>
    </contour>
  </outline>
</glyph>
<glyph name="two" format="2">
  <advance width="1138"/>
  <unicode hex="0032"/>
  <outline>
    <contour>
      <point x="483" y="666" type="qcurve" smooth="yes"/>
      <point x="514" y="680"/>
      <point x="620" y="722"/>
      <point x="689" y="749"/>
      <point x="784" y="795"/>
      <point x="846" y="837"/>
      <point x="914" y="899"/>
      <point x="953" y="967"/>
      <point x="979" y="1059"/>
      <point x="979" y="1112" type="qcurve" smooth="yes"/>
      <point x="979" y="1212"/>
      <point x="857" y="1341"/>
      <point x="739" y="1341" type="qcurve" smooth="yes"/>
      <point x="648" y="1341"/>
      <point x="467" y="1267"/>
      <point x="357" y="1182"/>
      <point x="311" y="1133" type="qcurve"/>
      <point x="240" y="1223" type="line"/>
      <point x="264" y="1247"/>
      <point x="304" y="1284"/>
      <point x="420" y="1369"/>
      <point x="532" y="1426"/>
      <point x="699" y="1473"/>
      <point x="782" y="1473" type="qcurve" smooth="yes"/>
      <point x="899" y="1473"/>
      <point x="1062" y="1379"/>
      <point x="1135" y="1231"/>
      <point x="1135" y="1137" type="qcurve" smooth="yes"/>
      <point x="1135" y="1070"/>
      <point x="1105" y="954"/>
      <point x="1055" y="865"/>
      <point x="980" y="786"/>
      <point x="900" y="728"/>
      <point x="799" y="673"/>
      <point x="709" y="631"/>
      <point x="656" y="608" type="qcurve" smooth="yes"/>
      <point x="628" y="596"/>
      <point x="614" y="590" type="qcurve" smooth="yes"/>
      <point x="499" y="541"/>
      <point x="336" y="434"/>
      <point x="238" y="316"/>
      <point x="185" y="200"/>
      <point x="170" y="127" type="qcurve"/>
      <point x="930" y="127" type="line"/>
      <point x="903" y="0" type="line"/>
      <point x="-33" y="0" type="line"/>
      <point x="-6" y="140"/>
      <point x="86" y="353"/>
      <point x="220" y="509"/>
      <point x="377" y="618"/>
    </contour>
  </outline>
</glyph>
<glyph name="three" format="2">
  <advance width="1142"/>
  <unicode hex="0033"/>
  <outline>
    <contour>
      <point x="29" y="319" type="qcurve"/>
      <point x="129" y="397" type="line"/>
      <point x="129" y="269"/>
      <point x="293" y="113"/>
      <point x="442" y="113" type="qcurve" smooth="yes"/>
      <point x="549" y="113"/>
      <point x="737" y="195"/>
      <point x="852" y="343"/>
      <point x="852" y="432" type="qcurve" smooth="yes"/>
      <point x="852" y="552"/>
      <point x="649" y="682"/>
      <point x="465" y="682" type="qcurve" smooth="yes"/>
      <point x="399" y="682" type="line"/>
      <point x="424" y="803" type="line"/>
      <point x="492" y="803" type="line" smooth="yes"/>
      <point x="707" y="803"/>
      <point x="956" y="963"/>
      <point x="956" y="1108" type="qcurve" smooth="yes"/>
      <point x="956" y="1219"/>
      <point x="812" y="1348"/>
      <point x="692" y="1348" type="qcurve" smooth="yes"/>
      <point x="575" y="1348"/>
      <point x="364" y="1231"/>
      <point x="309" y="1141" type="qcurve"/>
      <point x="233" y="1235" type="line"/>
      <point x="310" y="1344"/>
      <point x="581" y="1473"/>
      <point x="723" y="1473" type="qcurve" smooth="yes"/>
      <point x="896" y="1473"/>
      <point x="1106" y="1281"/>
      <point x="1106" y="1128" type="qcurve" smooth="yes"/>
      <point x="1106" y="989"/>
      <point x="926" y="789"/>
      <point x="758" y="748" type="qcurve"/>
      <point x="869" y="725"/>
      <point x="995" y="558"/>
      <point x="995" y="442" type="qcurve" smooth="yes"/>
      <point x="995" y="308"/>
      <point x="825" y="93"/>
      <point x="565" y="-18"/>
      <point x="422" y="-18" type="qcurve" smooth="yes"/>
      <point x="242" y="-18"/>
      <point x="29" y="163"/>
    </contour>
  </outline>
</glyph>
<glyph name="four" format="2">
  <advance width="1118"/>
  <unicode hex="0034"/>
  <outline>
    <contour>
      <point x="598" y="0" type="line"/>
      <point x="680" y="389" type="line"/>
      <point x="6" y="389" type="line"/>
      <point x="35" y="514" type="line"/>
      <point x="950" y="1454" type="line"/>
      <point x="1047" y="1454" type="line"/>
      <point x="848" y="516" type="line"/>
      <point x="1020" y="516" type="line"/>
      <point x="991" y="389" type="line"/>
      <point x="819" y="389" type="line"/>
      <point x="737" y="0" type="line"/>
    </contour>
    <contour>
      <point x="721" y="516" type="line"/>
      <point x="874" y="1237" type="line"/>
      <point x="184" y="516" type="line"/>
    </contour>
  </outline>
</glyph>
<glyph name="five" format="2">
  <advance width="1099"/>
  <unicode hex="0035"/>
  <outline>
    <contour>
      <point x="8" y="260" type="qcurve"/>
      <point x="115" y="330" type="line"/>
      <point x="148" y="228"/>
      <point x="311" y="106"/>
      <point x="529" y="106"/>
      <point x="723" y="215"/>
      <point x="842" y="409"/>
      <point x="842" y="524" type="qcurve" smooth="yes"/>
      <point x="842" y="647"/>
      <point x="699" y="801"/>
      <point x="582" y="801" type="qcurve" smooth="yes"/>
      <point x="492" y="801"/>
      <point x="313" y="714"/>
      <point x="248" y="637" type="qcurve"/>
      <point x="119" y="637" type="line"/>
      <point x="132" y="667"/>
      <point x="296" y="1077"/>
      <point x="445" y="1454"/>
      <point x="446" y="1454" type="qcurve" smooth="yes"/>
      <point x="1116" y="1454" type="line"/>
      <point x="1087" y="1325" type="line"/>
      <point x="524" y="1325" type="line"/>
      <point x="317" y="803" type="line"/>
      <point x="447" y="924"/>
      <point x="623" y="924" type="qcurve" smooth="yes"/>
      <point x="785" y="924"/>
      <point x="987" y="716"/>
      <point x="987" y="551" type="qcurve" smooth="yes"/>
      <point x="987" y="431"/>
      <point x="887" y="216"/>
      <point x="722" y="67"/>
      <point x="507" y="-20"/>
      <point x="393" y="-20" type="qcurve" smooth="yes"/>
      <point x="247" y="-20"/>
      <point x="42" y="131"/>
    </contour>
  </outline>
</glyph>
<glyph name="seven" format="2">
  <advance width="1021"/>
  <unicode hex="0037"/>
  <outline>
    <contour>
      <point x="940" y="1325" type="line"/>
      <point x="203" y="1325" type="line"/>
      <point x="229" y="1454" type="line"/>
      <point x="1190" y="1454" type="line"/>
      <point x="180" y="0" type="line"/>
      <point x="25" y="0" type="line"/>
    </contour>
  </outline>
</glyph>
<glyph name="eight" format="2">
  <advance width="1167"/>
  <unicode hex="0038"/>
  <outline>
    <contour>
      <point x="444" y="-16" type="qcurve" smooth="yes"/>
      <point x="266" y="-16"/>
      <point x="49" y="188"/>
      <point x="49" y="342" type="qcurve" smooth="yes"/>
      <point x="49" y="423"/>
      <point x="115" y="571"/>
      <point x="224" y="678"/>
      <point x="346" y="755"/>
      <point x="410" y="778" type="qcurve"/>
      <point x="336" y="813"/>
      <point x="244" y="947"/>
      <point x="244" y="1032" type="qcurve" smooth="yes"/>
      <point x="244" y="1127"/>
      <point x="341" y="1291"/>
      <point x="494" y="1396"/>
      <point x="675" y="1454"/>
      <point x="762" y="1454" type="qcurve" smooth="yes"/>
      <point x="832" y="1454"/>
      <point x="961" y="1413"/>
      <point x="1064" y="1337"/>
      <point x="1126" y="1217"/>
      <point x="1126" y="1145" type="qcurve" smooth="yes"/>
      <point x="1126" y="1021"/>
      <point x="950" y="829"/>
      <point x="823" y="778" type="qcurve"/>
      <point x="914" y="742"/>
      <point x="1028" y="576"/>
      <point x="1028" y="469" type="qcurve" smooth="yes"/>
      <point x="1028" y="365"/>
      <point x="928" y="181"/>
      <point x="764" y="56"/>
      <point x="554" y="-16"/>
    </contour>
    <contour>
      <point x="629" y="829" type="qcurve" smooth="yes"/>
      <point x="687" y="829"/>
      <point x="808" y="869"/>
      <point x="914" y="941"/>
      <point x="981" y="1055"/>
      <point x="981" y="1122" type="qcurve" smooth="yes"/>
      <point x="981" y="1216"/>
      <point x="838" y="1327"/>
      <point x="733" y="1327" type="qcurve" smooth="yes"/>
      <point x="647" y="1327"/>
      <point x="488" y="1258"/>
      <point x="383" y="1122"/>
      <point x="383" y="1038" type="qcurve" smooth="yes"/>
      <point x="383" y="943"/>
      <point x="532" y="829"/>
    </contour>
    <contour>
      <point x="602" y="719" type="qcurve" smooth="yes"/>
      <point x="532" y="719"/>
      <point x="388" y="666"/>
      <point x="270" y="574"/>
      <point x="195" y="438"/>
      <point x="195" y="362" type="qcurve" smooth="yes"/>
      <point x="195" y="248"/>
      <point x="364" y="109"/>
      <point x="477" y="109" type="qcurve" smooth="yes"/>
      <point x="571" y="109"/>
      <point x="758" y="196"/>
      <point x="887" y="364"/>
      <point x="887" y="465" type="qcurve" smooth="yes"/>
      <point x="887" y="580"/>
      <point x="716" y="719"/>
    </contour>
  </outline>
</glyph>
<glyph name="nine" format="2">
  <advance width="1204"/>
  <unicode hex="0039"/>
  <outline>
    <contour>
      <point x="539" y="473" type="qcurve" smooth="yes"/>
      <point x="667" y="473"/>
      <point x="906" y="617"/>
      <point x="973" y="737" type="qcurve"/>
      <point x="908" y="439"/>
      <point x="633" y="104"/>
      <point x="461" y="104" type="qcurve" smooth="yes"/>
      <point x="354" y="104"/>
      <point x="203" y="229"/>
      <point x="184" y="332" type="qcurve"/>
      <point x="80" y="252" type="line"/>
      <point x="111" y="125"/>
      <point x="299" y="-20"/>
      <point x="434" y="-20" type="qcurve" smooth="yes"/>
      <point x="559" y="-20"/>
      <point x="785" y="90"/>
      <point x="958" y="285"/>
      <point x="1086" y="543"/>
      <point x="1153" y="849"/>
      <point x="1153" y="1010" type="qcurve" smooth="yes"/>
      <point x="1153" y="1222"/>
      <point x="944" y="1464"/>
      <point x="764" y="1464" type="qcurve" smooth="yes"/>
      <point x="649" y="1464"/>
      <point x="426" y="1369"/>
      <point x="259" y="1211"/>
      <point x="156" y="993"/>
      <point x="156" y="877" type="qcurve" smooth="yes"/>
      <point x="156" y="704"/>
      <point x="368" y="473"/>
    </contour>
    <contour>
      <point x="1022" y="1030" type="qcurve" smooth="yes"/>
      <point x="1022" y="917"/>
      <point x="892" y="710"/>
      <point x="686" y="588"/>
      <point x="578" y="588" type="qcurve" smooth="yes"/>
      <point x="454" y="588"/>
      <point x="293" y="768"/>
      <point x="293" y="899" type="qcurve" smooth="yes"/>
      <point x="293" y="1014"/>
      <point x="422" y="1221"/>
      <point x="627" y="1343"/>
      <point x="735" y="1343" type="qcurve" smooth="yes"/>
      <point x="860" y="1343"/>
      <point x="1022" y="1162"/>
    </contour>
  </outline>
</glyph>
<glyph name="colon" format="2">
  <advance width="378"/>
  <unicode hex="003A"/>
  <outline>
    <contour>
      <point x="180" y="860" type="line"/>
      <point x="223" y="1061" type="line"/>
      <point x="342" y="1061" type="line"/>
      <point x="299" y="860" type="line"/>
    </contour>
    <contour>
      <point x="-2" y="0" type="line"/>
      <point x="43" y="201" type="line"/>
      <point x="160" y="201" type="line"/>
      <point x="117" y="0" type="line"/>
    </contour>
  </outline>
</glyph>
<glyph name="semicolon" format="2">
  <advance width="389"/>
  <unicode hex="003B"/>
  <outline>
    <contour>
      <point x="184" y="860" type="line"/>
      <point x="225" y="1061" type="line"/>
      <point x="344" y="1061" type="line"/>
      <point x="301" y="860" type="line"/>
    </contour>
    <contour>
      <point x="-20" y="-166" type="line"/>
      <point x="49" y="6" type="line"/>
      <point x="2" y="6" type="line"/>
      <point x="43" y="201" type="line"/>
      <point x="176" y="201" type="line"/>
      <point x="135" y="6" type="line"/>
      <point x="49" y="-166" type="line"/>
    </contour>
  </outline>
</glyph>
<glyph name="less" format="2">
  <advance width="1116"/>
  <unicode hex="003C"/>
  <outline>
    <contour>
      <point x="61" y="565" type="line"/>
      <point x="920" y="1081" type="line"/>
      <point x="920" y="932" type="line"/>
      <point x="264" y="530" type="line"/>
      <point x="920" y="131" type="line"/>
      <point x="920" y="-23" type="line"/>
      <point x="61" y="489" type="line"/>
    </contour>
  </outline>
</glyph>
<glyph name="equal" format="2">
  <advance width="964"/>
  <unicode hex="003D"/>
  <outline>
    <contour>
      <point x="162" y="633" type="line"/>
      <point x="162" y="733" type="line"/>
      <point x="778" y="733" type="line"/>
      <point x="778" y="633" type="line"/>
    </contour>
    <contour>
      <point x="162" y="397" type="line"/>
      <point x="162" y="498" type="line"/>
      <point x="778" y="498" type="line"/>
      <point x="778" y="397" type="line"/>
    </contour>
  </outline>
</glyph>
<glyph name="greater" format="2">
  <advance width="1116"/>
  <unicode hex="003E"/>
  <outline>
    <contour>
      <point x="1016" y="489" type="line"/>
      <point x="158" y="-23" type="line"/>
      <point x="158" y="131" type="line"/>
      <point x="813" y="530" type="line"/>
      <point x="158" y="932" type="line"/>
      <point x="158" y="1081" type="line"/>
      <point x="1016" y="565" type="line"/>
    </contour>
  </outline>
</glyph>
<glyph name="question" format="2">
  <advance width="937"/>
  <unicode hex="003F"/>
  <outline>
    <contour>
      <point x="254" y="414" type="line"/>
      <point x="283" y="546"/>
      <point x="395" y="707"/>
      <point x="492" y="762" type="qcurve" smooth="yes"/>
      <point x="513" y="774"/>
      <point x="613" y="825"/>
      <point x="673" y="858"/>
      <point x="757" y="922"/>
      <point x="804" y="987"/>
      <point x="840" y="1086"/>
      <point x="840" y="1145" type="qcurve" smooth="yes"/>
      <point x="840" y="1245"/>
      <point x="720" y="1356"/>
      <point x="629" y="1356" type="qcurve" smooth="yes"/>
      <point x="531" y="1356"/>
      <point x="338" y="1238"/>
      <point x="276" y="1147" type="qcurve"/>
      <point x="195" y="1208" type="line"/>
      <point x="273" y="1331"/>
      <point x="526" y="1473"/>
      <point x="655" y="1473" type="qcurve" smooth="yes"/>
      <point x="789" y="1473"/>
      <point x="967" y="1311"/>
      <point x="967" y="1163" type="qcurve" smooth="yes"/>
      <point x="967" y="1086"/>
      <point x="926" y="960"/>
      <point x="879" y="883"/>
      <point x="769" y="800"/>
      <point x="706" y="764"/>
      <point x="633" y="726" type="qcurve" smooth="yes"/>
      <point x="622" y="720"/>
      <point x="616" y="717" type="qcurve" smooth="yes"/>
      <point x="583" y="700"/>
      <point x="545" y="678"/>
      <point x="489" y="640"/>
      <point x="453" y="598"/>
      <point x="413" y="540"/>
      <point x="383" y="462"/>
      <point x="373" y="414" type="qcurve"/>
    </contour>
    <contour>
      <point x="170" y="0" type="line"/>
      <point x="217" y="219" type="line"/>
      <point x="334" y="219" type="line"/>
      <point x="289" y="0" type="line"/>
    </contour>
  </outline>
</glyph>
<glyph name="at" format="2">
  <advance width="1644"/>
  <unicode hex="0040"/>
  <outline>
    <contour>
      <point x="1446" y="616" type="qcurve" smooth="yes"/>
      <point x="1446" y="726"/>
      <point x="1375" y="924"/>
      <point x="1245" y="1076"/>
      <point x="1045" y="1165"/>
      <point x="924" y="1165" type="qcurve" smooth="yes"/>
      <point x="805" y="1165"/>
      <point x="569" y="1081"/>
      <point x="368" y="925"/>
      <point x="212" y="721"/>
      <point x="123" y="466"/>
      <point x="123" y="332" type="qcurve" smooth="yes"/>
      <point x="123" y="173"/>
      <point x="246" y="-81"/>
      <point x="480" y="-229"/>
      <point x="633" y="-229" type="qcurve" smooth="yes"/>
      <point x="777" y="-229"/>
      <point x="944" y="-152" type="qcurve"/>
      <point x="954" y="-217" type="line"/>
      <point x="783" y="-299"/>
      <point x="612" y="-299" type="qcurve" smooth="yes"/>
      <point x="365" y="-299"/>
      <point x="51" y="51"/>
      <point x="51" y="326" type="qcurve" smooth="yes"/>
      <point x="51" y="452"/>
      <point x="124" y="694"/>
      <point x="250" y="891"/>
      <point x="423" y="1058"/>
      <point x="619" y="1172"/>
      <point x="835" y="1235"/>
      <point x="940" y="1235" type="qcurve" smooth="yes"/>
      <point x="1071" y="1235"/>
      <point x="1291" y="1138"/>
      <point x="1437" y="973"/>
      <point x="1518" y="757"/>
      <point x="1518" y="637" type="qcurve" smooth="yes"/>
      <point x="1518" y="563"/>
      <point x="1490" y="390"/>
      <point x="1426" y="208"/>
      <point x="1336" y="61"/>
      <point x="1201" y="-33"/>
      <point x="1122" y="-33" type="qcurve" smooth="yes"/>
      <point x="993" y="-33"/>
      <point x="993" y="98" type="qcurve" smooth="yes"/>
      <point x="993" y="136"/>
      <point x="997" y="156" type="qcurve"/>
      <point x="928" y="88"/>
      <point x="746" y="6"/>
      <point x="657" y="6" type="qcurve" smooth="yes"/>
      <point x="516" y="6"/>
      <point x="344" y="217"/>
      <point x="344" y="375" type="qcurve" smooth="yes"/>
      <point x="344" y="517"/>
      <point x="483" y="776"/>
      <point x="712" y="932"/>
      <point x="838" y="932" type="qcurve" smooth="yes"/>
      <point x="939" y="932"/>
      <point x="1080" y="829"/>
      <point x="1112" y="741" type="qcurve"/>
      <point x="1149" y="922" type="line"/>
      <point x="1241" y="922" type="line"/>
      <point x="1087" y="203" type="line" smooth="yes"/>
      <point x="1077" y="157"/>
      <point x="1077" y="123" type="qcurve" smooth="yes"/>
      <point x="1077" y="43"/>
      <point x="1147" y="43" type="qcurve" smooth="yes"/>
      <point x="1230" y="43"/>
      <point x="1372" y="236"/>
      <point x="1446" y="497"/>
    </contour>
    <contour>
      <point x="1024" y="319" type="qcurve"/>
      <point x="1083" y="635" type="line"/>
      <point x="1053" y="739"/>
      <point x="922" y="846"/>
      <point x="834" y="846" type="qcurve" smooth="yes"/>
      <point x="739" y="846"/>
      <point x="559" y="726"/>
      <point x="442" y="517"/>
      <point x="442" y="399" type="qcurve" smooth="yes"/>
      <point x="442" y="265"/>
      <point x="589" y="90"/>
      <point x="698" y="90" type="qcurve" smooth="yes"/>
      <point x="796" y="90"/>
      <point x="989" y="226"/>
    </contour>
  </outline>
</glyph>
<glyph name="B" format="2">
  <advance width="1312"/>
  <unicode hex="0042"/>
  <outline>
    <contour>
      <point x="358" y="1454" type="line"/>
      <point x="1026" y="1454" type="line" smooth="yes"/>
      <point x="1141" y="1454"/>
      <point x="1272" y="1279"/>
      <point x="1272" y="1157" type="qcurve" smooth="yes"/>
      <point x="1272" y="1027"/>
      <point x="1116" y="799"/>
      <point x="991" y="745" type="qcurve"/>
      <point x="1081" y="715"/>
      <point x="1180" y="557"/>
      <point x="1180" y="451" type="qcurve" smooth="yes"/>
      <point x="1180" y="356"/>
      <point x="1098" y="186"/>
      <point x="965" y="69"/>
      <point x="791" y="0"/>
      <point x="700" y="0" type="qcurve" smooth="yes"/>
      <point x="49" y="0" type="line"/>
    </contour>
    <contour>
      <point x="829" y="793" type="line" smooth="yes"/>
      <point x="943" y="793"/>
      <point x="1124" y="992"/>
      <point x="1124" y="1118" type="qcurve" smooth="yes"/>
      <point x="1124" y="1208"/>
      <point x="1031" y="1329"/>
      <point x="954" y="1329" type="qcurve" smooth="yes"/>
      <point x="473" y="1329" type="line"/>
      <point x="358" y="793" type="line"/>
    </contour>
    <contour>
      <point x="727" y="125" type="line" smooth="yes"/>
      <point x="846" y="125"/>
      <point x="1038" y="327"/>
      <point x="1038" y="453" type="qcurve" smooth="yes"/>
      <point x="1038" y="547"/>
      <point x="940" y="676"/>
      <point x="858" y="676" type="qcurve" smooth="yes"/>
      <point x="334" y="676" type="line"/>
      <point x="217" y="125" type="line"/>
    </contour>
  </outline>
</glyph>
<glyph name="F" format="2">
  <advance width="1171"/>
  <unicode hex="0046"/>
  <outline>
    <contour>
      <point x="358" y="1454" type="line"/>
      <point x="1264" y="1454" type="line"/>
      <point x="1237" y="1327" type="line"/>
      <point x="473" y="1327" type="line"/>
      <point x="360" y="793" type="line"/>
      <point x="1006" y="793" type="line"/>
      <point x="979" y="674" type="line"/>
      <point x="334" y="674" type="line"/>
      <point x="190" y="0" type="line"/>
      <point x="49" y="0" type="line"/>
    </contour>
  </outline>
</glyph>
<glyph name="G" format="2">
  <advance width="1406"/>
  <unicode hex="0047"/>
  <anchor x="0" y="0" name="Anchor-11"/>
  <anchor x="0" y="0" name="Anchor-10"/>
  <anchor x="911" y="1450" name="Anchor-9"/>
  <anchor x="0" y="0" name="Anchor-8"/>
  <anchor x="639" y="0" name="Anchor-7"/>
  <outline>
    <contour>
      <point x="870" y="604" type="line"/>
      <point x="893" y="715" type="line"/>
      <point x="1319" y="715" type="line"/>
      <point x="1167" y="0" type="line"/>
      <point x="1044" y="0" type="line"/>
      <point x="1090" y="213" type="line"/>
      <point x="855" y="-10"/>
      <point x="604" y="-10" type="qcurve" smooth="yes"/>
      <point x="487" y="-10"/>
      <point x="292" y="92"/>
      <point x="165" y="262"/>
      <point x="96" y="480"/>
      <point x="96" y="598" type="qcurve" smooth="yes"/>
      <point x="96" y="761"/>
      <point x="231" y="1078"/>
      <point x="452" y="1317"/>
      <point x="756" y="1464"/>
      <point x="915" y="1464" type="qcurve" smooth="yes"/>
      <point x="1105" y="1464"/>
      <point x="1333" y="1294"/>
      <point x="1372" y="1147" type="qcurve"/>
      <point x="1245" y="1073" type="line"/>
      <point x="1210" y="1203"/>
      <point x="1026" y="1335"/>
      <point x="887" y="1335" type="qcurve" smooth="yes"/>
      <point x="782" y="1335"/>
      <point x="582" y="1252"/>
      <point x="425" y="1109"/>
      <point x="305" y="925"/>
      <point x="240" y="712"/>
      <point x="240" y="606" type="qcurve" smooth="yes"/>
      <point x="240" y="472"/>
      <point x="336" y="252"/>
      <point x="522" y="119"/>
      <point x="643" y="119" type="qcurve" smooth="yes"/>
      <point x="878" y="119"/>
      <point x="1122" y="360" type="qcurve"/>
      <point x="1174" y="604" type="line"/>
    </contour>
  </outline>
</glyph>
<glyph name="H" format="2">
  <advance width="1452"/>
  <unicode hex="0048"/>
  <anchor x="0" y="0" name="Anchor-11"/>
  <anchor x="768" y="727" name="Anchor-10"/>
  <anchor x="924" y="1454" name="Anchor-9"/>
  <anchor x="0" y="0" name="Anchor-8"/>
  <anchor x="614" y="0" name="Anchor-7"/>
  <outline>
    <contour>
      <point x="358" y="1454" type="line"/>
      <point x="500" y="1454" type="line"/>
      <point x="362" y="807" type="line"/>
      <point x="1171" y="807" type="line"/>
      <point x="1309" y="1454" type="line"/>
      <point x="1452" y="1454" type="line"/>
      <point x="1143" y="0" type="line"/>
      <point x="999" y="0" type="line"/>
      <point x="1145" y="680" type="line"/>
      <point x="336" y="680" type="line"/>
      <point x="190" y="0" type="line"/>
      <point x="49" y="0" type="line"/>
    </contour>
  </outline>
</glyph>
<glyph name="I" format="2">
  <advance width="501"/>
  <unicode hex="0049"/>
  <anchor x="0" y="0" name="Anchor-11"/>
  <anchor x="0" y="0" name="Anchor-10"/>
  <anchor x="428" y="1452" name="Anchor-9"/>
  <anchor x="190" y="0" name="Anchor-8"/>
  <anchor x="121" y="0" name="Anchor-7"/>
  <outline>
    <contour>
      <point x="358" y="1452" type="line"/>
      <point x="500" y="1452" type="line"/>
      <point x="190" y="0" type="line"/>
      <point x="49" y="0" type="line"/>
    </contour>
  </outline>
</glyph>
<glyph name="K" format="2">
  <advance width="1259"/>
  <unicode hex="004B"/>
  <anchor x="0" y="0" name="Anchor-11"/>
  <anchor x="0" y="0" name="Anchor-10"/>
  <anchor x="0" y="0" name="Anchor-9"/>
  <anchor x="0" y="0" name="Anchor-8"/>
  <anchor x="555" y="0" name="Anchor-7"/>
  <outline>
    <contour>
      <point x="358" y="1452" type="line"/>
      <point x="500" y="1452" type="line"/>
      <point x="319" y="608" type="line"/>
      <point x="1251" y="1454" type="line"/>
      <point x="1411" y="1454" type="line"/>
      <point x="711" y="815" type="line"/>
      <point x="1130" y="0" type="line"/>
      <point x="973" y="0" type="line"/>
      <point x="604" y="731" type="line"/>
      <point x="287" y="446" type="line"/>
      <point x="190" y="0" type="line"/>
      <point x="49" y="0" type="line"/>
    </contour>
  </outline>
</glyph>
<glyph name="P" format="2">
  <advance width="1226"/>
  <unicode hex="0050"/>
  <outline>
    <contour>
      <point x="358" y="1454" type="line"/>
      <point x="928" y="1454" type="line" smooth="yes"/>
      <point x="1027" y="1454"/>
      <point x="1180" y="1344"/>
      <point x="1255" y="1174"/>
      <point x="1255" y="980"/>
      <point x="1173" y="785"/>
      <point x="1037" y="633"/>
      <point x="848" y="537"/>
      <point x="748" y="537" type="qcurve" smooth="yes"/>
      <point x="305" y="537" type="line"/>
      <point x="190" y="0" type="line"/>
      <point x="49" y="0" type="line"/>
    </contour>
    <contour>
      <point x="766" y="664" type="line" smooth="yes"/>
      <point x="857" y="664"/>
      <point x="1018" y="782"/>
      <point x="1110" y="967"/>
      <point x="1110" y="1065" type="qcurve" smooth="yes"/>
      <point x="1110" y="1177"/>
      <point x="989" y="1327"/>
      <point x="895" y="1327" type="qcurve" smooth="yes"/>
      <point x="473" y="1327" type="line"/>
      <point x="332" y="664" type="line"/>
    </contour>
  </outline>
</glyph>
<glyph name="Q" format="2">
  <advance width="1476"/>
  <unicode hex="0051"/>
  <outline>
    <contour>
      <point x="1430" y="862" type="qcurve" smooth="yes"/>
      <point x="1430" y="674"/>
      <point x="1259" y="321"/>
      <point x="1114" y="193" type="qcurve"/>
      <point x="1231" y="0" type="line"/>
      <point x="1087" y="0" type="line"/>
      <point x="1016" y="119" type="line"/>
      <point x="826" y="-10"/>
      <point x="610" y="-10" type="qcurve" smooth="yes"/>
      <point x="487" y="-10"/>
      <point x="287" y="89"/>
      <point x="161" y="257"/>
      <point x="94" y="470"/>
      <point x="94" y="588" type="qcurve" smooth="yes"/>
      <point x="94" y="754"/>
      <point x="232" y="1076"/>
      <point x="457" y="1316"/>
      <point x="760" y="1464"/>
      <point x="918" y="1464" type="qcurve" smooth="yes"/>
      <point x="1041" y="1464"/>
      <point x="1240" y="1363"/>
      <point x="1364" y="1193"/>
      <point x="1430" y="979"/>
    </contour>
    <contour>
      <point x="639" y="119" type="qcurve" smooth="yes"/>
      <point x="805" y="119"/>
      <point x="954" y="221" type="qcurve"/>
      <point x="819" y="446" type="line"/>
      <point x="961" y="446" type="line"/>
      <point x="1049" y="299" type="line"/>
      <point x="1159" y="407"/>
      <point x="1286" y="702"/>
      <point x="1286" y="852" type="qcurve" smooth="yes"/>
      <point x="1286" y="949"/>
      <point x="1235" y="1122"/>
      <point x="1139" y="1257"/>
      <point x="985" y="1335"/>
      <point x="889" y="1335" type="qcurve" smooth="yes"/>
      <point x="758" y="1335"/>
      <point x="514" y="1205"/>
      <point x="342" y="997"/>
      <point x="240" y="732"/>
      <point x="240" y="600" type="qcurve" smooth="yes"/>
      <point x="240" y="502"/>
      <point x="291" y="331"/>
      <point x="388" y="197"/>
      <point x="542" y="119"/>
    </contour>
  </outline>
</glyph>
<glyph name="V" format="2">
  <advance width="1327"/>
  <unicode hex="0056"/>
  <outline>
    <contour>
      <point x="199" y="1454" type="line"/>
      <point x="348" y="1454" type="line"/>
      <point x="565" y="178" type="line"/>
      <point x="1321" y="1454" type="line"/>
      <point x="1470" y="1454" type="line"/>
      <point x="590" y="0" type="line"/>
      <point x="463" y="0" type="line"/>
    </contour>
  </outline>
</glyph>
<glyph name="W" format="2">
  <advance width="2041"/>
  <unicode hex="0057"/>
  <anchor x="0" y="0" name="Anchor-11"/>
  <anchor x="0" y="0" name="Anchor-10"/>
  <anchor x="1188" y="1450" name="Anchor-9"/>
  <anchor x="0" y="0" name="Anchor-8"/>
  <anchor x="0" y="0" name="Anchor-7"/>
  <outline>
    <contour>
      <point x="195" y="1454" type="line"/>
      <point x="348" y="1454" type="line"/>
      <point x="569" y="166" type="line"/>
      <point x="969" y="823" type="line"/>
      <point x="860" y="1444" type="line"/>
      <point x="995" y="1444" type="line"/>
      <point x="1077" y="928" type="line"/>
      <point x="1382" y="1444" type="line"/>
      <point x="1518" y="1444" type="line"/>
      <point x="1145" y="823" type="line"/>
      <point x="1266" y="166" type="line"/>
      <point x="2032" y="1454" type="line"/>
      <point x="2189" y="1454" type="line"/>
      <point x="1294" y="0" type="line"/>
      <point x="1171" y="0" type="line"/>
      <point x="1036" y="719" type="line"/>
      <point x="594" y="0" type="line"/>
      <point x="469" y="0" type="line"/>
    </contour>
  </outline>
</glyph>
<glyph name="Y" format="2">
  <advance width="1243"/>
  <unicode hex="0059"/>
  <anchor x="0" y="0" name="Anchor-11"/>
  <anchor x="0" y="0" name="Anchor-10"/>
  <anchor x="766" y="1450" name="Anchor-9"/>
  <anchor x="0" y="0" name="Anchor-8"/>
  <anchor x="0" y="0" name="Anchor-7"/>
  <outline>
    <contour>
      <point x="526" y="545" type="line"/>
      <point x="186" y="1454" type="line"/>
      <point x="344" y="1454" type="line"/>
      <point x="625" y="672" type="line"/>
      <point x="1239" y="1454" type="line"/>
      <point x="1395" y="1454" type="line"/>
      <point x="666" y="541" type="line"/>
      <point x="551" y="0" type="line"/>
      <point x="410" y="0" type="line"/>
    </contour>
  </outline>
</glyph>
<glyph name="bracketleft" format="2">
  <advance width="514"/>
  <unicode hex="005B"/>
  <outline>
    <contour>
      <point x="29" y="-82" type="line"/>
      <point x="369" y="1516" type="line"/>
      <point x="606" y="1516" type="line"/>
      <point x="582" y="1399" type="line"/>
      <point x="473" y="1399" type="line"/>
      <point x="182" y="35" type="line"/>
      <point x="293" y="35" type="line"/>
      <point x="268" y="-82" type="line"/>
    </contour>
  </outline>
</glyph>
<glyph name="backslash" format="2">
  <advance width="1093"/>
  <unicode hex="005C"/>
  <outline>
    <contour>
      <point x="377" y="1454" type="line"/>
      <point x="913" y="0" type="line"/>
      <point x="758" y="0" type="line"/>
      <point x="219" y="1454" type="line"/>
    </contour>
  </outline>
</glyph>
<glyph name="bracketright" format="2">
  <advance width="512"/>
  <unicode hex="005D"/>
  <outline>
    <contour>
      <point x="-51" y="-82" type="line"/>
      <point x="-27" y="35" type="line"/>
      <point x="82" y="35" type="line"/>
      <point x="373" y="1399" type="line"/>
      <point x="264" y="1399" type="line"/>
      <point x="289" y="1516" type="line"/>
      <point x="526" y="1516" type="line"/>
      <point x="188" y="-82" type="line"/>
    </contour>
  </outline>
</glyph>
<glyph name="asciicircum" format="2">
  <advance width="1107"/>
  <unicode hex="005E"/>
  <outline>
    <contour>
      <point x="106" y="621" type="line"/>
      <point x="512" y="1454" type="line"/>
      <point x="631" y="1454" type="line"/>
      <point x="1034" y="621" type="line"/>
      <point x="911" y="621" type="line"/>
      <point x="571" y="1323" type="line"/>
      <point x="225" y="621" type="line"/>
    </contour>
  </outline>
</glyph>
<glyph name="underscore" format="2">
  <advance width="1007"/>
  <unicode hex="005F"/>
  <outline>
    <contour>
      <point x="-29" y="-127" type="line"/>
      <point x="-2" y="0" type="line"/>
      <point x="739" y="0" type="line"/>
      <point x="713" y="-127" type="line"/>
    </contour>
  </outline>
</glyph>
<glyph name="grave" format="2">
  <advance width="466"/>
  <unicode hex="0060"/>
  <anchor x="442" y="1495" name="Anchor-13"/>
  <outline>
    <contour>
      <point x="307" y="1495" type="line"/>
      <point x="451" y="1495" type="line"/>
      <point x="528" y="1305" type="line"/>
      <point x="428" y="1270" type="line"/>
    </contour>
  </outline>
</glyph>
<glyph name="b" format="2">
  <advance width="1212"/>
  <unicode hex="0062"/>
  <outline>
    <contour>
      <point x="186" y="207" type="qcurve"/>
      <point x="141" y="0" type="line"/>
      <point x="18" y="0" type="line"/>
      <point x="336" y="1495" type="line"/>
      <point x="475" y="1495" type="line"/>
      <point x="336" y="844" type="line"/>
      <point x="540" y="1085"/>
      <point x="768" y="1085" type="qcurve" smooth="yes"/>
      <point x="855" y="1085"/>
      <point x="995" y="1012"/>
      <point x="1082" y="889"/>
      <point x="1128" y="734"/>
      <point x="1128" y="649" type="qcurve" smooth="yes"/>
      <point x="1128" y="519"/>
      <point x="1023" y="271"/>
      <point x="854" y="90"/>
      <point x="632" y="-20"/>
      <point x="520" y="-20" type="qcurve" smooth="yes"/>
      <point x="396" y="-20"/>
      <point x="223" y="105"/>
    </contour>
    <contour>
      <point x="981" y="625" type="qcurve" smooth="yes"/>
      <point x="981" y="765"/>
      <point x="831" y="963"/>
      <point x="702" y="963" type="qcurve" smooth="yes"/>
      <point x="594" y="963"/>
      <point x="390" y="818"/>
      <point x="305" y="702" type="qcurve"/>
      <point x="231" y="348" type="line"/>
      <point x="237" y="243"/>
      <point x="403" y="102"/>
      <point x="516" y="102" type="qcurve" smooth="yes"/>
      <point x="632" y="102"/>
      <point x="849" y="251"/>
      <point x="981" y="495"/>
    </contour>
  </outline>
</glyph>
<glyph name="d" format="2">
  <advance width="1224"/>
  <unicode hex="0064"/>
  <anchor x="1290" y="1067" name="Anchor-11"/>
  <anchor x="612" y="535" name="Anchor-10"/>
  <anchor x="725" y="1067" name="Anchor-9"/>
  <anchor x="0" y="0" name="Anchor-8"/>
  <anchor x="500" y="0" name="Anchor-7"/>
  <outline>
    <contour>
      <point x="51" y="426" type="qcurve" smooth="yes"/>
      <point x="51" y="592"/>
      <point x="217" y="898"/>
      <point x="493" y="1085"/>
      <point x="645" y="1085" type="qcurve" smooth="yes"/>
      <point x="765" y="1085"/>
      <point x="938" y="950"/>
      <point x="975" y="844" type="qcurve"/>
      <point x="1114" y="1495" type="line"/>
      <point x="1253" y="1495" type="line"/>
      <point x="975" y="182" type="line" smooth="yes"/>
      <point x="971" y="162"/>
      <point x="971" y="158" type="qcurve" smooth="yes"/>
      <point x="971" y="123"/>
      <point x="1010" y="123" type="qcurve"/>
      <point x="983" y="0" type="line"/>
      <point x="929" y="-4"/>
      <point x="926" y="-4" type="qcurve" smooth="yes"/>
      <point x="883" y="-3"/>
      <point x="834" y="43"/>
      <point x="834" y="78" type="qcurve" smooth="yes"/>
      <point x="834" y="104"/>
      <point x="856" y="207" type="qcurve"/>
      <point x="775" y="103"/>
      <point x="543" y="-20"/>
      <point x="432" y="-20" type="qcurve" smooth="yes"/>
      <point x="316" y="-20"/>
      <point x="140" y="104"/>
      <point x="51" y="305"/>
    </contour>
    <contour>
      <point x="874" y="367" type="qcurve"/>
      <point x="942" y="696" type="line"/>
      <point x="929" y="806"/>
      <point x="758" y="963"/>
      <point x="655" y="963" type="qcurve" smooth="yes"/>
      <point x="535" y="963"/>
      <point x="321" y="809"/>
      <point x="197" y="571"/>
      <point x="197" y="449" type="qcurve" smooth="yes"/>
      <point x="197" y="303"/>
      <point x="359" y="102"/>
      <point x="489" y="102" type="qcurve" smooth="yes"/>
      <point x="555" y="102"/>
      <point x="713" y="173"/>
      <point x="849" y="297"/>
    </contour>
  </outline>
</glyph>
<glyph name="f" format="2">
  <advance width="659"/>
  <unicode hex="0066"/>
  <outline>
    <contour>
      <point x="266" y="956" type="line"/>
      <point x="127" y="956" type="line"/>
      <point x="150" y="1067" type="line"/>
      <point x="291" y="1067" type="line"/>
      <point x="295" y="1096" type="line"/>
      <point x="333" y="1290"/>
      <point x="546" y="1516"/>
      <point x="686" y="1516" type="qcurve" smooth="yes"/>
      <point x="806" y="1516"/>
      <point x="887" y="1448" type="qcurve"/>
      <point x="823" y="1348" type="line"/>
      <point x="802" y="1369"/>
      <point x="727" y="1395"/>
      <point x="688" y="1395" type="qcurve" smooth="yes"/>
      <point x="596" y="1395"/>
      <point x="467" y="1243"/>
      <point x="436" y="1100" type="qcurve"/>
      <point x="430" y="1067" type="line"/>
      <point x="707" y="1067" type="line"/>
      <point x="684" y="956" type="line"/>
      <point x="406" y="956" type="line"/>
      <point x="111" y="-434" type="line"/>
      <point x="-29" y="-434" type="line"/>
    </contour>
  </outline>
</glyph>
<glyph name="i" format="2">
  <advance width="436"/>
  <unicode hex="0069"/>
  <anchor x="0" y="0" name="Anchor-11"/>
  <anchor x="0" y="0" name="Anchor-10"/>
  <anchor x="0" y="0" name="Anchor-9"/>
  <anchor x="158" y="0" name="Anchor-8"/>
  <anchor x="86" y="0" name="Anchor-7"/>
  <outline>
    <contour>
      <point x="336" y="1495" type="line"/>
      <point x="475" y="1495" type="line"/>
      <point x="432" y="1290" type="line"/>
      <point x="293" y="1290" type="line"/>
    </contour>
    <contour>
      <point x="244" y="1067" type="line"/>
      <point x="383" y="1067" type="line"/>
      <point x="158" y="0" type="line"/>
      <point x="18" y="0" type="line"/>
    </contour>
  </outline>
</glyph>
<glyph name="k" format="2">
  <advance width="1097"/>
  <unicode hex="006B"/>
  <anchor x="0" y="0" name="Anchor-11"/>
  <anchor x="0" y="0" name="Anchor-10"/>
  <anchor x="0" y="0" name="Anchor-9"/>
  <anchor x="0" y="0" name="Anchor-8"/>
  <anchor x="436" y="0" name="Anchor-7"/>
  <outline>
    <contour>
      <point x="1049" y="872" type="qcurve" smooth="yes"/>
      <point x="1049" y="739"/>
      <point x="852" y="524"/>
      <point x="670" y="463" type="qcurve"/>
      <point x="909" y="0" type="line"/>
      <point x="758" y="0" type="line"/>
      <point x="504" y="522" type="line"/>
      <point x="702" y="563"/>
      <point x="920" y="746"/>
      <point x="920" y="854" type="qcurve" smooth="yes"/>
      <point x="920" y="914"/>
      <point x="850" y="973"/>
      <point x="788" y="973" type="qcurve" smooth="yes"/>
      <point x="656" y="973"/>
      <point x="372" y="733"/>
      <point x="272" y="539" type="qcurve"/>
      <point x="158" y="0" type="line"/>
      <point x="18" y="0" type="line"/>
      <point x="336" y="1495" type="line"/>
      <point x="475" y="1495" type="line"/>
      <point x="319" y="764" type="line"/>
      <point x="561" y="1087"/>
      <point x="823" y="1087" type="qcurve" smooth="yes"/>
      <point x="934" y="1087"/>
      <point x="1049" y="973"/>
    </contour>
  </outline>
</glyph>
<glyph name="p" format="2">
  <advance width="1214"/>
  <unicode hex="0070"/>
  <outline>
    <contour>
      <point x="246" y="1067" type="line"/>
      <point x="369" y="1067" type="line"/>
      <point x="326" y="860" type="line"/>
      <point x="410" y="962"/>
      <point x="637" y="1085"/>
      <point x="750" y="1085" type="qcurve" smooth="yes"/>
      <point x="865" y="1085"/>
      <point x="1040" y="959"/>
      <point x="1128" y="758"/>
      <point x="1128" y="637" type="qcurve" smooth="yes"/>
      <point x="1128" y="514"/>
      <point x="1032" y="274"/>
      <point x="873" y="92"/>
      <point x="654" y="-20"/>
      <point x="537" y="-20" type="qcurve" smooth="yes"/>
      <point x="415" y="-20"/>
      <point x="244" y="113"/>
      <point x="205" y="221" type="qcurve"/>
      <point x="66" y="-436" type="line"/>
      <point x="-74" y="-436" type="line"/>
    </contour>
    <contour>
      <point x="983" y="614" type="qcurve" smooth="yes"/>
      <point x="983" y="760"/>
      <point x="820" y="963"/>
      <point x="690" y="963" type="qcurve" smooth="yes"/>
      <point x="625" y="963"/>
      <point x="465" y="891"/>
      <point x="330" y="767"/>
      <point x="305" y="698" type="qcurve"/>
      <point x="236" y="371" type="line"/>
      <point x="258" y="254"/>
      <point x="414" y="102"/>
      <point x="524" y="102" type="qcurve" smooth="yes"/>
      <point x="644" y="102"/>
      <point x="859" y="256"/>
      <point x="983" y="493"/>
    </contour>
  </outline>
</glyph>
<glyph name="q" format="2">
  <advance width="1212"/>
  <unicode hex="0071"/>
  <outline>
    <contour>
      <point x="842" y="221" type="line"/>
      <point x="642" y="-20"/>
      <point x="406" y="-20" type="qcurve" smooth="yes"/>
      <point x="241" y="-20"/>
      <point x="49" y="233"/>
      <point x="49" y="418" type="qcurve" smooth="yes"/>
      <point x="49" y="589"/>
      <point x="227" y="900"/>
      <point x="512" y="1085"/>
      <point x="664" y="1085" type="qcurve" smooth="yes"/>
      <point x="779" y="1085"/>
      <point x="953" y="959"/>
      <point x="991" y="858" type="qcurve"/>
      <point x="1034" y="1067" type="line"/>
      <point x="1159" y="1067" type="line"/>
      <point x="842" y="-436" type="line"/>
      <point x="702" y="-436" type="line"/>
    </contour>
    <contour>
      <point x="870" y="354" type="qcurve"/>
      <point x="942" y="694" type="line"/>
      <point x="939" y="802"/>
      <point x="779" y="963"/>
      <point x="668" y="963" type="qcurve" smooth="yes"/>
      <point x="548" y="963"/>
      <point x="326" y="809"/>
      <point x="195" y="566"/>
      <point x="195" y="440" type="qcurve" smooth="yes"/>
      <point x="195" y="296"/>
      <point x="347" y="102"/>
      <point x="475" y="102" type="qcurve" smooth="yes"/>
      <point x="585" y="102"/>
      <point x="790" y="242"/>
    </contour>
  </outline>
</glyph>
<glyph name="v" format="2">
  <advance width="1005"/>
  <unicode hex="0076"/>
  <outline>
    <contour>
      <point x="119" y="1067" type="line"/>
      <point x="264" y="1067" type="line"/>
      <point x="395" y="129" type="line"/>
      <point x="571" y="355"/>
      <point x="823" y="839"/>
      <point x="885" y="1067" type="qcurve"/>
      <point x="1020" y="1067" type="line"/>
      <point x="866" y="529"/>
      <point x="438" y="0" type="qcurve"/>
      <point x="289" y="0" type="line"/>
    </contour>
  </outline>
</glyph>
<glyph name="z" format="2">
  <advance width="954"/>
  <unicode hex="007A"/>
  <anchor x="0" y="0" name="Anchor-11"/>
  <anchor x="0" y="0" name="Anchor-10"/>
  <anchor x="590" y="1067" name="Anchor-9"/>
  <anchor x="0" y="0" name="Anchor-8"/>
  <anchor x="365" y="0" name="Anchor-7"/>
  <outline>
    <contour>
      <point x="-53" y="94" type="line"/>
      <point x="805" y="963" type="line"/>
      <point x="147" y="963" type="line"/>
      <point x="170" y="1067" type="line"/>
      <point x="983" y="1067" type="line"/>
      <point x="965" y="973" type="line"/>
      <point x="111" y="104" type="line"/>
      <point x="780" y="104" type="line"/>
      <point x="756" y="0" type="line"/>
      <point x="-72" y="0" type="line"/>
    </contour>
  </outline>
</glyph>
<glyph name="braceleft" format="2">
  <advance width="514"/>
  <unicode hex="007B"/>
  <outline>
    <contour>
      <point x="477" y="1399" type="line"/>
      <point x="362" y="864" type="line" smooth="yes"/>
      <point x="348" y="789"/>
      <point x="283" y="737" type="qcurve"/>
      <point x="311" y="707"/>
      <point x="311" y="645" type="qcurve" smooth="yes"/>
      <point x="311" y="620"/>
      <point x="309" y="610" type="qcurve" smooth="yes"/>
      <point x="190" y="53" type="line"/>
      <point x="297" y="53" type="line"/>
      <point x="272" y="-63" type="line"/>
      <point x="82" y="-63" type="line" smooth="yes"/>
      <point x="49" y="-63"/>
      <point x="49" y="-25" type="qcurve" smooth="yes"/>
      <point x="49" y="-10"/>
      <point x="51" y="-2" type="qcurve" smooth="yes"/>
      <point x="174" y="573" type="line" smooth="yes"/>
      <point x="176" y="583"/>
      <point x="176" y="606" type="qcurve" smooth="yes"/>
      <point x="176" y="638"/>
      <point x="148" y="683"/>
      <point x="121" y="686" type="qcurve"/>
      <point x="143" y="793" type="line"/>
      <point x="180" y="793"/>
      <point x="238" y="868"/>
      <point x="244" y="901" type="qcurve" smooth="yes"/>
      <point x="360" y="1454" type="line" smooth="yes"/>
      <point x="367" y="1487"/>
      <point x="404" y="1516"/>
      <point x="418" y="1516" type="qcurve" smooth="yes"/>
      <point x="608" y="1516" type="line"/>
      <point x="584" y="1399" type="line"/>
    </contour>
  </outline>
</glyph>
<glyph name="braceright" format="2">
  <advance width="512"/>
  <unicode hex="007D"/>
  <outline>
    <contour>
      <point x="264" y="1399" type="line"/>
      <point x="287" y="1516" type="line"/>
      <point x="477" y="1516" type="line" smooth="yes"/>
      <point x="488" y="1516"/>
      <point x="512" y="1496"/>
      <point x="512" y="1473" type="qcurve" smooth="yes"/>
      <point x="512" y="1460"/>
      <point x="510" y="1454" type="qcurve" smooth="yes"/>
      <point x="391" y="901" type="line" smooth="yes"/>
      <point x="387" y="885"/>
      <point x="387" y="874" type="qcurve" smooth="yes"/>
      <point x="387" y="841"/>
      <point x="414" y="793"/>
      <point x="444" y="793" type="qcurve"/>
      <point x="422" y="686" type="line"/>
      <point x="385" y="682"/>
      <point x="330" y="615"/>
      <point x="322" y="573" type="qcurve" smooth="yes"/>
      <point x="201" y="-2" type="line" smooth="yes"/>
      <point x="194" y="-34"/>
      <point x="158" y="-63"/>
      <point x="141" y="-63" type="qcurve" smooth="yes"/>
      <point x="-49" y="-63" type="line"/>
      <point x="-25" y="53" type="line"/>
      <point x="84" y="53" type="line"/>
      <point x="203" y="610" type="line" smooth="yes"/>
      <point x="209" y="639"/>
      <point x="249" y="712"/>
      <point x="281" y="737" type="qcurve"/>
      <point x="252" y="776"/>
      <point x="252" y="827" type="qcurve" smooth="yes"/>
      <point x="252" y="844"/>
      <point x="256" y="864" type="qcurve" smooth="yes"/>
      <point x="371" y="1399" type="line"/>
    </contour>
  </outline>
</glyph>
<glyph name="asciitilde" format="2">
  <advance width="1007"/>
  <unicode hex="007E"/>
  <outline>
    <contour>
      <point x="352" y="705" type="qcurve" smooth="yes"/>
      <point x="393" y="705"/>
      <point x="478" y="668"/>
      <point x="538" y="623"/>
      <point x="617" y="586"/>
      <point x="653" y="586" type="qcurve" smooth="yes"/>
      <point x="682" y="586"/>
      <point x="734" y="606"/>
      <point x="769" y="635"/>
      <point x="795" y="666"/>
      <point x="807" y="688"/>
      <point x="807" y="692" type="qcurve"/>
      <point x="893" y="692" type="line"/>
      <point x="892" y="686"/>
      <point x="873" y="647"/>
      <point x="828" y="587"/>
      <point x="771" y="533"/>
      <point x="683" y="494"/>
      <point x="635" y="494" type="qcurve" smooth="yes"/>
      <point x="591" y="494"/>
      <point x="502" y="531"/>
      <point x="442" y="575"/>
      <point x="368" y="612"/>
      <point x="336" y="612" type="qcurve" smooth="yes"/>
      <point x="294" y="612"/>
      <point x="223" y="553"/>
      <point x="193" y="500"/>
      <point x="193" y="494" type="qcurve"/>
      <point x="104" y="494" type="line"/>
      <point x="106" y="504"/>
      <point x="127" y="548"/>
      <point x="171" y="611"/>
      <point x="226" y="666"/>
      <point x="308" y="705"/>
    </contour>
  </outline>
</glyph>
<glyph name="exclamdown" format="2">
  <advance width="505"/>
  <unicode hex="00A1"/>
  <outline>
    <contour>
      <point x="502" y="1464" type="line"/>
      <point x="455" y="1235" type="line"/>
      <point x="311" y="1235" type="line"/>
      <point x="362" y="1464" type="line"/>
    </contour>
    <contour>
      <point x="403" y="997" type="line"/>
      <point x="190" y="-4" type="line"/>
      <point x="51" y="-4" type="line"/>
      <point x="264" y="997" type="line"/>
    </contour>
  </outline>
</glyph>
<glyph name="cent" format="2">
  <advance width="1105"/>
  <unicode hex="00A2"/>
  <outline>
    <contour>
      <point x="360" y="-246" type="line"/>
      <point x="410" y="-18" type="line"/>
      <point x="250" y="-5"/>
      <point x="59" y="259"/>
      <point x="59" y="432" type="qcurve" smooth="yes"/>
      <point x="59" y="545"/>
      <point x="149" y="770"/>
      <point x="302" y="949"/>
      <point x="521" y="1071"/>
      <point x="643" y="1083" type="qcurve"/>
      <point x="694" y="1321" type="line"/>
      <point x="768" y="1321" type="line"/>
      <point x="717" y="1083" type="line"/>
      <point x="992" y="1074"/>
      <point x="1061" y="831" type="qcurve"/>
      <point x="918" y="788" type="line"/>
      <point x="867" y="948"/>
      <point x="690" y="958" type="qcurve"/>
      <point x="510" y="104" type="line"/>
      <point x="593" y="109"/>
      <point x="783" y="212"/>
      <point x="817" y="285" type="qcurve"/>
      <point x="946" y="244" type="line"/>
      <point x="899" y="161"/>
      <point x="727" y="36"/>
      <point x="556" y="-20"/>
      <point x="483" y="-20" type="qcurve"/>
      <point x="434" y="-246" type="line"/>
    </contour>
    <contour>
      <point x="436" y="111" type="qcurve"/>
      <point x="614" y="954" type="line"/>
      <point x="501" y="943"/>
      <point x="308" y="782"/>
      <point x="203" y="557"/>
      <point x="203" y="446" type="qcurve" smooth="yes"/>
      <point x="203" y="319"/>
      <point x="330" y="129"/>
    </contour>
  </outline>
</glyph>
<glyph name="sterling" format="2">
  <advance width="978"/>
  <unicode hex="00A3"/>
  <outline>
    <contour>
      <point x="694" y="1464" type="qcurve" smooth="yes"/>
      <point x="799" y="1464"/>
      <point x="964" y="1349"/>
      <point x="1004" y="1249" type="qcurve"/>
      <point x="905" y="1163" type="line"/>
      <point x="876" y="1248"/>
      <point x="746" y="1348"/>
      <point x="666" y="1348" type="qcurve" smooth="yes"/>
      <point x="557" y="1348"/>
      <point x="385" y="1175"/>
      <point x="385" y="1057" type="qcurve" smooth="yes"/>
      <point x="385" y="1015"/>
      <point x="405" y="922"/>
      <point x="443" y="796"/>
      <point x="451" y="762" type="qcurve"/>
      <point x="799" y="762" type="line"/>
      <point x="774" y="651" type="line"/>
      <point x="467" y="651" type="line"/>
      <point x="469" y="639"/>
      <point x="469" y="616" type="qcurve" smooth="yes"/>
      <point x="469" y="529"/>
      <point x="427" y="400"/>
      <point x="296" y="230"/>
      <point x="168" y="111" type="qcurve"/>
      <point x="242" y="129"/>
      <point x="313" y="129" type="qcurve" smooth="yes"/>
      <point x="369" y="129"/>
      <point x="537" y="92"/>
      <point x="582" y="92" type="qcurve" smooth="yes"/>
      <point x="650" y="92"/>
      <point x="762" y="129" type="qcurve"/>
      <point x="774" y="23" type="line"/>
      <point x="660" y="-31"/>
      <point x="549" y="-31" type="qcurve" smooth="yes"/>
      <point x="492" y="-31"/>
      <point x="294" y="18"/>
      <point x="233" y="18" type="qcurve" smooth="yes"/>
      <point x="133" y="18"/>
      <point x="14" y="-16" type="qcurve"/>
      <point x="0" y="86" type="line"/>
      <point x="205" y="264"/>
      <point x="342" y="473"/>
      <point x="342" y="602" type="qcurve" smooth="yes"/>
      <point x="342" y="635"/>
      <point x="340" y="651" type="qcurve"/>
      <point x="115" y="651" type="line"/>
      <point x="139" y="762" type="line"/>
      <point x="319" y="762" type="line"/>
      <point x="313" y="787"/>
      <point x="274" y="919"/>
      <point x="256" y="1009"/>
      <point x="256" y="1053" type="qcurve" smooth="yes"/>
      <point x="256" y="1161"/>
      <point x="382" y="1353"/>
      <point x="585" y="1464"/>
    </contour>
  </outline>
</glyph>
<glyph name="currency" format="2">
  <advance width="1150"/>
  <unicode hex="00A4"/>
  <outline>
    <contour>
      <point x="358" y="983" type="line"/>
      <point x="451" y="1063"/>
      <point x="588" y="1063" type="qcurve" smooth="yes"/>
      <point x="716" y="1063"/>
      <point x="819" y="983" type="qcurve"/>
      <point x="963" y="1128" type="line"/>
      <point x="1032" y="1061" type="line"/>
      <point x="885" y="913" type="line"/>
      <point x="956" y="817"/>
      <point x="956" y="688" type="qcurve" smooth="yes"/>
      <point x="956" y="561"/>
      <point x="883" y="463" type="qcurve"/>
      <point x="1032" y="315" type="line"/>
      <point x="971" y="256" type="line"/>
      <point x="819" y="397" type="line"/>
      <point x="723" y="317"/>
      <point x="588" y="317" type="qcurve" smooth="yes"/>
      <point x="457" y="317"/>
      <point x="354" y="397" type="qcurve"/>
      <point x="207" y="256" type="line"/>
      <point x="147" y="315" type="line"/>
      <point x="293" y="461" type="line"/>
      <point x="219" y="565"/>
      <point x="219" y="688" type="qcurve" smooth="yes"/>
      <point x="219" y="818"/>
      <point x="291" y="915" type="qcurve"/>
      <point x="147" y="1061" type="line"/>
      <point x="215" y="1128" type="line"/>
    </contour>
    <contour>
      <point x="692" y="416"/>
      <point x="840" y="576"/>
      <point x="840" y="690" type="qcurve" smooth="yes"/>
      <point x="840" y="805"/>
      <point x="693" y="963"/>
      <point x="483" y="963"/>
      <point x="336" y="802"/>
      <point x="336" y="686" type="qcurve" smooth="yes"/>
      <point x="336" y="574"/>
      <point x="484" y="416"/>
    </contour>
  </outline>
</glyph>
<glyph name="yen" format="2">
  <advance width="1331"/>
  <unicode hex="00A5"/>
  <outline>
    <contour>
      <point x="872" y="750" type="line"/>
      <point x="1036" y="750" type="line"/>
      <point x="1016" y="651" type="line"/>
      <point x="797" y="651" type="line"/>
      <point x="709" y="541" type="line"/>
      <point x="696" y="485" type="line"/>
      <point x="981" y="485" type="line"/>
      <point x="961" y="387" type="line"/>
      <point x="676" y="387" type="line"/>
      <point x="594" y="0" type="line"/>
      <point x="451" y="0" type="line"/>
      <point x="532" y="387" type="line"/>
      <point x="252" y="387" type="line"/>
      <point x="274" y="485" type="line"/>
      <point x="555" y="485" type="line"/>
      <point x="567" y="545" type="line"/>
      <point x="528" y="651" type="line"/>
      <point x="309" y="651" type="line"/>
      <point x="330" y="750" type="line"/>
      <point x="498" y="750" type="line"/>
      <point x="231" y="1454" type="line"/>
      <point x="387" y="1454" type="line"/>
      <point x="666" y="672" type="line"/>
      <point x="1280" y="1454" type="line"/>
      <point x="1438" y="1454" type="line"/>
    </contour>
  </outline>
</glyph>
<glyph name="brokenbar" format="2">
  <advance width="577"/>
  <unicode hex="00A6"/>
  <outline>
    <contour>
      <point x="360" y="1587" type="line"/>
      <point x="360" y="754" type="line"/>
      <point x="238" y="754" type="line"/>
      <point x="238" y="1587" type="line"/>
    </contour>
    <contour>
      <point x="360" y="567" type="line"/>
      <point x="360" y="-266" type="line"/>
      <point x="238" y="-266" type="line"/>
      <point x="238" y="567" type="line"/>
    </contour>
  </outline>
</glyph>
<glyph name="section" format="2">
  <advance width="1001"/>
  <unicode hex="00A7"/>
  <outline>
    <contour>
      <point x="827" y="254" type="qcurve" smooth="yes"/>
      <point x="827" y="169"/>
      <point x="764" y="23"/>
      <point x="663" y="-76"/>
      <point x="536" y="-147"/>
      <point x="406" y="-180"/>
      <point x="346" y="-180" type="qcurve" smooth="yes"/>
      <point x="124" y="-180"/>
      <point x="-4" y="6" type="qcurve"/>
      <point x="106" y="92" type="line"/>
      <point x="162" y="21"/>
      <point x="288" y="-47"/>
      <point x="369" y="-47" type="qcurve" smooth="yes"/>
      <point x="442" y="-47"/>
      <point x="582" y="15"/>
      <point x="680" y="140"/>
      <point x="680" y="219" type="qcurve" smooth="yes"/>
      <point x="680" y="254"/>
      <point x="655" y="306"/>
      <point x="617" y="337"/>
      <point x="559" y="357"/>
      <point x="507" y="365"/>
      <point x="473" y="367" type="qcurve" smooth="yes"/>
      <point x="324" y="375"/>
      <point x="152" y="512"/>
      <point x="152" y="637" type="qcurve" smooth="yes"/>
      <point x="152" y="707"/>
      <point x="210" y="833"/>
      <point x="250" y="874" type="qcurve"/>
      <point x="224" y="897"/>
      <point x="193" y="992"/>
      <point x="193" y="1049" type="qcurve" smooth="yes"/>
      <point x="193" y="1138"/>
      <point x="278" y="1296"/>
      <point x="413" y="1402"/>
      <point x="578" y="1464"/>
      <point x="659" y="1464" type="qcurve" smooth="yes"/>
      <point x="794" y="1464"/>
      <point x="941" y="1357"/>
      <point x="979" y="1270" type="qcurve"/>
      <point x="860" y="1219" type="line"/>
      <point x="841" y="1281"/>
      <point x="718" y="1337"/>
      <point x="639" y="1337" type="qcurve" smooth="yes"/>
      <point x="567" y="1337"/>
      <point x="430" y="1274"/>
      <point x="336" y="1148"/>
      <point x="336" y="1069" type="qcurve" smooth="yes"/>
      <point x="336" y="908"/>
      <point x="549" y="905" type="qcurve" smooth="yes"/>
      <point x="614" y="905"/>
      <point x="729" y="876"/>
      <point x="825" y="817"/>
      <point x="881" y="713"/>
      <point x="881" y="645" type="qcurve" smooth="yes"/>
      <point x="881" y="575"/>
      <point x="817" y="439"/>
      <point x="774" y="399" type="qcurve"/>
      <point x="827" y="360"/>
    </contour>
    <contour>
      <point x="653" y="440" type="qcurve"/>
      <point x="692" y="468"/>
      <point x="745" y="571"/>
      <point x="745" y="623" type="qcurve" smooth="yes"/>
      <point x="745" y="682"/>
      <point x="676" y="761"/>
      <point x="584" y="791"/>
      <point x="530" y="791" type="qcurve" smooth="yes"/>
      <point x="432" y="791"/>
      <point x="371" y="819" type="qcurve"/>
      <point x="336" y="789"/>
      <point x="287" y="691"/>
      <point x="287" y="637" type="qcurve" smooth="yes"/>
      <point x="287" y="579"/>
      <point x="341" y="507"/>
      <point x="431" y="478"/>
      <point x="524" y="466"/>
      <point x="627" y="452"/>
    </contour>
  </outline>
</glyph>
<glyph name="dieresis" format="2">
  <advance width="618"/>
  <unicode hex="00A8"/>
  <anchor x="512" y="1489" name="Anchor-13"/>
  <outline>
    <contour>
      <point x="264" y="1296" type="line"/>
      <point x="305" y="1489" type="line"/>
      <point x="424" y="1489" type="line"/>
      <point x="383" y="1296" type="line"/>
    </contour>
    <contour>
      <point x="559" y="1296" type="line"/>
      <point x="600" y="1489" type="line"/>
      <point x="717" y="1489" type="line"/>
      <point x="678" y="1296" type="line"/>
    </contour>
  </outline>
</glyph>
<glyph name="copyright" format="2">
  <advance width="1730"/>
  <unicode hex="00A9"/>
  <outline>
    <contour>
      <point x="135" y="727" type="qcurve" smooth="yes"/>
      <point x="135" y="883"/>
      <point x="249" y="1157"/>
      <point x="448" y="1352"/>
      <point x="727" y="1464"/>
      <point x="1047" y="1464"/>
      <point x="1327" y="1352"/>
      <point x="1527" y="1157"/>
      <point x="1642" y="883"/>
      <point x="1642" y="727" type="qcurve" smooth="yes"/>
      <point x="1642" y="570"/>
      <point x="1527" y="295"/>
      <point x="1327" y="99"/>
      <point x="1047" y="-14"/>
      <point x="727" y="-14"/>
      <point x="448" y="99"/>
      <point x="249" y="295"/>
      <point x="135" y="570"/>
    </contour>
    <contour>
      <point x="1571" y="723" type="qcurve" smooth="yes"/>
      <point x="1571" y="866"/>
      <point x="1467" y="1116"/>
      <point x="1286" y="1295"/>
      <point x="1032" y="1397"/>
      <point x="887" y="1397" type="qcurve" smooth="yes"/>
      <point x="694" y="1397"/>
      <point x="382" y="1223"/>
      <point x="205" y="915"/>
      <point x="205" y="725" type="qcurve" smooth="yes"/>
      <point x="205" y="536"/>
      <point x="381" y="228"/>
      <point x="693" y="53"/>
      <point x="887" y="53" type="qcurve" smooth="yes"/>
      <point x="1078" y="53"/>
      <point x="1390" y="221"/>
      <point x="1571" y="528"/>
    </contour>
    <contour>
      <point x="424" y="727" type="qcurve" smooth="yes"/>
      <point x="424" y="797"/>
      <point x="459" y="933"/>
      <point x="535" y="1056"/>
      <point x="643" y="1150"/>
      <point x="798" y="1206"/>
      <point x="889" y="1206" type="qcurve" smooth="yes"/>
      <point x="1026" y="1206"/>
      <point x="1237" y="1087"/>
      <point x="1282" y="979" type="qcurve"/>
      <point x="1149" y="936" type="line"/>
      <point x="1129" y="979"/>
      <point x="1065" y="1040"/>
      <point x="990" y="1070"/>
      <point x="923" y="1083"/>
      <point x="889" y="1083" type="qcurve" smooth="yes"/>
      <point x="811" y="1083"/>
      <point x="685" y="1021"/>
      <point x="608" y="918"/>
      <point x="567" y="793"/>
      <point x="567" y="727" type="qcurve" smooth="yes"/>
      <point x="567" y="646"/>
      <point x="628" y="509"/>
      <point x="724" y="422"/>
      <point x="839" y="373"/>
      <point x="895" y="373" type="qcurve" smooth="yes"/>
      <point x="974" y="373"/>
      <point x="1131" y="459"/>
      <point x="1163" y="528" type="qcurve"/>
      <point x="1296" y="489" type="line"/>
      <point x="1264" y="402"/>
      <point x="1045" y="252"/>
      <point x="901" y="252" type="qcurve" smooth="yes"/>
      <point x="776" y="252"/>
      <point x="560" y="367"/>
      <point x="424" y="587"/>
    </contour>
  </outline>
</glyph>
<glyph name="ordfeminine" format="2">
  <advance width="847"/>
  <unicode hex="00AA"/>
  <anchor x="0" y="0" name="Anchor-11"/>
  <anchor x="0" y="0" name="Anchor-10"/>
  <anchor x="395" y="1063" name="Anchor-9"/>
  <anchor x="0" y="0" name="Anchor-8"/>
  <anchor x="791" y="23" name="Anchor-7"/>
  <outline>
    <contour>
      <point x="154" y="893" type="qcurve" smooth="yes"/>
      <point x="154" y="1008"/>
      <point x="351" y="1157"/>
      <point x="496" y="1157" type="qcurve" smooth="yes"/>
      <point x="611" y="1157"/>
      <point x="684" y="1120" type="qcurve"/>
      <point x="696" y="1178" type="line" smooth="yes"/>
      <point x="702" y="1208"/>
      <point x="702" y="1229" type="qcurve" smooth="yes"/>
      <point x="702" y="1294"/>
      <point x="624" y="1368"/>
      <point x="553" y="1368" type="qcurve" smooth="yes"/>
      <point x="450" y="1368"/>
      <point x="313" y="1284" type="qcurve"/>
      <point x="291" y="1360" type="line"/>
      <point x="446" y="1454"/>
      <point x="580" y="1454" type="qcurve" smooth="yes"/>
      <point x="696" y="1454"/>
      <point x="821" y="1347"/>
      <point x="821" y="1247" type="qcurve" smooth="yes"/>
      <point x="821" y="1204"/>
      <point x="813" y="1165" type="qcurve" smooth="yes"/>
      <point x="750" y="872" type="line" smooth="yes"/>
      <point x="748" y="866"/>
      <point x="748" y="856" type="qcurve" smooth="yes"/>
      <point x="748" y="830"/>
      <point x="778" y="827" type="qcurve"/>
      <point x="756" y="721" type="line"/>
      <point x="707" y="718"/>
      <point x="696" y="731" type="qcurve"/>
      <point x="633" y="731"/>
      <point x="633" y="780" type="qcurve"/>
      <point x="641" y="842" type="line"/>
      <point x="580" y="778"/>
      <point x="424" y="709"/>
      <point x="342" y="709" type="qcurve" smooth="yes"/>
      <point x="258" y="709"/>
      <point x="154" y="814"/>
    </contour>
    <contour>
      <point x="645" y="942" type="qcurve" smooth="yes"/>
      <point x="668" y="1049" type="line"/>
      <point x="608" y="1081"/>
      <point x="500" y="1081" type="qcurve" smooth="yes"/>
      <point x="401" y="1081"/>
      <point x="270" y="991"/>
      <point x="270" y="920" type="qcurve" smooth="yes"/>
      <point x="270" y="868"/>
      <point x="338" y="801"/>
      <point x="393" y="801" type="qcurve" smooth="yes"/>
      <point x="474" y="801"/>
      <point x="633" y="887"/>
    </contour>
  </outline>
</glyph>
<glyph name="guillemotleft" format="2">
  <advance width="1132"/>
  <unicode hex="00AB"/>
  <outline>
    <contour>
      <point x="74" y="565" type="line"/>
      <point x="635" y="930" type="line"/>
      <point x="610" y="809" type="line"/>
      <point x="180" y="530" type="line"/>
      <point x="492" y="256" type="line"/>
      <point x="465" y="135" type="line"/>
      <point x="57" y="489" type="line"/>
    </contour>
    <contour>
      <point x="510" y="565" type="line"/>
      <point x="1073" y="930" type="line"/>
      <point x="1047" y="809" type="line"/>
      <point x="616" y="530" type="line"/>
      <point x="930" y="256" type="line"/>
      <point x="903" y="135" type="line"/>
      <point x="496" y="489" type="line"/>
    </contour>
  </outline>
</glyph>
<glyph name="logicalnot" format="2">
  <advance width="1150"/>
  <unicode hex="00AC"/>
  <outline>
    <contour>
      <point x="1036" y="745" type="line"/>
      <point x="930" y="258" type="line"/>
      <point x="811" y="258" type="line"/>
      <point x="887" y="618" type="line"/>
      <point x="147" y="618" type="line"/>
      <point x="176" y="745" type="line"/>
    </contour>
  </outline>
</glyph>
<glyph name="sfthyphen" format="2">
  <advance width="1122"/>
  <unicode hex="00AD"/>
  <outline>
    <contour>
      <point x="104" y="494" type="line"/>
      <point x="131" y="623" type="line"/>
      <point x="991" y="623" type="line"/>
      <point x="965" y="494" type="line"/>
    </contour>
  </outline>
</glyph>
<glyph name="registered" format="2">
  <advance width="1730"/>
  <unicode hex="00AE"/>
  <outline>
    <contour>
      <point x="135" y="727" type="qcurve" smooth="yes"/>
      <point x="135" y="883"/>
      <point x="249" y="1157"/>
      <point x="448" y="1352"/>
      <point x="727" y="1464"/>
      <point x="1047" y="1464"/>
      <point x="1327" y="1352"/>
      <point x="1527" y="1157"/>
      <point x="1642" y="883"/>
      <point x="1642" y="727" type="qcurve" smooth="yes"/>
      <point x="1642" y="570"/>
      <point x="1527" y="295"/>
      <point x="1327" y="99"/>
      <point x="1047" y="-14"/>
      <point x="727" y="-14"/>
      <point x="448" y="99"/>
      <point x="249" y="295"/>
      <point x="135" y="570"/>
    </contour>
    <contour>
      <point x="1569" y="725" type="qcurve" smooth="yes"/>
      <point x="1569" y="914"/>
      <point x="1393" y="1222"/>
      <point x="1081" y="1397"/>
      <point x="887" y="1397" type="qcurve" smooth="yes"/>
      <point x="695" y="1397"/>
      <point x="384" y="1222"/>
      <point x="209" y="915"/>
      <point x="209" y="727" type="qcurve" smooth="yes"/>
      <point x="209" y="537"/>
      <point x="383" y="228"/>
      <point x="694" y="51"/>
      <point x="887" y="51" type="qcurve" smooth="yes"/>
      <point x="1078" y="51"/>
      <point x="1389" y="219"/>
      <point x="1569" y="528"/>
    </contour>
    <contour>
      <point x="575" y="1188" type="line"/>
      <point x="967" y="1188" type="line" smooth="yes"/>
      <point x="1083" y="1188"/>
      <point x="1241" y="1007"/>
      <point x="1241" y="895" type="qcurve" smooth="yes"/>
      <point x="1241" y="794"/>
      <point x="1125" y="637"/>
      <point x="1032" y="618" type="qcurve"/>
      <point x="1260" y="260" type="line"/>
      <point x="1141" y="260" type="line"/>
      <point x="922" y="604" type="line"/>
      <point x="682" y="604" type="line"/>
      <point x="682" y="260" type="line"/>
      <point x="575" y="260" type="line"/>
    </contour>
    <contour>
      <point x="965" y="698" type="line" smooth="yes"/>
      <point x="1047" y="698"/>
      <point x="1137" y="808"/>
      <point x="1137" y="895" type="qcurve" smooth="yes"/>
      <point x="1137" y="979"/>
      <point x="1035" y="1090"/>
      <point x="958" y="1090" type="qcurve" smooth="yes"/>
      <point x="682" y="1090" type="line"/>
      <point x="682" y="698" type="line"/>
    </contour>
  </outline>
</glyph>
<glyph name="macron" format="2">
  <advance width="768"/>
  <unicode hex="00AF"/>
  <anchor x="580" y="1452" name="Anchor-13"/>
  <outline>
    <contour>
      <point x="276" y="1356" type="line"/>
      <point x="297" y="1452" type="line"/>
      <point x="860" y="1452" type="line"/>
      <point x="840" y="1356" type="line"/>
    </contour>
  </outline>
</glyph>
<glyph name="degree" format="2">
  <advance width="530"/>
  <unicode hex="00B0"/>
  <outline>
    <contour>
      <point x="240" y="1276" type="qcurve" smooth="yes"/>
      <point x="240" y="1355"/>
      <point x="361" y="1483"/>
      <point x="444" y="1483" type="qcurve" smooth="yes"/>
      <point x="503" y="1483"/>
      <point x="575" y="1406"/>
      <point x="575" y="1346" type="qcurve" smooth="yes"/>
      <point x="575" y="1263"/>
      <point x="453" y="1143"/>
      <point x="371" y="1143" type="qcurve" smooth="yes"/>
      <point x="313" y="1143"/>
      <point x="240" y="1217"/>
    </contour>
    <contour>
      <point x="496" y="1329" type="qcurve" smooth="yes"/>
      <point x="496" y="1362"/>
      <point x="459" y="1401"/>
      <point x="428" y="1401" type="qcurve" smooth="yes"/>
      <point x="387" y="1401"/>
      <point x="322" y="1338"/>
      <point x="322" y="1296" type="qcurve" smooth="yes"/>
      <point x="322" y="1262"/>
      <point x="358" y="1223"/>
      <point x="389" y="1223" type="qcurve" smooth="yes"/>
      <point x="427" y="1223"/>
      <point x="496" y="1288"/>
    </contour>
  </outline>
</glyph>
<glyph name="plusminus" format="2">
  <advance width="991"/>
  <unicode hex="00B1"/>
  <outline>
    <contour>
      <point x="799" y="805" type="line"/>
      <point x="799" y="688" type="line"/>
      <point x="532" y="688" type="line"/>
      <point x="532" y="401" type="line"/>
      <point x="406" y="401" type="line"/>
      <point x="406" y="688" type="line"/>
      <point x="139" y="688" type="line"/>
      <point x="139" y="805" type="line"/>
      <point x="406" y="805" type="line"/>
      <point x="406" y="1092" type="line"/>
      <point x="532" y="1092" type="line"/>
      <point x="532" y="805" type="line"/>
    </contour>
    <contour>
      <point x="139" y="125" type="line"/>
      <point x="139" y="242" type="line"/>
      <point x="799" y="242" type="line"/>
      <point x="799" y="125" type="line"/>
    </contour>
  </outline>
</glyph>
<glyph name="twosuperior" format="2">
  <advance width="765"/>
  <unicode hex="00B2"/>
  <outline>
    <contour>
      <point x="119" y="834" type="line"/>
      <point x="152" y="987"/>
      <point x="304" y="1155"/>
      <point x="444" y="1208" type="qcurve" smooth="yes"/>
      <point x="462" y="1215"/>
      <point x="533" y="1240"/>
      <point x="574" y="1255"/>
      <point x="636" y="1282"/>
      <point x="674" y="1304"/>
      <point x="719" y="1338"/>
      <point x="743" y="1373"/>
      <point x="760" y="1420"/>
      <point x="760" y="1446" type="qcurve" smooth="yes"/>
      <point x="760" y="1503"/>
      <point x="684" y="1571"/>
      <point x="604" y="1571" type="qcurve" smooth="yes"/>
      <point x="516" y="1571"/>
      <point x="367" y="1497"/>
      <point x="322" y="1452" type="qcurve"/>
      <point x="274" y="1522" type="line"/>
      <point x="288" y="1537"/>
      <point x="340" y="1576"/>
      <point x="429" y="1627"/>
      <point x="556" y="1661"/>
      <point x="623" y="1661" type="qcurve" smooth="yes"/>
      <point x="741" y="1661"/>
      <point x="862" y="1553"/>
      <point x="862" y="1464" type="qcurve" smooth="yes"/>
      <point x="862" y="1401"/>
      <point x="816" y="1303"/>
      <point x="722" y="1231"/>
      <point x="610" y="1179"/>
      <point x="530" y="1153" type="qcurve" smooth="yes"/>
      <point x="312" y="1081"/>
      <point x="279" y="922" type="qcurve"/>
      <point x="752" y="922" type="line"/>
      <point x="733" y="834" type="line"/>
    </contour>
  </outline>
</glyph>
<glyph name="threesuperior" format="2">
  <advance width="765"/>
  <unicode hex="00B3"/>
  <outline>
    <contour>
      <point x="152" y="1006" type="qcurve"/>
      <point x="217" y="1053" type="line"/>
      <point x="217" y="993"/>
      <point x="332" y="903"/>
      <point x="432" y="903" type="qcurve" smooth="yes"/>
      <point x="536" y="903"/>
      <point x="692" y="1006"/>
      <point x="692" y="1077" type="qcurve" smooth="yes"/>
      <point x="692" y="1140"/>
      <point x="555" y="1210"/>
      <point x="434" y="1210" type="qcurve" smooth="yes"/>
      <point x="389" y="1210" type="line"/>
      <point x="406" y="1294" type="line"/>
      <point x="451" y="1294" type="line" smooth="yes"/>
      <point x="589" y="1294"/>
      <point x="745" y="1375"/>
      <point x="745" y="1452" type="qcurve" smooth="yes"/>
      <point x="745" y="1508"/>
      <point x="643" y="1577"/>
      <point x="569" y="1577" type="qcurve" smooth="yes"/>
      <point x="489" y="1577"/>
      <point x="358" y="1515"/>
      <point x="319" y="1462" type="qcurve"/>
      <point x="272" y="1532" type="line"/>
      <point x="319" y="1591"/>
      <point x="492" y="1661"/>
      <point x="586" y="1661" type="qcurve" smooth="yes"/>
      <point x="702" y="1661"/>
      <point x="846" y="1551"/>
      <point x="846" y="1466" type="qcurve" smooth="yes"/>
      <point x="846" y="1385"/>
      <point x="732" y="1277"/>
      <point x="625" y="1255" type="qcurve"/>
      <point x="699" y="1243"/>
      <point x="784" y="1147"/>
      <point x="784" y="1081" type="qcurve" smooth="yes"/>
      <point x="784" y="1003"/>
      <point x="677" y="883"/>
      <point x="511" y="823"/>
      <point x="416" y="823" type="qcurve" smooth="yes"/>
      <point x="296" y="823"/>
      <point x="153" y="921"/>
    </contour>
  </outline>
</glyph>
<glyph name="acute" format="2">
  <advance width="464"/>
  <unicode hex="00B4"/>
  <anchor x="377" y="1495" name="Anchor-13"/>
  <outline>
    <contour>
      <point x="350" y="1270" type="line"/>
      <point x="264" y="1305" type="line"/>
      <point x="420" y="1495" type="line"/>
      <point x="565" y="1495" type="line"/>
    </contour>
  </outline>
</glyph>
<glyph name="mu" format="2">
  <advance width="1224"/>
  <unicode hex="00B5"/>
  <outline>
    <contour>
      <point x="262" y="1067" type="line"/>
      <point x="401" y="1067" type="line"/>
      <point x="272" y="465" type="line" smooth="yes"/>
      <point x="252" y="363"/>
      <point x="252" y="305" type="qcurve" smooth="yes"/>
      <point x="252" y="102"/>
      <point x="430" y="102" type="qcurve" smooth="yes"/>
      <point x="545" y="102"/>
      <point x="779" y="263"/>
      <point x="852" y="395" type="qcurve"/>
      <point x="995" y="1067" type="line"/>
      <point x="1135" y="1067" type="line"/>
      <point x="946" y="180" type="line" smooth="yes"/>
      <point x="942" y="164"/>
      <point x="942" y="158" type="qcurve" smooth="yes"/>
      <point x="942" y="123"/>
      <point x="983" y="123" type="qcurve"/>
      <point x="954" y="0" type="line"/>
      <point x="905" y="-3"/>
      <point x="887" y="12" type="qcurve"/>
      <point x="850" y="14"/>
      <point x="808" y="51"/>
      <point x="809" y="80" type="qcurve" smooth="yes"/>
      <point x="817" y="150"/>
      <point x="838" y="242" type="qcurve"/>
      <point x="761" y="130"/>
      <point x="514" y="-20"/>
      <point x="397" y="-20" type="qcurve" smooth="yes"/>
      <point x="308" y="-20"/>
      <point x="208" y="74"/>
      <point x="199" y="154" type="qcurve"/>
      <point x="82" y="-434" type="line"/>
      <point x="-57" y="-434" type="line"/>
    </contour>
  </outline>
</glyph>
<glyph name="paragraph" format="2">
  <advance width="1185"/>
  <unicode hex="00B6"/>
  <outline>
    <contour>
      <point x="799" y="1454" type="qcurve" smooth="yes"/>
      <point x="1272" y="1454" type="line"/>
      <point x="1247" y="1343" type="line"/>
      <point x="1112" y="1343" type="line"/>
      <point x="791" y="-164" type="line"/>
      <point x="670" y="-164" type="line"/>
      <point x="805" y="473" type="line"/>
      <point x="664" y="473" type="line"/>
      <point x="528" y="-164" type="line"/>
      <point x="406" y="-164" type="line"/>
      <point x="543" y="473" type="line"/>
      <point x="348" y="476"/>
      <point x="131" y="680"/>
      <point x="131" y="856" type="qcurve" smooth="yes"/>
      <point x="131" y="1126"/>
      <point x="494" y="1454"/>
    </contour>
    <contour>
      <point x="565" y="584" type="qcurve"/>
      <point x="727" y="1343" type="line"/>
      <point x="582" y="1342"/>
      <point x="365" y="1222"/>
      <point x="254" y="1015"/>
      <point x="254" y="883" type="qcurve" smooth="yes"/>
      <point x="254" y="742"/>
      <point x="425" y="592"/>
    </contour>
    <contour>
      <point x="991" y="1343" type="line"/>
      <point x="850" y="1343" type="line"/>
      <point x="686" y="584" type="line"/>
      <point x="827" y="584" type="line"/>
    </contour>
  </outline>
</glyph>
<glyph name="periodcentered" format="2">
  <advance width="380"/>
  <unicode hex="00B7"/>
  <outline>
    <contour>
      <point x="106" y="504" type="line"/>
      <point x="154" y="733" type="line"/>
      <point x="272" y="733" type="line"/>
      <point x="225" y="504" type="line"/>
    </contour>
  </outline>
</glyph>
<glyph name="cedilla" format="2">
  <advance width="602"/>
  <unicode hex="00B8"/>
  <outline>
    <contour>
      <point x="115" y="-369" type="qcurve" smooth="yes"/>
      <point x="7" y="-369"/>
      <point x="-78" y="-311" type="qcurve"/>
      <point x="-20" y="-231" type="line"/>
      <point x="17" y="-254"/>
      <point x="76" y="-276"/>
      <point x="115" y="-276" type="qcurve" smooth="yes"/>
      <point x="183" y="-276"/>
      <point x="264" y="-205"/>
      <point x="264" y="-145" type="qcurve" smooth="yes"/>
      <point x="264" y="-72"/>
      <point x="176" y="0" type="qcurve"/>
      <point x="238" y="39" type="line"/>
      <point x="348" y="-49"/>
      <point x="348" y="-154" type="qcurve" smooth="yes"/>
      <point x="348" y="-253"/>
      <point x="220" y="-369"/>
    </contour>
  </outline>
</glyph>
<glyph name="onesuperior" format="2">
  <advance width="532"/>
  <unicode hex="00B9"/>
  <outline>
    <contour>
      <point x="559" y="924" type="line"/>
      <point x="539" y="831" type="line"/>
      <point x="143" y="831" type="line"/>
      <point x="164" y="924" type="line"/>
      <point x="322" y="924" type="line"/>
      <point x="455" y="1556" type="line"/>
      <point x="425" y="1526"/>
      <point x="291" y="1456"/>
      <point x="248" y="1456" type="qcurve"/>
      <point x="268" y="1548" type="line"/>
      <point x="305" y="1548"/>
      <point x="408" y="1603"/>
      <point x="475" y="1656"/>
      <point x="477" y="1661" type="qcurve"/>
      <point x="569" y="1661" type="line"/>
      <point x="412" y="924" type="line"/>
    </contour>
  </outline>
</glyph>
<glyph name="ordmasculine" format="2">
  <advance width="882"/>
  <unicode hex="00BA"/>
  <anchor x="0" y="0" name="Anchor-11"/>
  <anchor x="0" y="0" name="Anchor-10"/>
  <anchor x="463" y="1063" name="Anchor-9"/>
  <anchor x="0" y="0" name="Anchor-8"/>
  <anchor x="461" y="0" name="Anchor-7"/>
  <outline>
    <contour>
      <point x="176" y="1010" type="qcurve" smooth="yes"/>
      <point x="176" y="1125"/>
      <point x="295" y="1330"/>
      <point x="499" y="1454"/>
      <point x="614" y="1454" type="qcurve" smooth="yes"/>
      <point x="744" y="1454"/>
      <point x="897" y="1282"/>
      <point x="897" y="1153" type="qcurve" smooth="yes"/>
      <point x="897" y="1040"/>
      <point x="779" y="835"/>
      <point x="574" y="709"/>
      <point x="457" y="709" type="qcurve" smooth="yes"/>
      <point x="328" y="709"/>
      <point x="176" y="883"/>
    </contour>
    <contour>
      <point x="780" y="1137" type="qcurve" smooth="yes"/>
      <point x="780" y="1230"/>
      <point x="676" y="1354"/>
      <point x="594" y="1354" type="qcurve" smooth="yes"/>
      <point x="479" y="1354"/>
      <point x="293" y="1156"/>
      <point x="293" y="1024" type="qcurve" smooth="yes"/>
      <point x="293" y="931"/>
      <point x="395" y="809"/>
      <point x="477" y="809" type="qcurve" smooth="yes"/>
      <point x="593" y="809"/>
      <point x="780" y="1007"/>
    </contour>
  </outline>
</glyph>
<glyph name="guillemotright" format="2">
  <advance width="1132"/>
  <unicode hex="00BB"/>
  <outline>
    <contour>
      <point x="584" y="489" type="line"/>
      <point x="23" y="135" type="line"/>
      <point x="49" y="256" type="line"/>
      <point x="479" y="530" type="line"/>
      <point x="168" y="809" type="line"/>
      <point x="193" y="930" type="line"/>
      <point x="598" y="565" type="line"/>
    </contour>
    <contour>
      <point x="1020" y="489" type="line"/>
      <point x="461" y="135" type="line"/>
      <point x="485" y="256" type="line"/>
      <point x="913" y="530" type="line"/>
      <point x="604" y="809" type="line"/>
      <point x="629" y="930" type="line"/>
      <point x="1036" y="565" type="line"/>
    </contour>
  </outline>
</glyph>
<glyph name="onequarter" format="2">
  <advance width="1605"/>
  <unicode hex="00BC"/>
  <outline>
    <contour>
      <point x="524" y="760" type="line"/>
      <point x="504" y="668" type="line"/>
      <point x="109" y="668" type="line"/>
      <point x="129" y="760" type="line"/>
      <point x="287" y="760" type="line"/>
      <point x="420" y="1393" type="line"/>
      <point x="389" y="1362"/>
      <point x="256" y="1292"/>
      <point x="213" y="1292" type="qcurve"/>
      <point x="233" y="1384" type="line"/>
      <point x="270" y="1384"/>
      <point x="373" y="1439"/>
      <point x="440" y="1492"/>
      <point x="442" y="1497" type="qcurve"/>
      <point x="535" y="1497" type="line"/>
      <point x="377" y="760" type="line"/>
    </contour>
    <contour>
      <point x="0" y="55" type="line"/>
      <point x="680" y="739" type="line"/>
      <point x="1370" y="1462" type="line"/>
      <point x="1427" y="1401" type="line"/>
      <point x="727" y="692" type="line"/>
      <point x="57" y="-8" type="line"/>
    </contour>
    <contour>
      <point x="1255" y="211" type="line"/>
      <point x="811" y="211" type="line"/>
      <point x="829" y="297" type="line"/>
      <point x="1411" y="817" type="line"/>
      <point x="1475" y="817" type="line"/>
      <point x="1364" y="301" type="line"/>
      <point x="1479" y="301" type="line"/>
      <point x="1458" y="211" type="line"/>
      <point x="1346" y="211" type="line"/>
      <point x="1300" y="0" type="line"/>
      <point x="1210" y="0" type="line"/>
    </contour>
    <contour>
      <point x="1278" y="301" type="line"/>
      <point x="1360" y="692" type="line"/>
      <point x="930" y="301" type="line"/>
    </contour>
  </outline>
</glyph>
<glyph name="onehalf" format="2">
  <advance width="1599"/>
  <unicode hex="00BD"/>
  <outline>
    <contour>
      <point x="524" y="760" type="line"/>
      <point x="504" y="668" type="line"/>
      <point x="109" y="668" type="line"/>
      <point x="129" y="760" type="line"/>
      <point x="287" y="760" type="line"/>
      <point x="420" y="1393" type="line"/>
      <point x="389" y="1362"/>
      <point x="256" y="1292"/>
      <point x="213" y="1292" type="qcurve"/>
      <point x="233" y="1384" type="line"/>
      <point x="270" y="1384"/>
      <point x="373" y="1439"/>
      <point x="440" y="1492"/>
      <point x="442" y="1497" type="qcurve"/>
      <point x="535" y="1497" type="line"/>
      <point x="377" y="760" type="line"/>
    </contour>
    <contour>
      <point x="0" y="55" type="line"/>
      <point x="680" y="739" type="line"/>
      <point x="1370" y="1462" type="line"/>
      <point x="1427" y="1401" type="line"/>
      <point x="727" y="692" type="line"/>
      <point x="57" y="-8" type="line"/>
    </contour>
    <contour>
      <point x="795" y="0" type="line"/>
      <point x="825" y="153"/>
      <point x="975" y="324"/>
      <point x="1112" y="377" type="qcurve" smooth="yes"/>
      <point x="1129" y="383"/>
      <point x="1199" y="408"/>
      <point x="1238" y="422"/>
      <point x="1299" y="449"/>
      <point x="1336" y="470"/>
      <point x="1379" y="504"/>
      <point x="1403" y="539"/>
      <point x="1419" y="586"/>
      <point x="1419" y="612" type="qcurve" smooth="yes"/>
      <point x="1419" y="670"/>
      <point x="1346" y="739"/>
      <point x="1268" y="739" type="qcurve" smooth="yes"/>
      <point x="1182" y="739"/>
      <point x="1038" y="665"/>
      <point x="989" y="618" type="qcurve"/>
      <point x="946" y="690" type="line"/>
      <point x="958" y="704"/>
      <point x="1011" y="744"/>
      <point x="1096" y="794"/>
      <point x="1219" y="827"/>
      <point x="1284" y="827" type="qcurve" smooth="yes"/>
      <point x="1398" y="827"/>
      <point x="1518" y="719"/>
      <point x="1518" y="631" type="qcurve" smooth="yes"/>
      <point x="1518" y="512"/>
      <point x="1355" y="372"/>
      <point x="1196" y="319" type="qcurve" smooth="yes"/>
      <point x="984" y="247"/>
      <point x="950" y="90" type="qcurve"/>
      <point x="1411" y="90" type="line"/>
      <point x="1393" y="0" type="line"/>
    </contour>
  </outline>
</glyph>
<glyph name="threequarters" format="2">
  <advance width="1839"/>
  <unicode hex="00BE"/>
  <outline>
    <contour>
      <point x="117" y="840" type="qcurve"/>
      <point x="182" y="887" type="line"/>
      <point x="182" y="831"/>
      <point x="298" y="739"/>
      <point x="397" y="739" type="qcurve" smooth="yes"/>
      <point x="501" y="739"/>
      <point x="657" y="841"/>
      <point x="657" y="913" type="qcurve" smooth="yes"/>
      <point x="657" y="976"/>
      <point x="519" y="1047"/>
      <point x="399" y="1047" type="qcurve" smooth="yes"/>
      <point x="354" y="1047" type="line"/>
      <point x="371" y="1128" type="line"/>
      <point x="416" y="1128" type="line" smooth="yes"/>
      <point x="554" y="1128"/>
      <point x="711" y="1209"/>
      <point x="711" y="1286" type="qcurve" smooth="yes"/>
      <point x="711" y="1342"/>
      <point x="609" y="1411"/>
      <point x="535" y="1411" type="qcurve" smooth="yes"/>
      <point x="455" y="1411"/>
      <point x="324" y="1349"/>
      <point x="285" y="1296" type="qcurve"/>
      <point x="238" y="1366" type="line"/>
      <point x="285" y="1425"/>
      <point x="457" y="1495"/>
      <point x="551" y="1495" type="qcurve" smooth="yes"/>
      <point x="667" y="1495"/>
      <point x="811" y="1387"/>
      <point x="811" y="1303" type="qcurve" smooth="yes"/>
      <point x="811" y="1222"/>
      <point x="697" y="1113"/>
      <point x="590" y="1090" type="qcurve"/>
      <point x="664" y="1078"/>
      <point x="750" y="983"/>
      <point x="750" y="918" type="qcurve" smooth="yes"/>
      <point x="750" y="839"/>
      <point x="642" y="718"/>
      <point x="476" y="657"/>
      <point x="381" y="657" type="qcurve" smooth="yes"/>
      <point x="269" y="657"/>
      <point x="118" y="754"/>
    </contour>
    <contour>
      <point x="233" y="55" type="line"/>
      <point x="913" y="739" type="line"/>
      <point x="1604" y="1462" type="line"/>
      <point x="1661" y="1401" type="line"/>
      <point x="961" y="692" type="line"/>
      <point x="291" y="-8" type="line"/>
    </contour>
    <contour>
      <point x="1489" y="211" type="line"/>
      <point x="1044" y="211" type="line"/>
      <point x="1063" y="297" type="line"/>
      <point x="1645" y="817" type="line"/>
      <point x="1708" y="817" type="line"/>
      <point x="1597" y="301" type="line"/>
      <point x="1712" y="301" type="line"/>
      <point x="1692" y="211" type="line"/>
      <point x="1579" y="211" type="line"/>
      <point x="1534" y="0" type="line"/>
      <point x="1444" y="0" type="line"/>
    </contour>
    <contour>
      <point x="1511" y="301" type="line"/>
      <point x="1593" y="692" type="line"/>
      <point x="1163" y="301" type="line"/>
    </contour>
  </outline>
</glyph>
<glyph name="questiondown" format="2">
  <advance width="927"/>
  <unicode hex="00BF"/>
  <outline>
    <contour>
      <point x="721" y="1036" type="line"/>
      <point x="674" y="817" type="line"/>
      <point x="557" y="817" type="line"/>
      <point x="602" y="1036" type="line"/>
    </contour>
    <contour>
      <point x="637" y="623" type="line"/>
      <point x="608" y="490"/>
      <point x="496" y="329"/>
      <point x="399" y="274" type="qcurve" smooth="yes"/>
      <point x="378" y="262"/>
      <point x="278" y="211"/>
      <point x="218" y="178"/>
      <point x="134" y="114"/>
      <point x="87" y="49"/>
      <point x="51" y="-50"/>
      <point x="51" y="-109" type="qcurve" smooth="yes"/>
      <point x="51" y="-209"/>
      <point x="171" y="-319"/>
      <point x="262" y="-319" type="qcurve" smooth="yes"/>
      <point x="360" y="-319"/>
      <point x="552" y="-202"/>
      <point x="614" y="-111" type="qcurve"/>
      <point x="696" y="-172" type="line"/>
      <point x="618" y="-295"/>
      <point x="365" y="-436"/>
      <point x="236" y="-436" type="qcurve" smooth="yes"/>
      <point x="102" y="-436"/>
      <point x="-76" y="-275"/>
      <point x="-76" y="-127" type="qcurve" smooth="yes"/>
      <point x="-76" y="-62"/>
      <point x="-53" y="44"/>
      <point x="-3" y="126"/>
      <point x="51" y="188"/>
      <point x="137" y="245"/>
      <point x="205" y="284"/>
      <point x="258" y="311" type="qcurve" smooth="yes"/>
      <point x="269" y="316"/>
      <point x="274" y="319" type="qcurve" smooth="yes"/>
      <point x="313" y="339"/>
      <point x="359" y="366"/>
      <point x="424" y="418"/>
      <point x="465" y="475"/>
      <point x="506" y="566"/>
      <point x="518" y="623" type="qcurve"/>
    </contour>
  </outline>
</glyph>
<glyph name="Agrave" format="2">
  <advance width="1333"/>
  <unicode hex="00C0"/>
  <anchor x="0" y="0" name="Anchor-11"/>
  <anchor x="0" y="0" name="Anchor-10"/>
  <anchor x="823" y="1882" name="Anchor-9"/>
  <anchor x="1176" y="0" name="Anchor-8"/>
  <anchor x="553" y="0" name="Anchor-7"/>
  <outline>
    <contour>
      <point x="688" y="1882" type="line"/>
      <point x="831" y="1882" type="line"/>
      <point x="909" y="1692" type="line"/>
      <point x="809" y="1657" type="line"/>
    </contour>
    <contour>
      <point x="791" y="1454" type="line"/>
      <point x="913" y="1454" type="line"/>
      <point x="1176" y="0" type="line"/>
      <point x="1024" y="0" type="line"/>
      <point x="944" y="455" type="line"/>
      <point x="332" y="455" type="line"/>
      <point x="61" y="0" type="line"/>
      <point x="-92" y="0" type="line"/>
    </contour>
    <contour>
      <point x="936" y="567" type="line"/>
      <point x="817" y="1286" type="line"/>
      <point x="385" y="567" type="line"/>
    </contour>
  </outline>
</glyph>
<glyph name="Aacute" format="2">
  <advance width="1333"/>
  <unicode hex="00C1"/>
  <anchor x="0" y="0" name="Anchor-11"/>
  <anchor x="0" y="0" name="Anchor-10"/>
  <anchor x="954" y="1882" name="Anchor-9"/>
  <anchor x="1176" y="0" name="Anchor-8"/>
  <anchor x="553" y="0" name="Anchor-7"/>
  <outline>
    <contour>
      <point x="928" y="1657" type="line"/>
      <point x="842" y="1692" type="line"/>
      <point x="997" y="1882" type="line"/>
      <point x="1143" y="1882" type="line"/>
    </contour>
    <contour>
      <point x="791" y="1454" type="line"/>
      <point x="913" y="1454" type="line"/>
      <point x="1176" y="0" type="line"/>
      <point x="1024" y="0" type="line"/>
      <point x="944" y="455" type="line"/>
      <point x="332" y="455" type="line"/>
      <point x="61" y="0" type="line"/>
      <point x="-92" y="0" type="line"/>
    </contour>
    <contour>
      <point x="936" y="567" type="line"/>
      <point x="817" y="1286" type="line"/>
      <point x="385" y="567" type="line"/>
    </contour>
  </outline>
</glyph>
<glyph name="Acircumflex" format="2">
  <advance width="1333"/>
  <unicode hex="00C2"/>
  <anchor x="0" y="0" name="Anchor-11"/>
  <anchor x="0" y="0" name="Anchor-10"/>
  <anchor x="932" y="1864" name="Anchor-9"/>
  <anchor x="1176" y="0" name="Anchor-8"/>
  <anchor x="553" y="0" name="Anchor-7"/>
  <outline>
    <contour>
      <point x="664" y="1690" type="line"/>
      <point x="895" y="1864" type="line"/>
      <point x="995" y="1864" type="line"/>
      <point x="1151" y="1690" type="line"/>
      <point x="1065" y="1649" type="line"/>
      <point x="926" y="1778" type="line"/>
      <point x="733" y="1649" type="line"/>
    </contour>
    <contour>
      <point x="791" y="1454" type="line"/>
      <point x="913" y="1454" type="line"/>
      <point x="1176" y="0" type="line"/>
      <point x="1024" y="0" type="line"/>
      <point x="944" y="455" type="line"/>
      <point x="332" y="455" type="line"/>
      <point x="61" y="0" type="line"/>
      <point x="-92" y="0" type="line"/>
    </contour>
    <contour>
      <point x="936" y="567" type="line"/>
      <point x="817" y="1286" type="line"/>
      <point x="385" y="567" type="line"/>
    </contour>
  </outline>
</glyph>
<glyph name="Atilde" format="2">
  <advance width="1333"/>
  <unicode hex="00C3"/>
  <anchor x="0" y="0" name="Anchor-11"/>
  <anchor x="0" y="0" name="Anchor-10"/>
  <anchor x="948" y="1882" name="Anchor-9"/>
  <anchor x="1176" y="0" name="Anchor-8"/>
  <anchor x="553" y="0" name="Anchor-7"/>
  <outline>
    <contour>
      <point x="795" y="1776" type="qcurve" smooth="yes"/>
      <point x="757" y="1776"/>
      <point x="700" y="1728"/>
      <point x="680" y="1688"/>
      <point x="678" y="1677" type="qcurve"/>
      <point x="592" y="1677" type="line"/>
      <point x="594" y="1688"/>
      <point x="612" y="1728"/>
      <point x="649" y="1785"/>
      <point x="697" y="1834"/>
      <point x="772" y="1868"/>
      <point x="813" y="1868" type="qcurve" smooth="yes"/>
      <point x="859" y="1868"/>
      <point x="934" y="1825"/>
      <point x="1003" y="1782"/>
      <point x="1042" y="1782" type="qcurve" smooth="yes"/>
      <point x="1071" y="1782"/>
      <point x="1119" y="1802"/>
      <point x="1147" y="1828"/>
      <point x="1168" y="1860"/>
      <point x="1175" y="1877"/>
      <point x="1176" y="1882" type="qcurve"/>
      <point x="1262" y="1882" type="line"/>
      <point x="1259" y="1867"/>
      <point x="1230" y="1814"/>
      <point x="1177" y="1744"/>
      <point x="1082" y="1694"/>
      <point x="1026" y="1694" type="qcurve" smooth="yes"/>
      <point x="987" y="1694"/>
      <point x="919" y="1720"/>
      <point x="878" y="1750"/>
      <point x="823" y="1776"/>
    </contour>
    <contour>
      <point x="791" y="1454" type="line"/>
      <point x="913" y="1454" type="line"/>
      <point x="1176" y="0" type="line"/>
      <point x="1024" y="0" type="line"/>
      <point x="944" y="455" type="line"/>
      <point x="332" y="455" type="line"/>
      <point x="61" y="0" type="line"/>
      <point x="-92" y="0" type="line"/>
    </contour>
    <contour>
      <point x="936" y="567" type="line"/>
      <point x="817" y="1286" type="line"/>
      <point x="385" y="567" type="line"/>
    </contour>
  </outline>
</glyph>
<glyph name="Adieresis" format="2">
  <advance width="1333"/>
  <unicode hex="00C4"/>
  <anchor x="0" y="0" name="Anchor-11"/>
  <anchor x="0" y="0" name="Anchor-10"/>
  <anchor x="946" y="1876" name="Anchor-9"/>
  <anchor x="1176" y="0" name="Anchor-8"/>
  <anchor x="553" y="0" name="Anchor-7"/>
  <outline>
    <contour>
      <point x="698" y="1683" type="line"/>
      <point x="739" y="1876" type="line"/>
      <point x="858" y="1876" type="line"/>
      <point x="817" y="1683" type="line"/>
    </contour>
    <contour>
      <point x="993" y="1683" type="line"/>
      <point x="1034" y="1876" type="line"/>
      <point x="1151" y="1876" type="line"/>
      <point x="1112" y="1683" type="line"/>
    </contour>
    <contour>
      <point x="791" y="1454" type="line"/>
      <point x="913" y="1454" type="line"/>
      <point x="1176" y="0" type="line"/>
      <point x="1024" y="0" type="line"/>
      <point x="944" y="455" type="line"/>
      <point x="332" y="455" type="line"/>
      <point x="61" y="0" type="line"/>
      <point x="-92" y="0" type="line"/>
    </contour>
    <contour>
      <point x="936" y="567" type="line"/>
      <point x="817" y="1286" type="line"/>
      <point x="385" y="567" type="line"/>
    </contour>
  </outline>
</glyph>
<glyph name="Aring" format="2">
  <advance width="1333"/>
  <unicode hex="00C5"/>
  <anchor x="0" y="0" name="Anchor-11"/>
  <anchor x="0" y="0" name="Anchor-10"/>
  <anchor x="948" y="1882" name="Anchor-9"/>
  <anchor x="1176" y="0" name="Anchor-8"/>
  <anchor x="553" y="0" name="Anchor-7"/>
  <outline>
    <contour>
      <point x="948" y="1882" type="qcurve" smooth="yes"/>
      <point x="1004" y="1882"/>
      <point x="1067" y="1824"/>
      <point x="1067" y="1774" type="qcurve" smooth="yes"/>
      <point x="1067" y="1705"/>
      <point x="964" y="1614"/>
      <point x="889" y="1614" type="qcurve" smooth="yes"/>
      <point x="835" y="1614"/>
      <point x="770" y="1673"/>
      <point x="770" y="1722" type="qcurve" smooth="yes"/>
      <point x="770" y="1791"/>
      <point x="874" y="1882"/>
    </contour>
    <contour>
      <point x="840" y="1733" type="qcurve" smooth="yes"/>
      <point x="840" y="1706"/>
      <point x="875" y="1669"/>
      <point x="903" y="1669" type="qcurve" smooth="yes"/>
      <point x="938" y="1669"/>
      <point x="1001" y="1724"/>
      <point x="1001" y="1763" type="qcurve" smooth="yes"/>
      <point x="1001" y="1792"/>
      <point x="965" y="1827"/>
      <point x="936" y="1827" type="qcurve" smooth="yes"/>
      <point x="898" y="1827"/>
      <point x="840" y="1773"/>
    </contour>
    <contour>
      <point x="791" y="1454" type="line"/>
      <point x="913" y="1454" type="line"/>
      <point x="1176" y="0" type="line"/>
      <point x="1024" y="0" type="line"/>
      <point x="944" y="455" type="line"/>
      <point x="332" y="455" type="line"/>
      <point x="61" y="0" type="line"/>
      <point x="-92" y="0" type="line"/>
    </contour>
    <contour>
      <point x="936" y="567" type="line"/>
      <point x="817" y="1286" type="line"/>
      <point x="385" y="567" type="line"/>
    </contour>
  </outline>
</glyph>
<glyph name="Ccedilla" format="2">
  <advance width="1343"/>
  <unicode hex="00C7"/>
  <anchor x="0" y="0" name="Anchor-11"/>
  <anchor x="0" y="0" name="Anchor-10"/>
  <anchor x="868" y="1454" name="Anchor-9"/>
  <anchor x="0" y="0" name="Anchor-8"/>
  <anchor x="559" y="0" name="Anchor-7"/>
  <outline>
    <contour>
      <point x="893" y="1333" type="qcurve" smooth="yes"/>
      <point x="772" y="1333"/>
      <point x="559" y="1246"/>
      <point x="406" y="1099"/>
      <point x="295" y="911"/>
      <point x="240" y="705"/>
      <point x="240" y="604" type="qcurve" smooth="yes"/>
      <point x="240" y="470"/>
      <point x="333" y="251"/>
      <point x="521" y="117"/>
      <point x="647" y="117" type="qcurve" smooth="yes"/>
      <point x="772" y="117"/>
      <point x="1027" y="254"/>
      <point x="1116" y="387" type="qcurve"/>
      <point x="1223" y="326" type="line"/>
      <point x="1122" y="165"/>
      <point x="797" y="-9"/>
      <point x="631" y="-12" type="qcurve"/>
      <point x="688" y="-79"/>
      <point x="688" y="-154" type="qcurve" smooth="yes"/>
      <point x="688" y="-253"/>
      <point x="560" y="-369"/>
      <point x="455" y="-369" type="qcurve" smooth="yes"/>
      <point x="347" y="-369"/>
      <point x="262" y="-311" type="qcurve"/>
      <point x="319" y="-231" type="line"/>
      <point x="391" y="-276"/>
      <point x="455" y="-276" type="qcurve" smooth="yes"/>
      <point x="523" y="-276"/>
      <point x="604" y="-205"/>
      <point x="604" y="-145" type="qcurve" smooth="yes"/>
      <point x="604" y="-72"/>
      <point x="520" y="-4" type="qcurve"/>
      <point x="386" y="22"/>
      <point x="189" y="205"/>
      <point x="96" y="453"/>
      <point x="96" y="592" type="qcurve" smooth="yes"/>
      <point x="96" y="714"/>
      <point x="171" y="964"/>
      <point x="316" y="1186"/>
      <point x="510" y="1360"/>
      <point x="769" y="1462"/>
      <point x="911" y="1462" type="qcurve" smooth="yes"/>
      <point x="1101" y="1462"/>
      <point x="1333" y="1289"/>
      <point x="1370" y="1145" type="qcurve"/>
      <point x="1249" y="1079" type="line"/>
      <point x="1176" y="1333"/>
    </contour>
  </outline>
</glyph>
<glyph name="Eacute" format="2">
  <advance width="1191"/>
  <unicode hex="00C9"/>
  <anchor x="0" y="0" name="Anchor-11"/>
  <anchor x="0" y="0" name="Anchor-10"/>
  <anchor x="889" y="1882" name="Anchor-9"/>
  <anchor x="979" y="0" name="Anchor-8"/>
  <anchor x="483" y="0" name="Anchor-7"/>
  <outline>
    <contour>
      <point x="862" y="1657" type="line"/>
      <point x="776" y="1692" type="line"/>
      <point x="932" y="1882" type="line"/>
      <point x="1077" y="1882" type="line"/>
    </contour>
    <contour>
      <point x="358" y="1454" type="line"/>
      <point x="1270" y="1454" type="line"/>
      <point x="1243" y="1327" type="line"/>
      <point x="473" y="1327" type="line"/>
      <point x="360" y="803" type="line"/>
      <point x="1032" y="803" type="line"/>
      <point x="1008" y="682" type="line"/>
      <point x="336" y="682" type="line"/>
      <point x="217" y="127" type="line"/>
      <point x="1006" y="127" type="line"/>
      <point x="979" y="0" type="line"/>
      <point x="49" y="0" type="line"/>
    </contour>
  </outline>
</glyph>
<glyph name="Ecircumflex" format="2">
  <advance width="1191"/>
  <unicode hex="00CA"/>
  <anchor x="0" y="0" name="Anchor-11"/>
  <anchor x="0" y="0" name="Anchor-10"/>
  <anchor x="866" y="1864" name="Anchor-9"/>
  <anchor x="979" y="0" name="Anchor-8"/>
  <anchor x="483" y="0" name="Anchor-7"/>
  <outline>
    <contour>
      <point x="598" y="1690" type="line"/>
      <point x="829" y="1864" type="line"/>
      <point x="930" y="1864" type="line"/>
      <point x="1085" y="1690" type="line"/>
      <point x="999" y="1649" type="line"/>
      <point x="860" y="1778" type="line"/>
      <point x="668" y="1649" type="line"/>
    </contour>
    <contour>
      <point x="358" y="1454" type="line"/>
      <point x="1270" y="1454" type="line"/>
      <point x="1243" y="1327" type="line"/>
      <point x="473" y="1327" type="line"/>
      <point x="360" y="803" type="line"/>
      <point x="1032" y="803" type="line"/>
      <point x="1008" y="682" type="line"/>
      <point x="336" y="682" type="line"/>
      <point x="217" y="127" type="line"/>
      <point x="1006" y="127" type="line"/>
      <point x="979" y="0" type="line"/>
      <point x="49" y="0" type="line"/>
    </contour>
  </outline>
</glyph>
<glyph name="Igrave" format="2">
  <advance width="501"/>
  <unicode hex="00CC"/>
  <anchor x="0" y="0" name="Anchor-11"/>
  <anchor x="0" y="0" name="Anchor-10"/>
  <anchor x="395" y="1880" name="Anchor-9"/>
  <anchor x="190" y="0" name="Anchor-8"/>
  <anchor x="121" y="0" name="Anchor-7"/>
  <outline>
    <contour>
      <point x="260" y="1880" type="line"/>
      <point x="403" y="1880" type="line"/>
      <point x="481" y="1690" type="line"/>
      <point x="381" y="1655" type="line"/>
    </contour>
    <contour>
      <point x="358" y="1452" type="line"/>
      <point x="500" y="1452" type="line"/>
      <point x="190" y="0" type="line"/>
      <point x="49" y="0" type="line"/>
    </contour>
  </outline>
</glyph>
<glyph name="Iacute" format="2">
  <advance width="501"/>
  <unicode hex="00CD"/>
  <anchor x="0" y="0" name="Anchor-11"/>
  <anchor x="0" y="0" name="Anchor-10"/>
  <anchor x="526" y="1880" name="Anchor-9"/>
  <anchor x="190" y="0" name="Anchor-8"/>
  <anchor x="121" y="0" name="Anchor-7"/>
  <outline>
    <contour>
      <point x="500" y="1655" type="line"/>
      <point x="414" y="1690" type="line"/>
      <point x="569" y="1880" type="line"/>
      <point x="715" y="1880" type="line"/>
    </contour>
    <contour>
      <point x="358" y="1452" type="line"/>
      <point x="500" y="1452" type="line"/>
      <point x="190" y="0" type="line"/>
      <point x="49" y="0" type="line"/>
    </contour>
  </outline>
</glyph>
<glyph name="Icircumflex" format="2">
  <advance width="501"/>
  <unicode hex="00CE"/>
  <anchor x="0" y="0" name="Anchor-11"/>
  <anchor x="0" y="0" name="Anchor-10"/>
  <anchor x="504" y="1862" name="Anchor-9"/>
  <anchor x="190" y="0" name="Anchor-8"/>
  <anchor x="121" y="0" name="Anchor-7"/>
  <outline>
    <contour>
      <point x="236" y="1688" type="line"/>
      <point x="467" y="1862" type="line"/>
      <point x="567" y="1862" type="line"/>
      <point x="723" y="1688" type="line"/>
      <point x="637" y="1647" type="line"/>
      <point x="498" y="1776" type="line"/>
      <point x="305" y="1647" type="line"/>
    </contour>
    <contour>
      <point x="358" y="1452" type="line"/>
      <point x="500" y="1452" type="line"/>
      <point x="190" y="0" type="line"/>
      <point x="49" y="0" type="line"/>
    </contour>
  </outline>
</glyph>
<glyph name="Idieresis" format="2">
  <advance width="501"/>
  <unicode hex="00CF"/>
  <anchor x="0" y="0" name="Anchor-11"/>
  <anchor x="0" y="0" name="Anchor-10"/>
  <anchor x="518" y="1874" name="Anchor-9"/>
  <anchor x="190" y="0" name="Anchor-8"/>
  <anchor x="121" y="0" name="Anchor-7"/>
  <outline>
    <contour>
      <point x="270" y="1681" type="line"/>
      <point x="311" y="1874" type="line"/>
      <point x="430" y="1874" type="line"/>
      <point x="389" y="1681" type="line"/>
    </contour>
    <contour>
      <point x="565" y="1681" type="line"/>
      <point x="606" y="1874" type="line"/>
      <point x="723" y="1874" type="line"/>
      <point x="684" y="1681" type="line"/>
    </contour>
    <contour>
      <point x="358" y="1452" type="line"/>
      <point x="500" y="1452" type="line"/>
      <point x="190" y="0" type="line"/>
      <point x="49" y="0" type="line"/>
    </contour>
  </outline>
</glyph>
<glyph name="Eth" format="2">
  <advance width="1427"/>
  <unicode hex="00D0"/>
  <outline>
    <contour>
      <point x="844" y="1454" type="line" smooth="yes"/>
      <point x="976" y="1454"/>
      <point x="1182" y="1368"/>
      <point x="1309" y="1215"/>
      <point x="1374" y="1016"/>
      <point x="1374" y="897" type="qcurve" smooth="yes"/>
      <point x="1374" y="707"/>
      <point x="1246" y="374"/>
      <point x="1024" y="137"/>
      <point x="713" y="0"/>
      <point x="535" y="0" type="qcurve" smooth="yes"/>
      <point x="63" y="0" type="line"/>
      <point x="207" y="676" type="line"/>
      <point x="88" y="676" type="line"/>
      <point x="113" y="786" type="line"/>
      <point x="231" y="786" type="line"/>
      <point x="373" y="1454" type="line"/>
    </contour>
    <contour>
      <point x="561" y="127" type="line" smooth="yes"/>
      <point x="711" y="127"/>
      <point x="965" y="250"/>
      <point x="1133" y="457"/>
      <point x="1227" y="726"/>
      <point x="1227" y="874" type="qcurve" smooth="yes"/>
      <point x="1227" y="1079"/>
      <point x="1013" y="1327"/>
      <point x="815" y="1327" type="qcurve" smooth="yes"/>
      <point x="487" y="1327" type="line"/>
      <point x="373" y="786" type="line"/>
      <point x="700" y="786" type="line"/>
      <point x="678" y="676" type="line"/>
      <point x="348" y="676" type="line"/>
      <point x="231" y="127" type="line"/>
    </contour>
  </outline>
</glyph>
<glyph name="Ntilde" format="2">
  <advance width="1515"/>
  <unicode hex="00D1"/>
  <anchor x="0" y="0" name="Anchor-11"/>
  <anchor x="0" y="0" name="Anchor-10"/>
  <anchor x="1057" y="1878" name="Anchor-9"/>
  <anchor x="0" y="0" name="Anchor-8"/>
  <anchor x="647" y="0" name="Anchor-7"/>
  <outline>
    <contour>
      <point x="903" y="1772" type="qcurve" smooth="yes"/>
      <point x="865" y="1772"/>
      <point x="808" y="1724"/>
      <point x="788" y="1684"/>
      <point x="786" y="1673" type="qcurve"/>
      <point x="700" y="1673" type="line"/>
      <point x="703" y="1688"/>
      <point x="732" y="1743"/>
      <point x="783" y="1814"/>
      <point x="871" y="1864"/>
      <point x="922" y="1864" type="qcurve" smooth="yes"/>
      <point x="968" y="1864"/>
      <point x="1043" y="1821"/>
      <point x="1112" y="1778"/>
      <point x="1151" y="1778" type="qcurve" smooth="yes"/>
      <point x="1180" y="1778"/>
      <point x="1228" y="1798"/>
      <point x="1255" y="1823"/>
      <point x="1276" y="1856"/>
      <point x="1283" y="1873"/>
      <point x="1284" y="1878" type="qcurve"/>
      <point x="1370" y="1878" type="line"/>
      <point x="1368" y="1867"/>
      <point x="1351" y="1829"/>
      <point x="1312" y="1772"/>
      <point x="1261" y="1724"/>
      <point x="1181" y="1690"/>
      <point x="1135" y="1690" type="qcurve" smooth="yes"/>
      <point x="1086" y="1690"/>
      <point x="1006" y="1731"/>
      <point x="937" y="1772"/>
    </contour>
    <contour>
      <point x="358" y="1454" type="line"/>
      <point x="469" y="1454" type="line"/>
      <point x="1116" y="244" type="line"/>
      <point x="1372" y="1452" type="line"/>
      <point x="1513" y="1452" type="line"/>
      <point x="1204" y="0" type="line"/>
      <point x="1083" y="0" type="line"/>
      <point x="442" y="1188" type="line"/>
      <point x="190" y="0" type="line"/>
      <point x="49" y="0" type="line"/>
    </contour>
  </outline>
</glyph>
<glyph name="Otilde" format="2">
  <advance width="1478"/>
  <unicode hex="00D5"/>
  <anchor x="1143" y="1378" name="Anchor-11"/>
  <anchor x="741" y="727" name="Anchor-10"/>
  <anchor x="1022" y="1878" name="Anchor-9"/>
  <anchor x="684" y="0" name="Anchor-8"/>
  <anchor x="635" y="0" name="Anchor-7"/>
  <outline>
    <contour>
      <point x="868" y="1772" type="qcurve" smooth="yes"/>
      <point x="839" y="1772"/>
      <point x="792" y="1745"/>
      <point x="766" y="1707"/>
      <point x="753" y="1680"/>
      <point x="752" y="1673" type="qcurve"/>
      <point x="666" y="1673" type="line"/>
      <point x="668" y="1684"/>
      <point x="686" y="1724"/>
      <point x="723" y="1781"/>
      <point x="771" y="1830"/>
      <point x="846" y="1864"/>
      <point x="887" y="1864" type="qcurve" smooth="yes"/>
      <point x="933" y="1864"/>
      <point x="1008" y="1821"/>
      <point x="1077" y="1778"/>
      <point x="1116" y="1778" type="qcurve" smooth="yes"/>
      <point x="1145" y="1778"/>
      <point x="1193" y="1798"/>
      <point x="1220" y="1823"/>
      <point x="1241" y="1856"/>
      <point x="1248" y="1873"/>
      <point x="1249" y="1878" type="qcurve"/>
      <point x="1335" y="1878" type="line"/>
      <point x="1333" y="1867"/>
      <point x="1316" y="1829"/>
      <point x="1277" y="1772"/>
      <point x="1226" y="1724"/>
      <point x="1146" y="1690"/>
      <point x="1100" y="1690" type="qcurve" smooth="yes"/>
      <point x="1051" y="1690"/>
      <point x="971" y="1731"/>
      <point x="902" y="1772"/>
    </contour>
    <contour>
      <point x="94" y="588" type="qcurve" smooth="yes"/>
      <point x="94" y="754"/>
      <point x="232" y="1076"/>
      <point x="457" y="1316"/>
      <point x="760" y="1464"/>
      <point x="918" y="1464" type="qcurve" smooth="yes"/>
      <point x="1041" y="1464"/>
      <point x="1240" y="1363"/>
      <point x="1364" y="1193"/>
      <point x="1430" y="979"/>
      <point x="1430" y="862" type="qcurve" smooth="yes"/>
      <point x="1430" y="697"/>
      <point x="1293" y="377"/>
      <point x="1070" y="137"/>
      <point x="768" y="-10"/>
      <point x="610" y="-10" type="qcurve" smooth="yes"/>
      <point x="487" y="-10"/>
      <point x="287" y="89"/>
      <point x="161" y="257"/>
      <point x="94" y="470"/>
    </contour>
    <contour>
      <point x="1286" y="852" type="qcurve" smooth="yes"/>
      <point x="1286" y="949"/>
      <point x="1235" y="1121"/>
      <point x="1139" y="1255"/>
      <point x="985" y="1333"/>
      <point x="889" y="1333" type="qcurve" smooth="yes"/>
      <point x="783" y="1333"/>
      <point x="583" y="1250"/>
      <point x="425" y="1105"/>
      <point x="305" y="920"/>
      <point x="240" y="706"/>
      <point x="240" y="600" type="qcurve" smooth="yes"/>
      <point x="240" y="502"/>
      <point x="291" y="331"/>
      <point x="388" y="197"/>
      <point x="542" y="119"/>
      <point x="639" y="119" type="qcurve" smooth="yes"/>
      <point x="745" y="119"/>
      <point x="945" y="203"/>
      <point x="1102" y="349"/>
      <point x="1222" y="534"/>
      <point x="1286" y="747"/>
    </contour>
  </outline>
</glyph>
<glyph name="multiply" format="2">
  <advance width="958"/>
  <unicode hex="00D7"/>
  <outline>
    <contour>
      <point x="803" y="309" type="line"/>
      <point x="713" y="221" type="line"/>
      <point x="463" y="469" type="line"/>
      <point x="215" y="221" type="line"/>
      <point x="127" y="311" type="line"/>
      <point x="373" y="557" type="line"/>
      <point x="129" y="805" type="line"/>
      <point x="219" y="893" type="line"/>
      <point x="463" y="647" type="line"/>
      <point x="711" y="895" type="line"/>
      <point x="799" y="805" type="line"/>
      <point x="553" y="557" type="line"/>
    </contour>
  </outline>
</glyph>
<glyph name="Oslash" format="2">
  <advance width="1478"/>
  <unicode hex="00D8"/>
  <anchor x="1143" y="1378" name="Anchor-11"/>
  <anchor x="741" y="727" name="Anchor-10"/>
  <anchor x="930" y="1450" name="Anchor-9"/>
  <anchor x="684" y="0" name="Anchor-8"/>
  <anchor x="635" y="0" name="Anchor-7"/>
  <outline>
    <contour>
      <point x="1460" y="1454" type="line"/>
      <point x="1307" y="1272" type="line"/>
      <point x="1430" y="1106"/>
      <point x="1430" y="862" type="qcurve" smooth="yes"/>
      <point x="1430" y="697"/>
      <point x="1293" y="377"/>
      <point x="1070" y="137"/>
      <point x="768" y="-10"/>
      <point x="610" y="-10" type="qcurve" smooth="yes"/>
      <point x="434" y="-10"/>
      <point x="307" y="90" type="qcurve"/>
      <point x="231" y="0" type="line"/>
      <point x="74" y="0" type="line"/>
      <point x="221" y="176" type="line"/>
      <point x="94" y="341"/>
      <point x="94" y="588" type="qcurve" smooth="yes"/>
      <point x="94" y="754"/>
      <point x="232" y="1076"/>
      <point x="457" y="1316"/>
      <point x="760" y="1464"/>
      <point x="918" y="1464" type="qcurve" smooth="yes"/>
      <point x="1099" y="1464"/>
      <point x="1225" y="1360" type="qcurve"/>
      <point x="1305" y="1454" type="line"/>
    </contour>
    <contour>
      <point x="240" y="600" type="qcurve" smooth="yes"/>
      <point x="240" y="419"/>
      <point x="319" y="291" type="qcurve"/>
      <point x="1130" y="1249" type="line"/>
      <point x="1033" y="1333"/>
      <point x="889" y="1333" type="qcurve" smooth="yes"/>
      <point x="783" y="1333"/>
      <point x="583" y="1250"/>
      <point x="425" y="1105"/>
      <point x="305" y="920"/>
      <point x="240" y="706"/>
    </contour>
    <contour>
      <point x="1286" y="852" type="qcurve" smooth="yes"/>
      <point x="1286" y="1025"/>
      <point x="1208" y="1157" type="qcurve"/>
      <point x="399" y="201" type="line"/>
      <point x="500" y="119"/>
      <point x="639" y="119" type="qcurve" smooth="yes"/>
      <point x="745" y="119"/>
      <point x="945" y="203"/>
      <point x="1102" y="349"/>
      <point x="1222" y="534"/>
      <point x="1286" y="747"/>
    </contour>
  </outline>
</glyph>
<glyph name="Uacute" format="2">
  <advance width="1482"/>
  <unicode hex="00DA"/>
  <anchor x="1546" y="1378" name="Anchor-11"/>
  <anchor x="0" y="0" name="Anchor-10"/>
  <anchor x="1008" y="1878" name="Anchor-9"/>
  <anchor x="700" y="0" name="Anchor-8"/>
  <anchor x="618" y="0" name="Anchor-7"/>
  <outline>
    <contour>
      <point x="981" y="1653" type="line"/>
      <point x="895" y="1688" type="line"/>
      <point x="1051" y="1878" type="line"/>
      <point x="1196" y="1878" type="line"/>
    </contour>
    <contour>
      <point x="154" y="471" type="qcurve" smooth="yes"/>
      <point x="154" y="587"/>
      <point x="182" y="721" type="qcurve" smooth="yes"/>
      <point x="338" y="1454" type="line"/>
      <point x="479" y="1454" type="line"/>
      <point x="324" y="721" type="line" smooth="yes"/>
      <point x="297" y="589"/>
      <point x="297" y="494" type="qcurve" smooth="yes"/>
      <point x="297" y="412"/>
      <point x="332" y="281"/>
      <point x="408" y="176"/>
      <point x="541" y="119"/>
      <point x="633" y="119" type="qcurve" smooth="yes"/>
      <point x="733" y="119"/>
      <point x="905" y="188"/>
      <point x="1027" y="303"/>
      <point x="1125" y="462"/>
      <point x="1185" y="628"/>
      <point x="1204" y="721" type="qcurve" smooth="yes"/>
      <point x="1360" y="1454" type="line"/>
      <point x="1501" y="1454" type="line"/>
      <point x="1348" y="721" type="line" smooth="yes"/>
      <point x="1322" y="600"/>
      <point x="1238" y="388"/>
      <point x="1110" y="201"/>
      <point x="949" y="67"/>
      <point x="734" y="-10"/>
      <point x="486" y="-10"/>
      <point x="306" y="64"/>
      <point x="202" y="199"/>
      <point x="154" y="367"/>
    </contour>
  </outline>
</glyph>
<glyph name="Yacute" format="2">
  <advance width="1243"/>
  <unicode hex="00DD"/>
  <anchor x="0" y="0" name="Anchor-11"/>
  <anchor x="0" y="0" name="Anchor-10"/>
  <anchor x="864" y="1878" name="Anchor-9"/>
  <anchor x="0" y="0" name="Anchor-8"/>
  <anchor x="0" y="0" name="Anchor-7"/>
  <outline>
    <contour>
      <point x="838" y="1653" type="line"/>
      <point x="752" y="1688" type="line"/>
      <point x="907" y="1878" type="line"/>
      <point x="1053" y="1878" type="line"/>
    </contour>
    <contour>
      <point x="526" y="545" type="line"/>
      <point x="186" y="1454" type="line"/>
      <point x="344" y="1454" type="line"/>
      <point x="625" y="672" type="line"/>
      <point x="1239" y="1454" type="line"/>
      <point x="1395" y="1454" type="line"/>
      <point x="666" y="541" type="line"/>
      <point x="551" y="0" type="line"/>
      <point x="410" y="0" type="line"/>
    </contour>
  </outline>
</glyph>
<glyph name="Thorn" format="2">
  <advance width="1185"/>
  <unicode hex="00DE"/>
  <outline>
    <contour>
      <point x="358" y="1454" type="line"/>
      <point x="500" y="1454" type="line"/>
      <point x="438" y="1165" type="line"/>
      <point x="834" y="1165" type="line" smooth="yes"/>
      <point x="933" y="1165"/>
      <point x="1083" y="1056"/>
      <point x="1157" y="885"/>
      <point x="1157" y="786" type="qcurve" smooth="yes"/>
      <point x="1157" y="656"/>
      <point x="1020" y="407"/>
      <point x="782" y="248"/>
      <point x="649" y="248" type="qcurve" smooth="yes"/>
      <point x="244" y="248" type="line"/>
      <point x="190" y="0" type="line"/>
      <point x="49" y="0" type="line"/>
    </contour>
    <contour>
      <point x="672" y="377" type="line" smooth="yes"/>
      <point x="763" y="377"/>
      <point x="923" y="496"/>
      <point x="1014" y="678"/>
      <point x="1014" y="772" type="qcurve" smooth="yes"/>
      <point x="1014" y="883"/>
      <point x="894" y="1038"/>
      <point x="799" y="1038" type="qcurve" smooth="yes"/>
      <point x="412" y="1038" type="line"/>
      <point x="270" y="377" type="line"/>
    </contour>
  </outline>
</glyph>
<glyph name="germandbls" format="2">
  <advance width="1083"/>
  <unicode hex="00DF"/>
  <outline>
    <contour>
      <point x="362" y="117" type="line"/>
      <point x="576" y="120"/>
      <point x="829" y="316"/>
      <point x="829" y="500" type="qcurve" smooth="yes"/>
      <point x="829" y="616"/>
      <point x="690" y="754"/>
      <point x="569" y="754" type="qcurve" smooth="yes"/>
      <point x="532" y="754" type="line"/>
      <point x="561" y="881" type="line"/>
      <point x="596" y="881" type="line" smooth="yes"/>
      <point x="714" y="881"/>
      <point x="883" y="1041"/>
      <point x="883" y="1157" type="qcurve" smooth="yes"/>
      <point x="883" y="1242"/>
      <point x="774" y="1339"/>
      <point x="688" y="1339" type="qcurve" smooth="yes"/>
      <point x="567" y="1339"/>
      <point x="400" y="1168"/>
      <point x="371" y="1034" type="qcurve" smooth="yes"/>
      <point x="152" y="0" type="line"/>
      <point x="18" y="0" type="line"/>
      <point x="242" y="1055" type="line" smooth="yes"/>
      <point x="280" y="1236"/>
      <point x="548" y="1462"/>
      <point x="721" y="1462" type="qcurve" smooth="yes"/>
      <point x="856" y="1462"/>
      <point x="1022" y="1312"/>
      <point x="1022" y="1192" type="qcurve" smooth="yes"/>
      <point x="1022" y="1069"/>
      <point x="851" y="852"/>
      <point x="743" y="825" type="qcurve"/>
      <point x="854" y="799"/>
      <point x="973" y="628"/>
      <point x="973" y="508" type="qcurve" smooth="yes"/>
      <point x="973" y="349"/>
      <point x="807" y="115"/>
      <point x="522" y="-6"/>
      <point x="334" y="-12" type="qcurve"/>
    </contour>
  </outline>
</glyph>
<glyph name="atilde" format="2">
  <advance width="1224"/>
  <unicode hex="00E3"/>
  <anchor x="0" y="0" name="Anchor-11"/>
  <anchor x="0" y="0" name="Anchor-10"/>
  <anchor x="817" y="1495" name="Anchor-9"/>
  <anchor x="983" y="0" name="Anchor-8"/>
  <anchor x="500" y="0" name="Anchor-7"/>
  <outline>
    <contour>
      <point x="664" y="1389" type="qcurve" smooth="yes"/>
      <point x="626" y="1389"/>
      <point x="569" y="1341"/>
      <point x="549" y="1301"/>
      <point x="547" y="1290" type="qcurve"/>
      <point x="461" y="1290" type="line"/>
      <point x="463" y="1301"/>
      <point x="481" y="1341"/>
      <point x="518" y="1398"/>
      <point x="566" y="1447"/>
      <point x="641" y="1481"/>
      <point x="682" y="1481" type="qcurve" smooth="yes"/>
      <point x="728" y="1481"/>
      <point x="803" y="1438"/>
      <point x="872" y="1395"/>
      <point x="911" y="1395" type="qcurve" smooth="yes"/>
      <point x="940" y="1395"/>
      <point x="988" y="1415"/>
      <point x="1015" y="1440"/>
      <point x="1036" y="1473"/>
      <point x="1043" y="1490"/>
      <point x="1044" y="1495" type="qcurve"/>
      <point x="1130" y="1495" type="line"/>
      <point x="1128" y="1484"/>
      <point x="1111" y="1446"/>
      <point x="1072" y="1389"/>
      <point x="1021" y="1341"/>
      <point x="941" y="1307"/>
      <point x="895" y="1307" type="qcurve" smooth="yes"/>
      <point x="856" y="1307"/>
      <point x="788" y="1333"/>
      <point x="747" y="1363"/>
      <point x="692" y="1389"/>
    </contour>
    <contour>
      <point x="51" y="426" type="qcurve" smooth="yes"/>
      <point x="51" y="592"/>
      <point x="217" y="898"/>
      <point x="492" y="1085"/>
      <point x="643" y="1085" type="qcurve" smooth="yes"/>
      <point x="766" y="1085"/>
      <point x="937" y="950"/>
      <point x="975" y="844" type="qcurve"/>
      <point x="1024" y="1067" type="line"/>
      <point x="1163" y="1067" type="line"/>
      <point x="975" y="182" type="line" smooth="yes"/>
      <point x="971" y="166"/>
      <point x="971" y="156" type="qcurve" smooth="yes"/>
      <point x="971" y="123"/>
      <point x="1010" y="123" type="qcurve"/>
      <point x="983" y="0" type="line"/>
      <point x="973" y="-1"/>
      <point x="936" y="-6"/>
      <point x="928" y="-6" type="qcurve" smooth="yes"/>
      <point x="883" y="-3"/>
      <point x="834" y="41"/>
      <point x="834" y="76" type="qcurve" smooth="yes"/>
      <point x="834" y="94"/>
      <point x="856" y="207" type="qcurve"/>
      <point x="774" y="103"/>
      <point x="543" y="-20"/>
      <point x="430" y="-20" type="qcurve" smooth="yes"/>
      <point x="315" y="-20"/>
      <point x="139" y="104"/>
      <point x="51" y="305"/>
    </contour>
    <contour>
      <point x="874" y="367" type="qcurve"/>
      <point x="942" y="696" type="line"/>
      <point x="928" y="806"/>
      <point x="763" y="963"/>
      <point x="655" y="963" type="qcurve" smooth="yes"/>
      <point x="537" y="963"/>
      <point x="322" y="808"/>
      <point x="197" y="569"/>
      <point x="197" y="446" type="qcurve" smooth="yes"/>
      <point x="197" y="302"/>
      <point x="359" y="102"/>
      <point x="487" y="102" type="qcurve" smooth="yes"/>
      <point x="592" y="102"/>
      <point x="836" y="262"/>
    </contour>
  </outline>
</glyph>
<glyph name="ccedilla" format="2">
  <advance width="1077"/>
  <unicode hex="00E7"/>
  <anchor x="0" y="0" name="Anchor-11"/>
  <anchor x="0" y="0" name="Anchor-10"/>
  <anchor x="688" y="1067" name="Anchor-9"/>
  <anchor x="0" y="0" name="Anchor-8"/>
  <anchor x="483" y="0" name="Anchor-7"/>
  <outline>
    <contour>
      <point x="477" y="102" type="qcurve" smooth="yes"/>
      <point x="574" y="102"/>
      <point x="770" y="211"/>
      <point x="807" y="285" type="qcurve"/>
      <point x="936" y="244" type="line"/>
      <point x="881" y="147"/>
      <point x="675" y="10"/>
      <point x="555" y="-12" type="qcurve"/>
      <point x="612" y="-79"/>
      <point x="612" y="-154" type="qcurve" smooth="yes"/>
      <point x="612" y="-253"/>
      <point x="484" y="-369"/>
      <point x="379" y="-369" type="qcurve" smooth="yes"/>
      <point x="271" y="-369"/>
      <point x="186" y="-311" type="qcurve"/>
      <point x="244" y="-231" type="line"/>
      <point x="281" y="-254"/>
      <point x="340" y="-276"/>
      <point x="379" y="-276" type="qcurve" smooth="yes"/>
      <point x="447" y="-276"/>
      <point x="528" y="-205"/>
      <point x="528" y="-145" type="qcurve" smooth="yes"/>
      <point x="528" y="-82"/>
      <point x="463" y="-20" type="qcurve"/>
      <point x="461" y="-20" type="line" smooth="yes"/>
      <point x="273" y="-20"/>
      <point x="51" y="238"/>
      <point x="51" y="432" type="qcurve" smooth="yes"/>
      <point x="51" y="602"/>
      <point x="221" y="903"/>
      <point x="516" y="1085"/>
      <point x="688" y="1085" type="qcurve" smooth="yes"/>
      <point x="833" y="1085"/>
      <point x="1021" y="950"/>
      <point x="1051" y="831" type="qcurve"/>
      <point x="907" y="788" type="line"/>
      <point x="881" y="873"/>
      <point x="757" y="963"/>
      <point x="579" y="963"/>
      <point x="406" y="881"/>
      <point x="275" y="744"/>
      <point x="195" y="553"/>
      <point x="195" y="451" type="qcurve" smooth="yes"/>
      <point x="195" y="300"/>
      <point x="352" y="102"/>
    </contour>
  </outline>
</glyph>
<glyph name="ecircumflex" format="2">
  <advance width="1093"/>
  <unicode hex="00EA"/>
  <anchor x="0" y="0" name="Anchor-11"/>
  <anchor x="0" y="0" name="Anchor-10"/>
  <anchor x="766" y="1477" name="Anchor-9"/>
  <anchor x="580" y="0" name="Anchor-8"/>
  <anchor x="465" y="0" name="Anchor-7"/>
  <outline>
    <contour>
      <point x="760" y="1391" type="line"/>
      <point x="567" y="1262" type="line"/>
      <point x="498" y="1303" type="line"/>
      <point x="729" y="1477" type="line"/>
      <point x="829" y="1477" type="line"/>
      <point x="985" y="1303" type="line"/>
      <point x="899" y="1262" type="line"/>
    </contour>
    <contour>
      <point x="465" y="481" type="qcurve" smooth="yes"/>
      <point x="384" y="481"/>
      <point x="197" y="492" type="qcurve"/>
      <point x="193" y="452"/>
      <point x="193" y="432" type="qcurve" smooth="yes"/>
      <point x="193" y="283"/>
      <point x="345" y="86"/>
      <point x="487" y="86" type="qcurve" smooth="yes"/>
      <point x="587" y="86"/>
      <point x="784" y="196"/>
      <point x="836" y="285" type="qcurve"/>
      <point x="950" y="250" type="line"/>
      <point x="876" y="129"/>
      <point x="608" y="-20"/>
      <point x="463" y="-20" type="qcurve" smooth="yes"/>
      <point x="272" y="-20"/>
      <point x="51" y="237"/>
      <point x="51" y="432" type="qcurve" smooth="yes"/>
      <point x="51" y="557"/>
      <point x="149" y="794"/>
      <point x="317" y="975"/>
      <point x="557" y="1085"/>
      <point x="690" y="1085" type="qcurve" smooth="yes"/>
      <point x="838" y="1085"/>
      <point x="1034" y="935"/>
      <point x="1034" y="799" type="qcurve" smooth="yes"/>
      <point x="1034" y="481"/>
    </contour>
    <contour>
      <point x="680" y="977" type="qcurve" smooth="yes"/>
      <point x="562" y="977"/>
      <point x="366" y="865"/>
      <point x="246" y="696"/>
      <point x="217" y="592" type="qcurve"/>
      <point x="380" y="582"/>
      <point x="471" y="582" type="qcurve" smooth="yes"/>
      <point x="907" y="582"/>
      <point x="907" y="801" type="qcurve" smooth="yes"/>
      <point x="907" y="889"/>
      <point x="779" y="977"/>
    </contour>
  </outline>
</glyph>
<glyph name="igrave" format="2">
  <advance width="436"/>
  <unicode hex="00EC"/>
  <anchor x="0" y="0" name="Anchor-11"/>
  <anchor x="0" y="0" name="Anchor-10"/>
  <anchor x="494" y="1444" name="Anchor-9"/>
  <anchor x="281" y="20" name="Anchor-8"/>
  <anchor x="86" y="0" name="Anchor-7"/>
  <outline>
    <contour>
      <point x="358" y="1444" type="line"/>
      <point x="502" y="1444" type="line"/>
      <point x="580" y="1253" type="line"/>
      <point x="479" y="1219" type="line"/>
    </contour>
    <contour>
      <point x="244" y="1067" type="line"/>
      <point x="383" y="1067" type="line"/>
      <point x="158" y="0" type="line"/>
      <point x="18" y="0" type="line"/>
    </contour>
  </outline>
</glyph>
<glyph name="iacute" format="2">
  <advance width="436"/>
  <unicode hex="00ED"/>
  <anchor x="0" y="0" name="Anchor-11"/>
  <anchor x="0" y="0" name="Anchor-10"/>
  <anchor x="410" y="1495" name="Anchor-9"/>
  <anchor x="281" y="20" name="Anchor-8"/>
  <anchor x="86" y="0" name="Anchor-7"/>
  <outline>
    <contour>
      <point x="383" y="1270" type="line"/>
      <point x="297" y="1305" type="line"/>
      <point x="453" y="1495" type="line"/>
      <point x="598" y="1495" type="line"/>
    </contour>
    <contour>
      <point x="244" y="1067" type="line"/>
      <point x="383" y="1067" type="line"/>
      <point x="158" y="0" type="line"/>
      <point x="18" y="0" type="line"/>
    </contour>
  </outline>
</glyph>
<glyph name="icircumflex" format="2">
  <advance width="436"/>
  <unicode hex="00EE"/>
  <anchor x="0" y="0" name="Anchor-11"/>
  <anchor x="0" y="0" name="Anchor-10"/>
  <anchor x="387" y="1477" name="Anchor-9"/>
  <anchor x="281" y="20" name="Anchor-8"/>
  <anchor x="86" y="0" name="Anchor-7"/>
  <outline>
    <contour>
      <point x="119" y="1303" type="line"/>
      <point x="350" y="1477" type="line"/>
      <point x="451" y="1477" type="line"/>
      <point x="606" y="1303" type="line"/>
      <point x="520" y="1262" type="line"/>
      <point x="381" y="1391" type="line"/>
      <point x="188" y="1262" type="line"/>
    </contour>
    <contour>
      <point x="244" y="1067" type="line"/>
      <point x="383" y="1067" type="line"/>
      <point x="158" y="0" type="line"/>
      <point x="18" y="0" type="line"/>
    </contour>
  </outline>
</glyph>
<glyph name="idieresis" format="2">
  <advance width="436"/>
  <unicode hex="00EF"/>
  <anchor x="0" y="0" name="Anchor-11"/>
  <anchor x="0" y="0" name="Anchor-10"/>
  <anchor x="401" y="1489" name="Anchor-9"/>
  <anchor x="281" y="20" name="Anchor-8"/>
  <anchor x="86" y="0" name="Anchor-7"/>
  <outline>
    <contour>
      <point x="154" y="1296" type="line"/>
      <point x="195" y="1489" type="line"/>
      <point x="313" y="1489" type="line"/>
      <point x="272" y="1296" type="line"/>
    </contour>
    <contour>
      <point x="449" y="1296" type="line"/>
      <point x="489" y="1489" type="line"/>
      <point x="606" y="1489" type="line"/>
      <point x="567" y="1296" type="line"/>
    </contour>
    <contour>
      <point x="244" y="1067" type="line"/>
      <point x="383" y="1067" type="line"/>
      <point x="158" y="0" type="line"/>
      <point x="18" y="0" type="line"/>
    </contour>
  </outline>
</glyph>
<glyph name="eth" format="2">
  <advance width="1185"/>
  <unicode hex="00F0"/>
  <outline>
    <contour>
      <point x="1135" y="1399" type="line"/>
      <point x="948" y="1292" type="line"/>
      <point x="1110" y="1061"/>
      <point x="1110" y="760" type="qcurve" smooth="yes"/>
      <point x="1110" y="587"/>
      <point x="994" y="288"/>
      <point x="804" y="91"/>
      <point x="567" y="-20"/>
      <point x="444" y="-20" type="qcurve" smooth="yes"/>
      <point x="268" y="-20"/>
      <point x="43" y="217"/>
      <point x="43" y="391" type="qcurve" smooth="yes"/>
      <point x="43" y="503"/>
      <point x="145" y="718"/>
      <point x="309" y="875"/>
      <point x="526" y="971"/>
      <point x="635" y="971" type="qcurve" smooth="yes"/>
      <point x="762" y="971"/>
      <point x="945" y="839"/>
      <point x="975" y="731" type="qcurve"/>
      <point x="978" y="788"/>
      <point x="971" y="860" type="qcurve" smooth="yes"/>
      <point x="955" y="1069"/>
      <point x="831" y="1237" type="qcurve"/>
      <point x="592" y="1098" type="line"/>
      <point x="561" y="1161" type="line"/>
      <point x="788" y="1292" type="line"/>
      <point x="705" y="1391"/>
      <point x="555" y="1495" type="qcurve"/>
      <point x="748" y="1495" type="line"/>
      <point x="835" y="1433"/>
      <point x="907" y="1348" type="qcurve"/>
      <point x="1104" y="1460" type="line"/>
    </contour>
    <contour>
      <point x="475" y="102" type="qcurve" smooth="yes"/>
      <point x="588" y="102"/>
      <point x="801" y="231"/>
      <point x="932" y="443"/>
      <point x="932" y="557" type="qcurve" smooth="yes"/>
      <point x="932" y="684"/>
      <point x="769" y="854"/>
      <point x="641" y="854" type="qcurve" smooth="yes"/>
      <point x="557" y="854"/>
      <point x="390" y="781"/>
      <point x="264" y="660"/>
      <point x="186" y="495"/>
      <point x="186" y="408" type="qcurve" smooth="yes"/>
      <point x="186" y="278"/>
      <point x="348" y="102"/>
    </contour>
  </outline>
</glyph>
<glyph name="ntilde" format="2">
  <advance width="1144"/>
  <unicode hex="00F1"/>
  <anchor x="0" y="0" name="Anchor-11"/>
  <anchor x="0" y="0" name="Anchor-10"/>
  <anchor x="872" y="1495" name="Anchor-9"/>
  <anchor x="0" y="0" name="Anchor-8"/>
  <anchor x="467" y="0" name="Anchor-7"/>
  <outline>
    <contour>
      <point x="719" y="1389" type="qcurve" smooth="yes"/>
      <point x="681" y="1389"/>
      <point x="624" y="1341"/>
      <point x="604" y="1301"/>
      <point x="602" y="1290" type="qcurve"/>
      <point x="516" y="1290" type="line"/>
      <point x="518" y="1301"/>
      <point x="536" y="1341"/>
      <point x="573" y="1398"/>
      <point x="621" y="1447"/>
      <point x="696" y="1481"/>
      <point x="737" y="1481" type="qcurve" smooth="yes"/>
      <point x="783" y="1481"/>
      <point x="858" y="1438"/>
      <point x="928" y="1395"/>
      <point x="967" y="1395" type="qcurve" smooth="yes"/>
      <point x="996" y="1395"/>
      <point x="1044" y="1415"/>
      <point x="1071" y="1440"/>
      <point x="1092" y="1473"/>
      <point x="1099" y="1490"/>
      <point x="1100" y="1495" type="qcurve"/>
      <point x="1186" y="1495" type="line"/>
      <point x="1183" y="1480"/>
      <point x="1154" y="1427"/>
      <point x="1101" y="1357"/>
      <point x="1006" y="1307"/>
      <point x="950" y="1307" type="qcurve" smooth="yes"/>
      <point x="911" y="1307"/>
      <point x="843" y="1333"/>
      <point x="802" y="1363"/>
      <point x="747" y="1389"/>
    </contour>
    <contour>
      <point x="244" y="1067" type="line"/>
      <point x="373" y="1067" type="line"/>
      <point x="319" y="825" type="line"/>
      <point x="406" y="942"/>
      <point x="670" y="1085"/>
      <point x="803" y="1085" type="qcurve" smooth="yes"/>
      <point x="1034" y="1085"/>
      <point x="1034" y="831" type="qcurve" smooth="yes"/>
      <point x="1034" y="752"/>
      <point x="1008" y="625" type="qcurve" smooth="yes"/>
      <point x="877" y="0" type="line"/>
      <point x="737" y="0" type="line"/>
      <point x="864" y="596" type="line"/>
      <point x="885" y="715"/>
      <point x="885" y="770" type="qcurve" smooth="yes"/>
      <point x="885" y="958"/>
      <point x="725" y="958" type="qcurve" smooth="yes"/>
      <point x="608" y="958"/>
      <point x="359" y="783"/>
      <point x="295" y="653" type="qcurve"/>
      <point x="158" y="0" type="line"/>
      <point x="18" y="0" type="line"/>
    </contour>
  </outline>
</glyph>
<glyph name="otilde" format="2">
  <advance width="1173"/>
  <unicode hex="00F5"/>
  <anchor x="928" y="995" name="Anchor-11"/>
  <anchor x="588" y="535" name="Anchor-10"/>
  <anchor x="776" y="1495" name="Anchor-9"/>
  <anchor x="553" y="0" name="Anchor-8"/>
  <anchor x="475" y="0" name="Anchor-7"/>
  <outline>
    <contour>
      <point x="623" y="1389" type="qcurve" smooth="yes"/>
      <point x="585" y="1389"/>
      <point x="528" y="1341"/>
      <point x="508" y="1301"/>
      <point x="506" y="1290" type="qcurve"/>
      <point x="420" y="1290" type="line"/>
      <point x="422" y="1301"/>
      <point x="440" y="1341"/>
      <point x="477" y="1398"/>
      <point x="525" y="1447"/>
      <point x="600" y="1481"/>
      <point x="641" y="1481" type="qcurve" smooth="yes"/>
      <point x="687" y="1481"/>
      <point x="762" y="1438"/>
      <point x="831" y="1395"/>
      <point x="870" y="1395" type="qcurve" smooth="yes"/>
      <point x="899" y="1395"/>
      <point x="947" y="1415"/>
      <point x="975" y="1441"/>
      <point x="996" y="1473"/>
      <point x="1003" y="1490"/>
      <point x="1004" y="1495" type="qcurve"/>
      <point x="1090" y="1495" type="line"/>
      <point x="1087" y="1480"/>
      <point x="1058" y="1427"/>
      <point x="1005" y="1357"/>
      <point x="910" y="1307"/>
      <point x="854" y="1307" type="qcurve" smooth="yes"/>
      <point x="815" y="1307"/>
      <point x="747" y="1333"/>
      <point x="706" y="1363"/>
      <point x="651" y="1389"/>
    </contour>
    <contour>
      <point x="49" y="428" type="qcurve" smooth="yes"/>
      <point x="49" y="604"/>
      <point x="220" y="908"/>
      <point x="509" y="1085"/>
      <point x="674" y="1085" type="qcurve" smooth="yes"/>
      <point x="775" y="1085"/>
      <point x="934" y="1015"/>
      <point x="1035" y="891"/>
      <point x="1087" y="729"/>
      <point x="1087" y="635" type="qcurve" smooth="yes"/>
      <point x="1087" y="459"/>
      <point x="918" y="157"/>
      <point x="630" y="-20"/>
      <point x="463" y="-20" type="qcurve" smooth="yes"/>
      <point x="361" y="-20"/>
      <point x="201" y="50"/>
      <point x="101" y="173"/>
      <point x="49" y="334"/>
    </contour>
    <contour>
      <point x="944" y="614" type="qcurve" smooth="yes"/>
      <point x="944" y="768"/>
      <point x="789" y="963"/>
      <point x="649" y="963" type="qcurve" smooth="yes"/>
      <point x="563" y="963"/>
      <point x="398" y="883"/>
      <point x="271" y="747"/>
      <point x="193" y="553"/>
      <point x="193" y="446" type="qcurve" smooth="yes"/>
      <point x="193" y="292"/>
      <point x="346" y="102"/>
      <point x="487" y="102" type="qcurve" smooth="yes"/>
      <point x="574" y="102"/>
      <point x="740" y="181"/>
      <point x="866" y="315"/>
      <point x="944" y="507"/>
    </contour>
  </outline>
</glyph>
<glyph name="divide" format="2">
  <advance width="1099"/>
  <unicode hex="00F7"/>
  <outline>
    <contour>
      <point x="479" y="817" type="line"/>
      <point x="479" y="1004" type="line"/>
      <point x="600" y="1004" type="line"/>
      <point x="600" y="817" type="line"/>
    </contour>
    <contour>
      <point x="127" y="520" type="line"/>
      <point x="127" y="637" type="line"/>
      <point x="952" y="637" type="line"/>
      <point x="952" y="520" type="line"/>
    </contour>
    <contour>
      <point x="479" y="152" type="line"/>
      <point x="479" y="336" type="line"/>
      <point x="600" y="336" type="line"/>
      <point x="600" y="152" type="line"/>
    </contour>
  </outline>
</glyph>
<glyph name="udieresis" format="2">
  <advance width="1165"/>
  <unicode hex="00FC"/>
  <anchor x="1149" y="987" name="Anchor-11"/>
  <anchor x="0" y="0" name="Anchor-10"/>
  <anchor x="786" y="1489" name="Anchor-9"/>
  <anchor x="924" y="0" name="Anchor-8"/>
  <anchor x="471" y="0" name="Anchor-7"/>
  <outline>
    <contour>
      <point x="539" y="1296" type="line"/>
      <point x="580" y="1489" type="line"/>
      <point x="698" y="1489" type="line"/>
      <point x="657" y="1296" type="line"/>
    </contour>
    <contour>
      <point x="834" y="1296" type="line"/>
      <point x="874" y="1489" type="line"/>
      <point x="991" y="1489" type="line"/>
      <point x="952" y="1296" type="line"/>
    </contour>
    <contour>
      <point x="76" y="254" type="qcurve" smooth="yes"/>
      <point x="76" y="327"/>
      <point x="98" y="440" type="qcurve" smooth="yes"/>
      <point x="233" y="1067" type="line"/>
      <point x="371" y="1067" type="line"/>
      <point x="244" y="465" type="line" smooth="yes"/>
      <point x="223" y="374"/>
      <point x="223" y="305" type="qcurve" smooth="yes"/>
      <point x="223" y="102"/>
      <point x="399" y="102" type="qcurve" smooth="yes"/>
      <point x="515" y="102"/>
      <point x="748" y="262"/>
      <point x="821" y="395" type="qcurve"/>
      <point x="965" y="1067" type="line"/>
      <point x="1104" y="1067" type="line"/>
      <point x="918" y="197" type="line" smooth="yes"/>
      <point x="917" y="189"/>
      <point x="911" y="161"/>
      <point x="911" y="158" type="qcurve" smooth="yes"/>
      <point x="911" y="123"/>
      <point x="950" y="123" type="qcurve"/>
      <point x="924" y="0" type="line"/>
      <point x="869" y="-4"/>
      <point x="866" y="-4" type="qcurve" smooth="yes"/>
      <point x="824" y="-3"/>
      <point x="778" y="40"/>
      <point x="778" y="112"/>
      <point x="807" y="242" type="qcurve"/>
      <point x="714" y="118"/>
      <point x="459" y="-20"/>
      <point x="326" y="-20" type="qcurve" smooth="yes"/>
      <point x="76" y="-20"/>
    </contour>
  </outline>
</glyph>
<glyph name="yacute" format="2">
  <advance width="993"/>
  <unicode hex="00FD"/>
  <anchor x="0" y="0" name="Anchor-11"/>
  <anchor x="0" y="0" name="Anchor-10"/>
  <anchor x="684" y="1495" name="Anchor-9"/>
  <anchor x="0" y="0" name="Anchor-8"/>
  <anchor x="627" y="0" name="Anchor-7"/>
  <outline>
    <contour>
      <point x="657" y="1270" type="line"/>
      <point x="571" y="1305" type="line"/>
      <point x="727" y="1495" type="line"/>
      <point x="872" y="1495" type="line"/>
    </contour>
    <contour>
      <point x="-74" y="-346" type="line"/>
      <point x="53" y="-326"/>
      <point x="178" y="-238"/>
      <point x="256" y="-117" type="qcurve" smooth="yes"/>
      <point x="324" y="-16" type="line"/>
      <point x="104" y="1067" type="line"/>
      <point x="250" y="1067" type="line"/>
      <point x="422" y="129" type="line"/>
      <point x="506" y="266" type="line" smooth="yes"/>
      <point x="684" y="556"/>
      <point x="840" y="882"/>
      <point x="889" y="1067" type="qcurve"/>
      <point x="1026" y="1067" type="line"/>
      <point x="970" y="867"/>
      <point x="806" y="534"/>
      <point x="604" y="211" type="qcurve" smooth="yes"/>
      <point x="438" y="-53" type="line" smooth="yes"/>
      <point x="296" y="-281"/>
      <point x="90" y="-452"/>
      <point x="-55" y="-459" type="qcurve"/>
    </contour>
  </outline>
</glyph>
<glyph name="ydieresis" format="2">
  <advance width="993"/>
  <unicode hex="00FF"/>
  <anchor x="0" y="0" name="Anchor-11"/>
  <anchor x="0" y="0" name="Anchor-10"/>
  <anchor x="676" y="1489" name="Anchor-9"/>
  <anchor x="0" y="0" name="Anchor-8"/>
  <anchor x="627" y="0" name="Anchor-7"/>
  <outline>
    <contour>
      <point x="428" y="1296" type="line"/>
      <point x="469" y="1489" type="line"/>
      <point x="588" y="1489" type="line"/>
      <point x="547" y="1296" type="line"/>
    </contour>
    <contour>
      <point x="723" y="1296" type="line"/>
      <point x="764" y="1489" type="line"/>
      <point x="881" y="1489" type="line"/>
      <point x="842" y="1296" type="line"/>
    </contour>
    <contour>
      <point x="-74" y="-346" type="line"/>
      <point x="53" y="-326"/>
      <point x="178" y="-238"/>
      <point x="256" y="-117" type="qcurve" smooth="yes"/>
      <point x="324" y="-16" type="line"/>
      <point x="104" y="1067" type="line"/>
      <point x="250" y="1067" type="line"/>
      <point x="422" y="129" type="line"/>
      <point x="506" y="266" type="line" smooth="yes"/>
      <point x="684" y="556"/>
      <point x="840" y="882"/>
      <point x="889" y="1067" type="qcurve"/>
      <point x="1026" y="1067" type="line"/>
      <point x="970" y="867"/>
      <point x="806" y="534"/>
      <point x="604" y="211" type="qcurve" smooth="yes"/>
      <point x="438" y="-53" type="line" smooth="yes"/>
      <point x="296" y="-281"/>
      <point x="90" y="-452"/>
      <point x="-55" y="-459" type="qcurve"/>
    </contour>
  </outline>
</glyph>
<glyph name="Abreve" format="2">
  <advance width="1333"/>
  <unicode hex="0102"/>
  <anchor x="0" y="0" name="Anchor-11"/>
  <anchor x="0" y="0" name="Anchor-10"/>
  <anchor x="946" y="1882" name="Anchor-9"/>
  <anchor x="1176" y="0" name="Anchor-8"/>
  <anchor x="553" y="0" name="Anchor-7"/>
  <outline>
    <contour>
      <point x="1057" y="1882" type="qcurve"/>
      <point x="1141" y="1882" type="line"/>
      <point x="1122" y="1794"/>
      <point x="985" y="1675"/>
      <point x="903" y="1675" type="qcurve" smooth="yes"/>
      <point x="833" y="1675"/>
      <point x="745" y="1765"/>
      <point x="745" y="1835" type="qcurve" smooth="yes"/>
      <point x="745" y="1854"/>
      <point x="752" y="1882" type="qcurve"/>
      <point x="838" y="1882" type="line"/>
      <point x="834" y="1862"/>
      <point x="834" y="1851" type="qcurve" smooth="yes"/>
      <point x="834" y="1808"/>
      <point x="882" y="1747"/>
      <point x="918" y="1747" type="qcurve" smooth="yes"/>
      <point x="959" y="1747"/>
      <point x="1040" y="1825"/>
    </contour>
    <contour>
      <point x="791" y="1454" type="line"/>
      <point x="913" y="1454" type="line"/>
      <point x="1176" y="0" type="line"/>
      <point x="1024" y="0" type="line"/>
      <point x="944" y="455" type="line"/>
      <point x="332" y="455" type="line"/>
      <point x="61" y="0" type="line"/>
      <point x="-92" y="0" type="line"/>
    </contour>
    <contour>
      <point x="936" y="567" type="line"/>
      <point x="817" y="1286" type="line"/>
      <point x="385" y="567" type="line"/>
    </contour>
  </outline>
</glyph>
<glyph name="abreve" format="2">
  <advance width="1224"/>
  <unicode hex="0103"/>
  <anchor x="0" y="0" name="Anchor-11"/>
  <anchor x="0" y="0" name="Anchor-10"/>
  <anchor x="815" y="1495" name="Anchor-9"/>
  <anchor x="983" y="0" name="Anchor-8"/>
  <anchor x="500" y="0" name="Anchor-7"/>
  <outline>
    <contour>
      <point x="926" y="1495" type="qcurve"/>
      <point x="1010" y="1495" type="line"/>
      <point x="991" y="1407"/>
      <point x="854" y="1288"/>
      <point x="772" y="1288" type="qcurve" smooth="yes"/>
      <point x="702" y="1288"/>
      <point x="614" y="1378"/>
      <point x="614" y="1448" type="qcurve" smooth="yes"/>
      <point x="614" y="1467"/>
      <point x="621" y="1495" type="qcurve"/>
      <point x="707" y="1495" type="line"/>
      <point x="702" y="1470"/>
      <point x="702" y="1464" type="qcurve" smooth="yes"/>
      <point x="702" y="1421"/>
      <point x="750" y="1360"/>
      <point x="786" y="1360" type="qcurve" smooth="yes"/>
      <point x="827" y="1360"/>
      <point x="909" y="1438"/>
    </contour>
    <contour>
      <point x="51" y="426" type="qcurve" smooth="yes"/>
      <point x="51" y="592"/>
      <point x="217" y="898"/>
      <point x="492" y="1085"/>
      <point x="643" y="1085" type="qcurve" smooth="yes"/>
      <point x="766" y="1085"/>
      <point x="937" y="950"/>
      <point x="975" y="844" type="qcurve"/>
      <point x="1024" y="1067" type="line"/>
      <point x="1163" y="1067" type="line"/>
      <point x="975" y="182" type="line" smooth="yes"/>
      <point x="971" y="166"/>
      <point x="971" y="156" type="qcurve" smooth="yes"/>
      <point x="971" y="123"/>
      <point x="1010" y="123" type="qcurve"/>
      <point x="983" y="0" type="line"/>
      <point x="973" y="-1"/>
      <point x="936" y="-6"/>
      <point x="928" y="-6" type="qcurve" smooth="yes"/>
      <point x="883" y="-3"/>
      <point x="834" y="41"/>
      <point x="834" y="76" type="qcurve" smooth="yes"/>
      <point x="834" y="94"/>
      <point x="856" y="207" type="qcurve"/>
      <point x="774" y="103"/>
      <point x="543" y="-20"/>
      <point x="430" y="-20" type="qcurve" smooth="yes"/>
      <point x="315" y="-20"/>
      <point x="139" y="104"/>
      <point x="51" y="305"/>
    </contour>
    <contour>
      <point x="874" y="367" type="qcurve"/>
      <point x="942" y="696" type="line"/>
      <point x="928" y="806"/>
      <point x="763" y="963"/>
      <point x="655" y="963" type="qcurve" smooth="yes"/>
      <point x="537" y="963"/>
      <point x="322" y="808"/>
      <point x="197" y="569"/>
      <point x="197" y="446" type="qcurve" smooth="yes"/>
      <point x="197" y="302"/>
      <point x="359" y="102"/>
      <point x="487" y="102" type="qcurve" smooth="yes"/>
      <point x="592" y="102"/>
      <point x="836" y="262"/>
    </contour>
  </outline>
</glyph>
<glyph name="Aogonek" format="2">
  <advance width="1333"/>
  <unicode hex="0104"/>
  <anchor x="0" y="0" name="Anchor-11"/>
  <anchor x="0" y="0" name="Anchor-10"/>
  <anchor x="856" y="1454" name="Anchor-9"/>
  <anchor x="1176" y="0" name="Anchor-8"/>
  <anchor x="553" y="0" name="Anchor-7"/>
  <outline>
    <contour>
      <point x="1016" y="-213" type="qcurve" smooth="yes"/>
      <point x="1016" y="-243"/>
      <point x="1060" y="-273"/>
      <point x="1106" y="-281" type="qcurve"/>
      <point x="1051" y="-373" type="line"/>
      <point x="983" y="-363"/>
      <point x="922" y="-294"/>
      <point x="922" y="-246" type="qcurve" smooth="yes"/>
      <point x="922" y="-127"/>
      <point x="1079" y="0" type="qcurve"/>
      <point x="1024" y="0" type="line"/>
      <point x="944" y="455" type="line"/>
      <point x="332" y="455" type="line"/>
      <point x="61" y="0" type="line"/>
      <point x="-92" y="0" type="line"/>
      <point x="791" y="1454" type="line"/>
      <point x="913" y="1454" type="line"/>
      <point x="1176" y="0" type="line"/>
      <point x="1088" y="-76"/>
      <point x="1016" y="-171"/>
    </contour>
    <contour>
      <point x="385" y="567" type="line"/>
      <point x="936" y="567" type="line"/>
      <point x="817" y="1286" type="line"/>
    </contour>
  </outline>
</glyph>
<glyph name="aogonek" format="2">
  <advance width="1224"/>
  <unicode hex="0105"/>
  <anchor x="0" y="0" name="Anchor-11"/>
  <anchor x="0" y="0" name="Anchor-10"/>
  <anchor x="725" y="1067" name="Anchor-9"/>
  <anchor x="983" y="0" name="Anchor-8"/>
  <anchor x="500" y="0" name="Anchor-7"/>
  <outline>
    <contour>
      <point x="971" y="156" type="qcurve" smooth="yes"/>
      <point x="971" y="123"/>
      <point x="1010" y="123" type="qcurve"/>
      <point x="983" y="0" type="line"/>
      <point x="895" y="-76"/>
      <point x="823" y="-171"/>
      <point x="823" y="-213" type="qcurve" smooth="yes"/>
      <point x="823" y="-243"/>
      <point x="867" y="-273"/>
      <point x="913" y="-281" type="qcurve"/>
      <point x="858" y="-373" type="line"/>
      <point x="790" y="-363"/>
      <point x="729" y="-294"/>
      <point x="729" y="-246" type="qcurve" smooth="yes"/>
      <point x="729" y="-184"/>
      <point x="807" y="-66"/>
      <point x="889" y="2" type="qcurve"/>
      <point x="834" y="20"/>
      <point x="834" y="76" type="qcurve" smooth="yes"/>
      <point x="834" y="94"/>
      <point x="856" y="207" type="qcurve"/>
      <point x="774" y="103"/>
      <point x="543" y="-20"/>
      <point x="430" y="-20" type="qcurve" smooth="yes"/>
      <point x="315" y="-20"/>
      <point x="139" y="104"/>
      <point x="51" y="305"/>
      <point x="51" y="426" type="qcurve" smooth="yes"/>
      <point x="51" y="592"/>
      <point x="217" y="898"/>
      <point x="492" y="1085"/>
      <point x="643" y="1085" type="qcurve" smooth="yes"/>
      <point x="766" y="1085"/>
      <point x="937" y="950"/>
      <point x="975" y="844" type="qcurve"/>
      <point x="1024" y="1067" type="line"/>
      <point x="1163" y="1067" type="line"/>
      <point x="975" y="182" type="line" smooth="yes"/>
      <point x="971" y="166"/>
    </contour>
    <contour>
      <point x="487" y="102" type="qcurve" smooth="yes"/>
      <point x="592" y="102"/>
      <point x="836" y="262"/>
      <point x="874" y="367" type="qcurve"/>
      <point x="942" y="696" type="line"/>
      <point x="928" y="806"/>
      <point x="763" y="963"/>
      <point x="655" y="963" type="qcurve" smooth="yes"/>
      <point x="537" y="963"/>
      <point x="322" y="808"/>
      <point x="197" y="569"/>
      <point x="197" y="446" type="qcurve" smooth="yes"/>
      <point x="197" y="302"/>
      <point x="359" y="102"/>
    </contour>
  </outline>
</glyph>
<glyph name="cacute" format="2">
  <advance width="1077"/>
  <unicode hex="0107"/>
  <anchor x="0" y="0" name="Anchor-11"/>
  <anchor x="0" y="0" name="Anchor-10"/>
  <anchor x="786" y="1495" name="Anchor-9"/>
  <anchor x="0" y="0" name="Anchor-8"/>
  <anchor x="483" y="0" name="Anchor-7"/>
  <outline>
    <contour>
      <point x="760" y="1270" type="line"/>
      <point x="674" y="1305" type="line"/>
      <point x="829" y="1495" type="line"/>
      <point x="975" y="1495" type="line"/>
    </contour>
    <contour>
      <point x="51" y="432" type="qcurve" smooth="yes"/>
      <point x="51" y="602"/>
      <point x="221" y="903"/>
      <point x="516" y="1085"/>
      <point x="688" y="1085" type="qcurve" smooth="yes"/>
      <point x="833" y="1085"/>
      <point x="1021" y="950"/>
      <point x="1051" y="831" type="qcurve"/>
      <point x="907" y="788" type="line"/>
      <point x="881" y="873"/>
      <point x="757" y="963"/>
      <point x="579" y="963"/>
      <point x="406" y="881"/>
      <point x="275" y="744"/>
      <point x="195" y="553"/>
      <point x="195" y="451" type="qcurve" smooth="yes"/>
      <point x="195" y="300"/>
      <point x="352" y="102"/>
      <point x="477" y="102" type="qcurve" smooth="yes"/>
      <point x="574" y="102"/>
      <point x="770" y="211"/>
      <point x="807" y="285" type="qcurve"/>
      <point x="936" y="244" type="line"/>
      <point x="870" y="128"/>
      <point x="605" y="-20"/>
      <point x="461" y="-20" type="qcurve" smooth="yes"/>
      <point x="273" y="-20"/>
      <point x="51" y="238"/>
    </contour>
  </outline>
</glyph>
<glyph name="Ccircumflex" format="2">
  <advance width="1343"/>
  <unicode hex="0108"/>
  <anchor x="0" y="0" name="Anchor-11"/>
  <anchor x="0" y="0" name="Anchor-10"/>
  <anchor x="944" y="1864" name="Anchor-9"/>
  <anchor x="0" y="0" name="Anchor-8"/>
  <anchor x="559" y="0" name="Anchor-7"/>
  <outline>
    <contour>
      <point x="676" y="1690" type="line"/>
      <point x="907" y="1864" type="line"/>
      <point x="1008" y="1864" type="line"/>
      <point x="1163" y="1690" type="line"/>
      <point x="1077" y="1649" type="line"/>
      <point x="938" y="1778" type="line"/>
      <point x="745" y="1649" type="line"/>
    </contour>
    <contour>
      <point x="96" y="592" type="qcurve" smooth="yes"/>
      <point x="96" y="714"/>
      <point x="171" y="964"/>
      <point x="316" y="1186"/>
      <point x="510" y="1360"/>
      <point x="769" y="1462"/>
      <point x="911" y="1462" type="qcurve" smooth="yes"/>
      <point x="1101" y="1462"/>
      <point x="1333" y="1289"/>
      <point x="1370" y="1145" type="qcurve"/>
      <point x="1249" y="1079" type="line"/>
      <point x="1176" y="1333"/>
      <point x="893" y="1333" type="qcurve" smooth="yes"/>
      <point x="772" y="1333"/>
      <point x="559" y="1246"/>
      <point x="406" y="1099"/>
      <point x="295" y="911"/>
      <point x="240" y="705"/>
      <point x="240" y="604" type="qcurve" smooth="yes"/>
      <point x="240" y="470"/>
      <point x="333" y="251"/>
      <point x="521" y="117"/>
      <point x="647" y="117" type="qcurve" smooth="yes"/>
      <point x="772" y="117"/>
      <point x="1027" y="254"/>
      <point x="1116" y="387" type="qcurve"/>
      <point x="1223" y="326" type="line"/>
      <point x="1154" y="216"/>
      <point x="946" y="59"/>
      <point x="729" y="-12"/>
      <point x="621" y="-12" type="qcurve" smooth="yes"/>
      <point x="496" y="-12"/>
      <point x="293" y="91"/>
      <point x="165" y="262"/>
      <point x="96" y="476"/>
    </contour>
  </outline>
</glyph>
<glyph name="ccircumflex" format="2">
  <advance width="1077"/>
  <unicode hex="0109"/>
  <anchor x="0" y="0" name="Anchor-11"/>
  <anchor x="0" y="0" name="Anchor-10"/>
  <anchor x="764" y="1477" name="Anchor-9"/>
  <anchor x="0" y="0" name="Anchor-8"/>
  <anchor x="483" y="0" name="Anchor-7"/>
  <outline>
    <contour>
      <point x="496" y="1303" type="line"/>
      <point x="727" y="1477" type="line"/>
      <point x="827" y="1477" type="line"/>
      <point x="983" y="1303" type="line"/>
      <point x="897" y="1262" type="line"/>
      <point x="758" y="1391" type="line"/>
      <point x="565" y="1262" type="line"/>
    </contour>
    <contour>
      <point x="51" y="432" type="qcurve" smooth="yes"/>
      <point x="51" y="602"/>
      <point x="221" y="903"/>
      <point x="516" y="1085"/>
      <point x="688" y="1085" type="qcurve" smooth="yes"/>
      <point x="833" y="1085"/>
      <point x="1021" y="950"/>
      <point x="1051" y="831" type="qcurve"/>
      <point x="907" y="788" type="line"/>
      <point x="881" y="873"/>
      <point x="757" y="963"/>
      <point x="579" y="963"/>
      <point x="406" y="881"/>
      <point x="275" y="744"/>
      <point x="195" y="553"/>
      <point x="195" y="451" type="qcurve" smooth="yes"/>
      <point x="195" y="300"/>
      <point x="352" y="102"/>
      <point x="477" y="102" type="qcurve" smooth="yes"/>
      <point x="574" y="102"/>
      <point x="770" y="211"/>
      <point x="807" y="285" type="qcurve"/>
      <point x="936" y="244" type="line"/>
      <point x="870" y="128"/>
      <point x="605" y="-20"/>
      <point x="461" y="-20" type="qcurve" smooth="yes"/>
      <point x="273" y="-20"/>
      <point x="51" y="238"/>
    </contour>
  </outline>
</glyph>
<glyph name="Ccaron" format="2">
  <advance width="1343"/>
  <unicode hex="010C"/>
  <anchor x="0" y="0" name="Anchor-11"/>
  <anchor x="0" y="0" name="Anchor-10"/>
  <anchor x="961" y="1882" name="Anchor-9"/>
  <anchor x="0" y="0" name="Anchor-8"/>
  <anchor x="559" y="0" name="Anchor-7"/>
  <outline>
    <contour>
      <point x="694" y="1841" type="line"/>
      <point x="780" y="1882" type="line"/>
      <point x="920" y="1753" type="line"/>
      <point x="1112" y="1882" type="line"/>
      <point x="1182" y="1841" type="line"/>
      <point x="950" y="1665" type="line"/>
      <point x="848" y="1665" type="line"/>
    </contour>
    <contour>
      <point x="96" y="592" type="qcurve" smooth="yes"/>
      <point x="96" y="714"/>
      <point x="171" y="964"/>
      <point x="316" y="1186"/>
      <point x="510" y="1360"/>
      <point x="769" y="1462"/>
      <point x="911" y="1462" type="qcurve" smooth="yes"/>
      <point x="1101" y="1462"/>
      <point x="1333" y="1289"/>
      <point x="1370" y="1145" type="qcurve"/>
      <point x="1249" y="1079" type="line"/>
      <point x="1176" y="1333"/>
      <point x="893" y="1333" type="qcurve" smooth="yes"/>
      <point x="772" y="1333"/>
      <point x="559" y="1246"/>
      <point x="406" y="1099"/>
      <point x="295" y="911"/>
      <point x="240" y="705"/>
      <point x="240" y="604" type="qcurve" smooth="yes"/>
      <point x="240" y="470"/>
      <point x="333" y="251"/>
      <point x="521" y="117"/>
      <point x="647" y="117" type="qcurve" smooth="yes"/>
      <point x="772" y="117"/>
      <point x="1027" y="254"/>
      <point x="1116" y="387" type="qcurve"/>
      <point x="1223" y="326" type="line"/>
      <point x="1154" y="216"/>
      <point x="946" y="59"/>
      <point x="729" y="-12"/>
      <point x="621" y="-12" type="qcurve" smooth="yes"/>
      <point x="496" y="-12"/>
      <point x="293" y="91"/>
      <point x="165" y="262"/>
      <point x="96" y="476"/>
    </contour>
  </outline>
</glyph>
<glyph name="emacron" format="2">
  <advance width="1093"/>
  <unicode hex="0113"/>
  <anchor x="0" y="0" name="Anchor-11"/>
  <anchor x="0" y="0" name="Anchor-10"/>
  <anchor x="772" y="1452" name="Anchor-9"/>
  <anchor x="580" y="0" name="Anchor-8"/>
  <anchor x="465" y="0" name="Anchor-7"/>
  <outline>
    <contour>
      <point x="1053" y="1452" type="line"/>
      <point x="1032" y="1356" type="line"/>
      <point x="469" y="1356" type="line"/>
      <point x="489" y="1452" type="line"/>
    </contour>
    <contour>
      <point x="690" y="1085" type="qcurve" smooth="yes"/>
      <point x="838" y="1085"/>
      <point x="1034" y="935"/>
      <point x="1034" y="799" type="qcurve" smooth="yes"/>
      <point x="1034" y="481"/>
      <point x="465" y="481" type="qcurve" smooth="yes"/>
      <point x="384" y="481"/>
      <point x="197" y="492" type="qcurve"/>
      <point x="193" y="452"/>
      <point x="193" y="432" type="qcurve" smooth="yes"/>
      <point x="193" y="283"/>
      <point x="345" y="86"/>
      <point x="487" y="86" type="qcurve" smooth="yes"/>
      <point x="587" y="86"/>
      <point x="784" y="196"/>
      <point x="836" y="285" type="qcurve"/>
      <point x="950" y="250" type="line"/>
      <point x="876" y="129"/>
      <point x="608" y="-20"/>
      <point x="463" y="-20" type="qcurve" smooth="yes"/>
      <point x="272" y="-20"/>
      <point x="51" y="237"/>
      <point x="51" y="432" type="qcurve" smooth="yes"/>
      <point x="51" y="557"/>
      <point x="149" y="794"/>
      <point x="317" y="975"/>
      <point x="557" y="1085"/>
    </contour>
    <contour>
      <point x="471" y="582" type="qcurve" smooth="yes"/>
      <point x="907" y="582"/>
      <point x="907" y="801" type="qcurve" smooth="yes"/>
      <point x="907" y="889"/>
      <point x="779" y="977"/>
      <point x="680" y="977" type="qcurve" smooth="yes"/>
      <point x="562" y="977"/>
      <point x="366" y="865"/>
      <point x="246" y="696"/>
      <point x="217" y="592" type="qcurve"/>
      <point x="380" y="582"/>
    </contour>
  </outline>
</glyph>
<glyph name="Ebreve" format="2">
  <advance width="1191"/>
  <unicode hex="0114"/>
  <anchor x="0" y="0" name="Anchor-11"/>
  <anchor x="0" y="0" name="Anchor-10"/>
  <anchor x="881" y="1882" name="Anchor-9"/>
  <anchor x="979" y="0" name="Anchor-8"/>
  <anchor x="483" y="0" name="Anchor-7"/>
  <outline>
    <contour>
      <point x="991" y="1882" type="qcurve"/>
      <point x="1075" y="1882" type="line"/>
      <point x="1056" y="1794"/>
      <point x="920" y="1675"/>
      <point x="838" y="1675" type="qcurve" smooth="yes"/>
      <point x="768" y="1675"/>
      <point x="680" y="1765"/>
      <point x="680" y="1835" type="qcurve" smooth="yes"/>
      <point x="680" y="1858"/>
      <point x="686" y="1882" type="qcurve"/>
      <point x="772" y="1882" type="line"/>
      <point x="768" y="1862"/>
      <point x="768" y="1851" type="qcurve" smooth="yes"/>
      <point x="768" y="1808"/>
      <point x="816" y="1747"/>
      <point x="852" y="1747" type="qcurve" smooth="yes"/>
      <point x="893" y="1747"/>
      <point x="974" y="1825"/>
    </contour>
    <contour>
      <point x="358" y="1454" type="line"/>
      <point x="1270" y="1454" type="line"/>
      <point x="1243" y="1327" type="line"/>
      <point x="473" y="1327" type="line"/>
      <point x="360" y="803" type="line"/>
      <point x="1032" y="803" type="line"/>
      <point x="1008" y="682" type="line"/>
      <point x="336" y="682" type="line"/>
      <point x="217" y="127" type="line"/>
      <point x="1006" y="127" type="line"/>
      <point x="979" y="0" type="line"/>
      <point x="49" y="0" type="line"/>
    </contour>
  </outline>
</glyph>
<glyph name="ebreve" format="2">
  <advance width="1093"/>
  <unicode hex="0115"/>
  <anchor x="0" y="0" name="Anchor-11"/>
  <anchor x="0" y="0" name="Anchor-10"/>
  <anchor x="780" y="1495" name="Anchor-9"/>
  <anchor x="580" y="0" name="Anchor-8"/>
  <anchor x="465" y="0" name="Anchor-7"/>
  <outline>
    <contour>
      <point x="737" y="1288" type="qcurve" smooth="yes"/>
      <point x="667" y="1288"/>
      <point x="580" y="1378"/>
      <point x="580" y="1448" type="qcurve" smooth="yes"/>
      <point x="580" y="1471"/>
      <point x="586" y="1495" type="qcurve"/>
      <point x="672" y="1495" type="line"/>
      <point x="668" y="1475"/>
      <point x="668" y="1464" type="qcurve" smooth="yes"/>
      <point x="668" y="1421"/>
      <point x="716" y="1360"/>
      <point x="752" y="1360" type="qcurve" smooth="yes"/>
      <point x="793" y="1360"/>
      <point x="874" y="1438"/>
      <point x="891" y="1495" type="qcurve"/>
      <point x="975" y="1495" type="line"/>
      <point x="956" y="1407"/>
      <point x="819" y="1288"/>
    </contour>
    <contour>
      <point x="465" y="481" type="qcurve" smooth="yes"/>
      <point x="384" y="481"/>
      <point x="197" y="492" type="qcurve"/>
      <point x="193" y="452"/>
      <point x="193" y="432" type="qcurve" smooth="yes"/>
      <point x="193" y="283"/>
      <point x="345" y="86"/>
      <point x="487" y="86" type="qcurve" smooth="yes"/>
      <point x="587" y="86"/>
      <point x="784" y="196"/>
      <point x="836" y="285" type="qcurve"/>
      <point x="950" y="250" type="line"/>
      <point x="876" y="129"/>
      <point x="608" y="-20"/>
      <point x="463" y="-20" type="qcurve" smooth="yes"/>
      <point x="272" y="-20"/>
      <point x="51" y="237"/>
      <point x="51" y="432" type="qcurve" smooth="yes"/>
      <point x="51" y="557"/>
      <point x="149" y="794"/>
      <point x="317" y="975"/>
      <point x="557" y="1085"/>
      <point x="690" y="1085" type="qcurve" smooth="yes"/>
      <point x="838" y="1085"/>
      <point x="1034" y="935"/>
      <point x="1034" y="799" type="qcurve" smooth="yes"/>
      <point x="1034" y="481"/>
    </contour>
    <contour>
      <point x="680" y="977" type="qcurve" smooth="yes"/>
      <point x="562" y="977"/>
      <point x="366" y="865"/>
      <point x="246" y="696"/>
      <point x="217" y="592" type="qcurve"/>
      <point x="380" y="582"/>
      <point x="471" y="582" type="qcurve" smooth="yes"/>
      <point x="907" y="582"/>
      <point x="907" y="801" type="qcurve" smooth="yes"/>
      <point x="907" y="889"/>
      <point x="779" y="977"/>
    </contour>
  </outline>
</glyph>
<glyph name="Edot" format="2">
  <advance width="1191"/>
  <unicode hex="0116"/>
  <anchor x="0" y="0" name="Anchor-11"/>
  <anchor x="0" y="0" name="Anchor-10"/>
  <anchor x="881" y="1882" name="Anchor-9"/>
  <anchor x="979" y="0" name="Anchor-8"/>
  <anchor x="483" y="0" name="Anchor-7"/>
  <outline>
    <contour>
      <point x="776" y="1683" type="line"/>
      <point x="819" y="1882" type="line"/>
      <point x="946" y="1882" type="line"/>
      <point x="903" y="1683" type="line"/>
    </contour>
    <contour>
      <point x="358" y="1454" type="line"/>
      <point x="1270" y="1454" type="line"/>
      <point x="1243" y="1327" type="line"/>
      <point x="473" y="1327" type="line"/>
      <point x="360" y="803" type="line"/>
      <point x="1032" y="803" type="line"/>
      <point x="1008" y="682" type="line"/>
      <point x="336" y="682" type="line"/>
      <point x="217" y="127" type="line"/>
      <point x="1006" y="127" type="line"/>
      <point x="979" y="0" type="line"/>
      <point x="49" y="0" type="line"/>
    </contour>
  </outline>
</glyph>
<glyph name="Eogonek" format="2">
  <advance width="1191"/>
  <unicode hex="0118"/>
  <anchor x="0" y="0" name="Anchor-11"/>
  <anchor x="0" y="0" name="Anchor-10"/>
  <anchor x="791" y="1454" name="Anchor-9"/>
  <anchor x="979" y="0" name="Anchor-8"/>
  <anchor x="483" y="0" name="Anchor-7"/>
  <outline>
    <contour>
      <point x="1243" y="1327" type="line"/>
      <point x="473" y="1327" type="line"/>
      <point x="360" y="803" type="line"/>
      <point x="1032" y="803" type="line"/>
      <point x="1008" y="682" type="line"/>
      <point x="336" y="682" type="line"/>
      <point x="217" y="127" type="line"/>
      <point x="1006" y="127" type="line"/>
      <point x="979" y="0" type="line"/>
      <point x="891" y="-76"/>
      <point x="819" y="-171"/>
      <point x="819" y="-213" type="qcurve" smooth="yes"/>
      <point x="819" y="-243"/>
      <point x="863" y="-273"/>
      <point x="909" y="-281" type="qcurve"/>
      <point x="854" y="-373" type="line"/>
      <point x="786" y="-363"/>
      <point x="725" y="-294"/>
      <point x="725" y="-246" type="qcurve" smooth="yes"/>
      <point x="725" y="-128"/>
      <point x="883" y="0" type="qcurve"/>
      <point x="49" y="0" type="line"/>
      <point x="358" y="1454" type="line"/>
      <point x="1270" y="1454" type="line"/>
    </contour>
  </outline>
</glyph>
<glyph name="eogonek" format="2">
  <advance width="1093"/>
  <unicode hex="0119"/>
  <anchor x="0" y="0" name="Anchor-11"/>
  <anchor x="0" y="0" name="Anchor-10"/>
  <anchor x="690" y="1067" name="Anchor-9"/>
  <anchor x="580" y="0" name="Anchor-8"/>
  <anchor x="465" y="0" name="Anchor-7"/>
  <outline>
    <contour>
      <point x="465" y="481" type="qcurve" smooth="yes"/>
      <point x="384" y="481"/>
      <point x="197" y="492" type="qcurve"/>
      <point x="193" y="452"/>
      <point x="193" y="432" type="qcurve" smooth="yes"/>
      <point x="193" y="283"/>
      <point x="345" y="86"/>
      <point x="487" y="86" type="qcurve" smooth="yes"/>
      <point x="587" y="86"/>
      <point x="784" y="196"/>
      <point x="836" y="285" type="qcurve"/>
      <point x="950" y="250" type="line"/>
      <point x="890" y="152"/>
      <point x="686" y="13"/>
      <point x="569" y="-10" type="qcurve"/>
      <point x="488" y="-82"/>
      <point x="420" y="-173"/>
      <point x="420" y="-213" type="qcurve" smooth="yes"/>
      <point x="420" y="-243"/>
      <point x="464" y="-273"/>
      <point x="510" y="-281" type="qcurve"/>
      <point x="455" y="-373" type="line"/>
      <point x="387" y="-363"/>
      <point x="326" y="-294"/>
      <point x="326" y="-246" type="qcurve" smooth="yes"/>
      <point x="326" y="-135"/>
      <point x="459" y="-20" type="qcurve"/>
      <point x="333" y="-19"/>
      <point x="145" y="103"/>
      <point x="51" y="306"/>
      <point x="51" y="432" type="qcurve" smooth="yes"/>
      <point x="51" y="557"/>
      <point x="149" y="794"/>
      <point x="317" y="975"/>
      <point x="557" y="1085"/>
      <point x="690" y="1085" type="qcurve" smooth="yes"/>
      <point x="838" y="1085"/>
      <point x="1034" y="935"/>
      <point x="1034" y="799" type="qcurve" smooth="yes"/>
      <point x="1034" y="481"/>
    </contour>
    <contour>
      <point x="680" y="977" type="qcurve" smooth="yes"/>
      <point x="562" y="977"/>
      <point x="366" y="865"/>
      <point x="246" y="696"/>
      <point x="217" y="592" type="qcurve"/>
      <point x="380" y="582"/>
      <point x="471" y="582" type="qcurve" smooth="yes"/>
      <point x="907" y="582"/>
      <point x="907" y="801" type="qcurve" smooth="yes"/>
      <point x="907" y="889"/>
      <point x="779" y="977"/>
    </contour>
  </outline>
</glyph>
<glyph name="Ecaron" format="2">
  <advance width="1191"/>
  <unicode hex="011A"/>
  <anchor x="0" y="0" name="Anchor-11"/>
  <anchor x="0" y="0" name="Anchor-10"/>
  <anchor x="883" y="1882" name="Anchor-9"/>
  <anchor x="979" y="0" name="Anchor-8"/>
  <anchor x="483" y="0" name="Anchor-7"/>
  <outline>
    <contour>
      <point x="616" y="1841" type="line"/>
      <point x="702" y="1882" type="line"/>
      <point x="842" y="1753" type="line"/>
      <point x="1034" y="1882" type="line"/>
      <point x="1104" y="1841" type="line"/>
      <point x="872" y="1665" type="line"/>
      <point x="770" y="1665" type="line"/>
    </contour>
    <contour>
      <point x="358" y="1454" type="line"/>
      <point x="1270" y="1454" type="line"/>
      <point x="1243" y="1327" type="line"/>
      <point x="473" y="1327" type="line"/>
      <point x="360" y="803" type="line"/>
      <point x="1032" y="803" type="line"/>
      <point x="1008" y="682" type="line"/>
      <point x="336" y="682" type="line"/>
      <point x="217" y="127" type="line"/>
      <point x="1006" y="127" type="line"/>
      <point x="979" y="0" type="line"/>
      <point x="49" y="0" type="line"/>
    </contour>
  </outline>
</glyph>
<glyph name="gdot" format="2">
  <advance width="1212"/>
  <unicode hex="0121"/>
  <anchor x="0" y="0" name="Anchor-11"/>
  <anchor x="0" y="0" name="Anchor-10"/>
  <anchor x="772" y="1495" name="Anchor-9"/>
  <anchor x="0" y="0" name="Anchor-8"/>
  <anchor x="0" y="0" name="Anchor-7"/>
  <outline>
    <contour>
      <point x="668" y="1296" type="line"/>
      <point x="711" y="1495" type="line"/>
      <point x="838" y="1495" type="line"/>
      <point x="795" y="1296" type="line"/>
    </contour>
    <contour>
      <point x="-68" y="-215" type="qcurve"/>
      <point x="31" y="-147" type="line"/>
      <point x="68" y="-245"/>
      <point x="242" y="-346"/>
      <point x="360" y="-346" type="qcurve" smooth="yes"/>
      <point x="515" y="-346"/>
      <point x="758" y="-168"/>
      <point x="793" y="-4" type="qcurve" smooth="yes"/>
      <point x="838" y="207" type="line"/>
      <point x="761" y="106"/>
      <point x="531" y="-14"/>
      <point x="420" y="-14" type="qcurve" smooth="yes"/>
      <point x="307" y="-14"/>
      <point x="135" y="110"/>
      <point x="49" y="308"/>
      <point x="49" y="426" type="qcurve" smooth="yes"/>
      <point x="49" y="549"/>
      <point x="148" y="790"/>
      <point x="310" y="972"/>
      <point x="533" y="1085"/>
      <point x="651" y="1085" type="qcurve" smooth="yes"/>
      <point x="882" y="1085"/>
      <point x="989" y="844" type="qcurve"/>
      <point x="1036" y="1067" type="line"/>
      <point x="1159" y="1067" type="line"/>
      <point x="932" y="-4" type="line" smooth="yes"/>
      <point x="910" y="-112"/>
      <point x="794" y="-287"/>
      <point x="633" y="-398"/>
      <point x="441" y="-457"/>
      <point x="338" y="-457" type="qcurve" smooth="yes"/>
      <point x="171" y="-457"/>
      <point x="-23" y="-332"/>
    </contour>
    <contour>
      <point x="872" y="367" type="qcurve"/>
      <point x="942" y="696" type="line"/>
      <point x="925" y="811"/>
      <point x="760" y="963"/>
      <point x="653" y="963" type="qcurve" smooth="yes"/>
      <point x="530" y="963"/>
      <point x="314" y="803"/>
      <point x="193" y="566"/>
      <point x="193" y="449" type="qcurve" smooth="yes"/>
      <point x="193" y="304"/>
      <point x="356" y="102"/>
      <point x="485" y="102" type="qcurve" smooth="yes"/>
      <point x="599" y="102"/>
      <point x="833" y="266"/>
    </contour>
  </outline>
</glyph>
<glyph name="Hcircumflex" format="2">
  <advance width="1452"/>
  <unicode hex="0124"/>
  <anchor x="0" y="0" name="Anchor-11"/>
  <anchor x="768" y="727" name="Anchor-10"/>
  <anchor x="999" y="1864" name="Anchor-9"/>
  <anchor x="0" y="0" name="Anchor-8"/>
  <anchor x="614" y="0" name="Anchor-7"/>
  <outline>
    <contour>
      <point x="731" y="1690" type="line"/>
      <point x="963" y="1864" type="line"/>
      <point x="1063" y="1864" type="line"/>
      <point x="1219" y="1690" type="line"/>
      <point x="1133" y="1649" type="line"/>
      <point x="993" y="1778" type="line"/>
      <point x="801" y="1649" type="line"/>
    </contour>
    <contour>
      <point x="358" y="1454" type="line"/>
      <point x="500" y="1454" type="line"/>
      <point x="362" y="807" type="line"/>
      <point x="1171" y="807" type="line"/>
      <point x="1309" y="1454" type="line"/>
      <point x="1452" y="1454" type="line"/>
      <point x="1143" y="0" type="line"/>
      <point x="999" y="0" type="line"/>
      <point x="1145" y="680" type="line"/>
      <point x="336" y="680" type="line"/>
      <point x="190" y="0" type="line"/>
      <point x="49" y="0" type="line"/>
    </contour>
  </outline>
</glyph>
<glyph name="Hbar" format="2">
  <advance width="1472"/>
  <unicode hex="0126"/>
  <outline>
    <contour>
      <point x="1507" y="1206" type="line"/>
      <point x="1489" y="1126" type="line"/>
      <point x="1393" y="1126" type="line"/>
      <point x="1153" y="0" type="line"/>
      <point x="1012" y="0" type="line"/>
      <point x="1155" y="680" type="line"/>
      <point x="346" y="680" type="line"/>
      <point x="203" y="0" type="line"/>
      <point x="59" y="0" type="line"/>
      <point x="299" y="1126" type="line"/>
      <point x="203" y="1126" type="line"/>
      <point x="219" y="1206" type="line"/>
      <point x="315" y="1206" type="line"/>
      <point x="369" y="1454" type="line"/>
      <point x="512" y="1454" type="line"/>
      <point x="459" y="1206" type="line"/>
      <point x="1268" y="1206" type="line"/>
      <point x="1321" y="1454" type="line"/>
      <point x="1462" y="1454" type="line"/>
      <point x="1409" y="1206" type="line"/>
    </contour>
    <contour>
      <point x="1184" y="807" type="line"/>
      <point x="1251" y="1126" type="line"/>
      <point x="442" y="1126" type="line"/>
      <point x="375" y="807" type="line"/>
    </contour>
  </outline>
</glyph>
<glyph name="Itilde" format="2">
  <advance width="501"/>
  <unicode hex="0128"/>
  <anchor x="0" y="0" name="Anchor-11"/>
  <anchor x="0" y="0" name="Anchor-10"/>
  <anchor x="520" y="1880" name="Anchor-9"/>
  <anchor x="190" y="0" name="Anchor-8"/>
  <anchor x="121" y="0" name="Anchor-7"/>
  <outline>
    <contour>
      <point x="367" y="1774" type="qcurve" smooth="yes"/>
      <point x="329" y="1774"/>
      <point x="272" y="1726"/>
      <point x="252" y="1686"/>
      <point x="250" y="1675" type="qcurve"/>
      <point x="164" y="1675" type="line"/>
      <point x="166" y="1686"/>
      <point x="184" y="1726"/>
      <point x="221" y="1783"/>
      <point x="269" y="1832"/>
      <point x="344" y="1866"/>
      <point x="385" y="1866" type="qcurve" smooth="yes"/>
      <point x="431" y="1866"/>
      <point x="506" y="1823"/>
      <point x="575" y="1780"/>
      <point x="614" y="1780" type="qcurve" smooth="yes"/>
      <point x="643" y="1780"/>
      <point x="691" y="1800"/>
      <point x="719" y="1826"/>
      <point x="740" y="1858"/>
      <point x="747" y="1875"/>
      <point x="748" y="1880" type="qcurve"/>
      <point x="834" y="1880" type="line"/>
      <point x="831" y="1865"/>
      <point x="802" y="1812"/>
      <point x="749" y="1742"/>
      <point x="654" y="1692"/>
      <point x="598" y="1692" type="qcurve" smooth="yes"/>
      <point x="559" y="1692"/>
      <point x="491" y="1718"/>
      <point x="450" y="1748"/>
      <point x="395" y="1774"/>
    </contour>
    <contour>
      <point x="358" y="1452" type="line"/>
      <point x="500" y="1452" type="line"/>
      <point x="190" y="0" type="line"/>
      <point x="49" y="0" type="line"/>
    </contour>
  </outline>
</glyph>
